<svg width="66" height="60" viewBox="0 0 66 60" fill="none" xmlns="http://www.w3.org/2000/svg">
<g clip-path="url(#clip0)">
<path d="M15.4975 6.16284L15.5085 6.17301C17.1316 6.24684 18.6663 6.87787 19.8121 7.9425C21.5432 9.75143 22.7977 11.9059 23.4774 14.2374L17.8089 20.0747C15.0904 19.4797 12.5726 18.2747 10.4784 16.5662C9.32245 15.5099 8.6388 14.0905 8.56323 12.59L10.0822 7.58657L15.4975 6.16284Z" fill="#E64C3C"/>
<path d="M17.1155 2.13559C17.1294 3.6044 16.5663 5.02803 15.5305 6.14237C15.5195 6.15254 15.5085 6.16271 15.4975 6.16271C13.5603 7.9322 10.0822 7.58644 10.0822 7.58644C10.0822 7.58644 9.70794 4.3322 11.6451 2.55254C12.8512 1.59555 14.392 1.07523 15.9818 1.08813C16.2859 1.07745 16.581 1.18438 16.7961 1.38318C17.0113 1.58197 17.127 1.85465 17.1155 2.13559Z" fill="#4FBA6F"/>
<path d="M8.56325 12.5898L8.53023 12.6203C7.32329 13.5748 5.78213 14.0916 4.19357 14.0746C3.8895 14.0852 3.59437 13.9783 3.37921 13.7795C3.16404 13.5807 3.04831 13.3081 3.05987 13.0271C3.04065 11.5575 3.60446 10.1322 4.64485 9.02033C6.57103 7.2305 10.0822 7.58644 10.0822 7.58644C10.0822 7.58644 10.4674 10.7898 8.56325 12.5898Z" fill="#4FBA6F"/>
<path d="M10.0877 8.60444C9.79125 8.60495 9.50712 8.49495 9.29961 8.29935C5.71361 4.89664 4.17487 4.64139 4.16056 4.64037C3.8732 4.6389 3.59875 4.52991 3.39986 4.33828C3.20096 4.14666 3.09458 3.88875 3.10501 3.62342C3.12529 3.05345 3.6336 2.60231 4.25081 2.60647C4.74832 2.60647 6.69982 2.91156 10.8769 6.87766C11.1875 7.17045 11.2775 7.60696 11.105 7.98473C10.9326 8.3625 10.5314 8.60765 10.0877 8.60647V8.60444Z" fill="#4C8056"/>
<path d="M17.3687 12.2036C17.9766 12.2036 18.4694 11.7483 18.4694 11.1866C18.4694 10.625 17.9766 10.1697 17.3687 10.1697C16.7608 10.1697 16.268 10.625 16.268 11.1866C16.268 11.7483 16.7608 12.2036 17.3687 12.2036Z" fill="#F0C419"/>
<path d="M14.0666 15.2544C14.6745 15.2544 15.1673 14.7991 15.1673 14.2374C15.1673 13.6758 14.6745 13.2205 14.0666 13.2205C13.4587 13.2205 12.9659 13.6758 12.9659 14.2374C12.9659 14.7991 13.4587 15.2544 14.0666 15.2544Z" fill="#F0C419"/>
<path d="M22.5314 58.6577C20.8322 59.8091 18.6814 60.2346 16.6208 59.8272C16.1091 59.7036 15.617 59.519 15.1569 59.278C14.692 59.5173 14.1965 59.7018 13.682 59.8272C8.96011 60.9458 3.53378 56.5933 1.56357 50.0848C-0.406639 43.5763 1.84975 37.3933 6.58265 36.2746C8.58015 35.8655 10.6717 36.2572 12.3392 37.3526C14.0557 38.3594 16.2472 38.3594 17.9636 37.3526C18.5403 37.015 19.1525 36.7322 19.7908 36.5085L23.9733 46.7797C23.9953 46.9424 22.4544 58.5153 22.5314 58.6577Z" fill="#E64C3C"/>
<path d="M5.81156 50.0106C5.31745 50.0104 4.88403 49.706 4.75161 49.2662C3.62562 45.5319 4.28932 42.4984 5.28654 40.9048C5.71323 40.102 6.47743 39.4959 7.40093 39.2278C7.78198 39.137 8.18652 39.2409 8.46218 39.5004C8.73784 39.7599 8.84273 40.1355 8.73735 40.4858C8.63197 40.8361 8.33231 41.1079 7.95127 41.1987C7.61464 41.3496 7.34675 41.6057 7.19511 41.9217C6.16857 44.0704 6.05424 46.4971 6.87481 48.7201C6.96756 49.0269 6.89934 49.3561 6.6905 49.6096C6.48167 49.8631 6.15634 50.0115 5.81156 50.0106Z" fill="white"/>
<path d="M15.8057 34.8713C15.4095 36.3256 12.8559 36.9967 10.0822 36.3662C8.16702 35.9289 5.39331 33.9052 3.87438 32.7052C3.65799 32.5383 3.56505 32.2711 3.63564 32.0189C3.70623 31.7667 3.92772 31.5747 4.20458 31.5256C6.14177 31.1595 9.58689 30.6408 11.5021 31.0781C14.2758 31.7086 16.202 33.4069 15.8057 34.8713Z" fill="#4FBA6F"/>
<path d="M47.3621 58.8305C46.9974 59.5425 46.2224 59.9974 45.3699 60H24.5891C23.6632 60.0045 22.8364 59.4653 22.5309 58.6577C22.4587 58.5097 22.414 58.3516 22.3988 58.1899L19.7902 36.5085L18.2712 23.8577L21.7714 25.4746C24.5427 26.756 27.8055 26.756 30.5768 25.4746C33.346 24.2 36.602 24.2 39.3712 25.4746L39.3822 25.4848C42.1522 26.7559 45.4066 26.7559 48.1766 25.4848L51.6878 23.8577L49.6295 40.9729L47.3621 58.8305Z" fill="#F29C1F"/>
<path d="M52.5792 16.4949L51.6877 23.8576L48.1765 25.4848C45.4065 26.7559 42.1522 26.7559 39.3821 25.4848L39.3711 25.4746C36.602 24.2 33.3459 24.2 30.5767 25.4746C27.8054 26.756 24.5426 26.756 21.7713 25.4746L18.2712 23.8576H18.2602L17.8089 20.0746L17.3796 16.4949C17.3125 15.92 17.5127 15.3459 17.9305 14.9153C18.3482 14.4847 18.9441 14.2383 19.57 14.2373H50.3889C51.0147 14.2383 51.6106 14.4847 52.0284 14.9153C52.4461 15.3459 52.6463 15.92 52.5792 16.4949Z" fill="#9FC9D3"/>
<path d="M27.2747 55.9323C26.9146 55.9323 26.5771 55.7696 26.3713 55.4965C26.1655 55.2234 26.1173 54.8746 26.2423 54.5625L44.9538 7.7828C45.0317 7.58875 45.1719 7.4213 45.3555 7.3028L56.3623 0.184153C56.8598 -0.117239 57.5266 0.00123344 57.8676 0.451643C58.2087 0.902053 58.1007 1.52135 57.6237 1.84992L46.8998 8.78653L28.3072 55.2682C28.1473 55.6674 27.7354 55.9323 27.2747 55.9323Z" fill="#FF5364"/>
<path d="M26.7243 35.5933C28.2441 35.5933 29.476 34.455 29.476 33.0509C29.476 31.6468 28.2441 30.5085 26.7243 30.5085C25.2046 30.5085 23.9727 31.6468 23.9727 33.0509C23.9727 34.455 25.2046 35.5933 26.7243 35.5933Z" fill="#D25627"/>
<path d="M25.0733 41.695C25.6812 41.695 26.174 41.2397 26.174 40.6781C26.174 40.1164 25.6812 39.6611 25.0733 39.6611C24.4654 39.6611 23.9727 40.1164 23.9727 40.6781C23.9727 41.2397 24.4654 41.695 25.0733 41.695Z" fill="#D25627"/>
<path d="M26.175 46.7798C26.7828 46.7798 27.2756 46.3244 27.2756 45.7628C27.2756 45.2012 26.7828 44.7458 26.175 44.7458C25.5671 44.7458 25.0743 45.2012 25.0743 45.7628C25.0743 46.3244 25.5671 46.7798 26.175 46.7798Z" fill="#D25627"/>
<path d="M64.5106 56.3087C61.5177 58.7057 57.6848 60.0175 53.724 60.0002C49.3359 60.0021 45.1269 58.3924 42.024 55.5255C38.9211 52.6587 37.1788 48.7698 37.1808 44.7155C37.1622 41.056 38.5819 37.5146 41.1763 34.7494C41.3722 34.5265 41.661 34.3905 41.9713 34.375C42.2816 34.3595 42.5845 34.4659 42.8053 34.668L45.1167 36.8036C40.415 41.1907 40.4339 48.2634 45.159 52.629C49.884 56.9946 57.539 57.0121 62.2873 52.668L64.5987 54.8036C64.8174 55.0076 64.9326 55.2875 64.9158 55.5742C64.899 55.8609 64.7519 56.1277 64.5106 56.3087Z" fill="#F0C419"/>
<path d="M62.2873 52.6679C60.5496 54.2785 58.3164 55.3545 55.8924 55.7492C55.1746 55.88 54.4446 55.9447 53.713 55.9425H53.691C50.8638 55.9332 48.1296 55.0084 45.9643 53.3289C45.3862 52.9033 44.8619 52.4189 44.4013 51.8848C42.5836 49.8842 41.5826 47.358 41.5726 44.7458V44.7255C41.5702 44.0496 41.6402 43.3751 41.7817 42.7119C42.2089 40.4723 43.3736 38.409 45.1167 36.8035L62.2873 52.6679Z" fill="#F3D55B"/>
<path d="M55.8924 55.7492C55.1746 55.8799 54.4446 55.9446 53.713 55.9424H53.691L53.68 46.1899L45.9643 53.3289C45.3862 52.9033 44.8619 52.4189 44.4013 51.8848L52.1281 44.756L41.5726 44.7458V44.7255C41.5702 44.0496 41.6402 43.3751 41.7817 42.7119L51.5227 42.7221L55.8814 46.7492L55.8924 55.7492Z" fill="#F29C1F"/>
<path d="M15.1563 41.6849C14.5484 41.6849 14.0556 41.2296 14.0556 40.6679V38.634C14.0556 33.4476 16.8645 31.0679 18.5398 30.111C19.055 29.8349 19.7144 29.9877 20.0278 30.4556C20.3412 30.9235 20.1949 31.5369 19.6977 31.8398C18.4121 32.573 16.257 34.4299 16.257 38.632V40.6659C16.2575 40.9359 16.1418 41.1951 15.9354 41.3863C15.7289 41.5774 15.4486 41.6849 15.1563 41.6849Z" fill="#805333"/>
<path d="M44.7205 14.2373L40.1086 25.7797C39.8665 25.6882 39.6243 25.5966 39.3822 25.4848L39.3712 25.4746C38.954 25.2781 38.5195 25.1148 38.0724 24.9865L42.365 14.2373H44.7205Z" fill="#DF4D60"/>
<path d="M39.3822 25.4849C39.6243 25.5967 39.8665 25.6883 40.1086 25.7798L28.3094 55.2713C28.1482 55.67 27.7354 55.9337 27.2748 55.9323C27.1436 55.9319 27.0134 55.9113 26.8895 55.8713C26.3221 55.6708 26.0332 55.0872 26.2401 54.5595L38.0724 24.9866C38.5195 25.1149 38.9541 25.2782 39.3712 25.4747L39.3822 25.4849Z" fill="#C03A2B"/>
</g>
<defs>
<clipPath id="clip0">
<rect width="64.9399" height="60" fill="white" transform="translate(0.858521)"/>
</clipPath>
</defs>
</svg>
