<svg width="65" height="60" viewBox="0 0 65 60" fill="none" xmlns="http://www.w3.org/2000/svg">
<path d="M32.3902 57.6469C46.6302 57.6469 58.174 54.7356 58.174 51.1444C58.174 47.5531 46.6302 44.6418 32.3902 44.6418C18.1501 44.6418 6.60632 47.5531 6.60632 51.1444C6.60632 54.7356 18.1501 57.6469 32.3902 57.6469Z" fill="#EFD8C5"/>
<path d="M13.8788 13.5269C13.8788 13.5269 3.75541 14.5746 2.66227 20.6114C1.79489 25.3677 4.95549 27.5796 4.95549 27.5796C4.95549 27.5796 3.44648 32.1031 5.02678 37.192C6.60708 42.2809 15.1383 52.3423 24.3825 55.0032C33.6266 57.6641 42.2411 55.7848 47.0651 52.3423C51.8892 48.9165 57.5807 42.2809 59.3986 37.2918C61.2165 32.3193 59.6362 29.4422 59.6362 29.4422C59.6362 29.4422 62.3216 26.8977 61.8463 21.9252C61.371 16.9527 54.0993 14.1754 45.9601 13.9592C37.821 13.7431 13.8788 13.5269 13.8788 13.5269Z" fill="#CD7241"/>
<path d="M40.6719 36.4268C34.9804 35.878 30.4771 38.9712 25.4154 38.755C20.3537 38.5388 13.6404 34.4477 9.13715 31.9033C6.79641 30.5729 5.39433 29.6748 4.58636 29.1094C4.26555 30.8556 4.00415 33.9156 5.02599 37.2084C5.2874 38.0399 5.72703 38.9878 6.32113 40.0356C8.21036 40.6841 10.6818 41.7319 13.7236 43.1953C20.8409 46.6212 22.5756 46.6212 34.8259 46.2886C47.0762 45.956 52.4469 41.6487 54.4193 40.9835C55.1916 40.7174 56.3679 40.8505 57.4967 41.0999C58.3047 39.7861 58.9582 38.5056 59.3978 37.3248C60.0989 35.3957 60.3009 33.7825 60.2652 32.5186C59.3622 33.267 58.2572 34.1817 56.7838 34.9965C53.3974 36.8592 46.3633 36.9756 40.6719 36.4268Z" fill="#AF5939"/>
<path d="M24.3936 55.0028C33.6378 57.6637 42.2522 55.7845 47.0762 52.3419C48.7754 51.1279 50.5933 49.5147 52.3043 47.7186C51.4726 47.5856 50.5695 47.4858 49.6784 47.4858C46.9099 47.4858 37.9865 51.9095 32.8417 51.6933C27.7087 51.4771 21.3043 49.4815 18.0605 48.0513C15.7554 47.0202 12.3096 46.1055 10.5273 45.6731C14.187 49.6478 19.1774 53.5061 24.3936 55.0028Z" fill="#AF5939"/>
<path d="M61.6435 25.4839C58.8512 29.3421 45.6622 32.1859 33.6496 32.1859C18.6545 32.2026 3.20799 27.1303 2.50696 22.2742C2.53072 25.883 4.95464 27.5793 4.95464 27.5793C4.95464 27.5793 4.95464 27.5793 4.94276 27.5959C10.2421 31.9032 21.1022 34.8634 33.6496 34.8634C44.3671 34.8634 53.8608 32.7015 59.7067 29.392C59.9919 29.076 61.1207 27.7622 61.6435 25.4839Z" fill="#AF5939"/>
<path d="M56.761 37.3418C56.6894 37.3917 56.6178 37.4416 56.5581 37.4748C56.6297 37.4416 56.7013 37.4083 56.761 37.3418C56.7729 37.3418 56.7848 37.3584 56.761 37.3418Z" fill="#D4A176"/>
<path d="M26.461 42.447C23.4668 42.264 20.4844 41.8982 17.502 41.4325C17.3476 41.4159 17.3119 41.7984 17.4664 41.815C22.8014 42.8461 28.2077 43.1953 33.5902 43.0623C38.6994 42.9292 43.8919 42.3139 48.9061 40.8671C49.2863 40.7506 49.6546 40.6342 50.0348 40.5178C47.4327 41.3161 44.7711 41.7485 42.169 42.0312C36.9528 42.6133 31.6891 42.7796 26.461 42.447Z" fill="#D4A176"/>
<path d="M50.0229 40.5184C52.2805 39.82 54.4906 38.872 56.558 37.4917C54.4312 38.739 52.2686 39.7534 50.0229 40.5184Z" fill="#D4A176"/>
<path d="M50.6052 39.0546C41.5273 41.3662 32.3188 42.3474 23.1103 41.3995C20.5319 41.1334 17.9654 40.5513 15.387 40.2686C15.2326 40.252 15.1969 40.6012 15.3514 40.6511C17.5495 41.3496 19.8428 41.5991 22.0885 41.8652C24.4054 42.1479 26.7224 42.3142 29.0513 42.3641C33.6971 42.4639 38.3549 42.1146 42.9651 41.3163C45.5553 40.8673 48.1218 40.2187 50.6646 39.4038C50.8309 39.3539 50.7596 39.0213 50.6052 39.0546Z" fill="#D4A176"/>
<path d="M27.0789 48.1679C25.261 47.9351 23.4549 47.7521 21.6608 47.3197C21.4706 47.2698 21.3875 47.669 21.5776 47.7355C23.3836 48.2344 25.2253 48.567 27.0789 48.4506C27.1977 48.434 27.1977 48.1845 27.0789 48.1679Z" fill="#D4A176"/>
<path d="M46.9456 49.266C44.5454 50.0143 42.1572 50.796 39.7095 51.245C39.5431 51.2783 39.5431 51.6275 39.7095 51.6109C42.169 51.3281 44.688 50.8126 47.0287 49.7316C47.2545 49.6318 47.1594 49.1994 46.9456 49.266Z" fill="#D4A176"/>
<path d="M10.6818 34.6309C9.19659 34.1153 7.74699 33.5166 6.36868 32.5687C6.19045 32.4357 6.02411 32.8182 6.20234 32.9512C7.56876 33.9657 9.04213 34.7972 10.5749 35.1132C10.8125 35.163 10.9195 34.714 10.6818 34.6309Z" fill="#D4A176"/>
<path d="M18.619 38.456C16.6466 38.0402 14.6742 37.8074 12.6899 37.5579C10.8363 37.3417 8.93524 37.1754 7.33117 35.7452C7.12918 35.5623 6.95095 36.0113 7.15294 36.1776C8.65007 37.5579 10.4442 37.9737 12.2028 38.0236C14.3534 38.0901 16.4684 38.1234 18.619 38.4892C18.6309 38.5225 18.6428 38.4726 18.619 38.456Z" fill="#D4A176"/>
<path d="M58.9584 31.1717C56.784 32.685 54.6809 34.1153 52.2451 34.6474C52.0787 34.6807 52.1144 35.0798 52.2807 35.0632C54.6452 34.6308 57.1642 33.5166 58.9702 31.2216C58.994 31.1883 58.9702 31.155 58.9584 31.1717Z" fill="#D4A176"/>
<path d="M53.4214 43.3617C51.6985 44.3429 49.928 45.1745 48.1339 45.8563C47.9437 45.9395 48.0269 46.3386 48.217 46.2721C50.0587 45.7066 51.8292 44.8751 53.5639 43.844C53.7659 43.7276 53.6234 43.2453 53.4214 43.3617Z" fill="#D4A176"/>
<path d="M6.21425 20.1623C5.98849 22.3742 9.22039 25.5838 10.563 25.9164C11.9057 26.2491 15.9337 25.8 20.0448 27.2469C24.156 28.6771 29.2058 30.573 32.4496 30.573C35.6934 30.573 50.629 29.359 53.2311 28.0285C55.8333 26.6981 57.1878 26.2657 58.2929 24.27C59.3979 22.2744 58.5305 19.5137 56.867 18.2997C55.2036 17.0857 53.7896 17.0857 52.9103 16.304C52.043 15.5224 42.3235 14.9736 40.8977 14.9736C39.4718 14.9736 17.9061 14.8572 17.9061 14.8572C17.9061 14.8572 6.68953 15.406 6.21425 20.1623Z" fill="#8F482D"/>
<path d="M61.0257 27.3462C55.9164 28.9926 40.2917 33.882 31.7367 34.4308C34.9329 37.0917 54.6094 32.6014 55.4412 35.5949C56.2729 38.5884 52.839 42.0642 48.5615 43.7272C44.5454 45.2905 41.6819 50.9615 36.133 53.007C36.0973 52.874 36.0023 52.7742 35.8716 52.7742C35.6815 52.7742 35.5864 52.9904 35.5864 53.19C35.4082 53.2398 35.2299 53.3064 35.0398 53.3563C28.7543 55.0193 21.4112 47.8848 14.0563 44.5587C11.2522 43.2948 9.3748 42.8458 8.1272 42.7793C11.7631 47.652 17.8823 53.1567 24.358 55.0027C33.6021 57.6636 42.2165 55.7843 47.0406 52.3418C51.8647 48.9159 57.5562 42.2804 59.3741 37.2912C61.192 32.3187 59.6117 29.4416 59.6117 29.4416C59.6117 29.4416 60.3841 28.7432 61.0257 27.3462Z" fill="#DBC5B4"/>
<path d="M59.8018 18.1169C56.9977 15.5558 51.6983 14.1256 45.9593 13.9759C37.8202 13.7597 13.878 13.5269 13.878 13.5269C13.878 13.5269 7.53308 14.1921 4.33683 17.4516C3.54074 18.5825 3.05358 20.0127 3.33875 21.7589C3.83779 24.8356 5.96466 26.2491 7.92518 27.064C12.3096 28.8768 16.7891 30.7394 21.3637 31.3381C23.6688 31.6374 25.9858 31.8037 28.3027 32.0199C30.6316 32.2361 32.9605 32.419 35.2893 32.4024C39.9352 32.4024 44.5691 31.6374 49.1318 30.4733C51.3775 29.9078 53.5875 29.1927 55.8095 28.5109C57.5205 27.9787 59.4097 27.2802 60.4078 25.1016C61.4296 22.8732 60.9544 20.0294 59.8018 18.1169ZM56.059 25.3178C54.1579 26.0662 52.2092 26.5984 50.2725 27.1306C46.2445 28.2448 42.169 29.0431 38.0697 29.2925C34.3982 29.5253 30.7267 29.2593 27.067 28.8601C27.0432 28.8601 27.0195 28.8601 27.0076 28.8601C26.2828 28.8934 25.5699 28.7936 24.857 28.594C24.5837 28.5608 24.3104 28.5109 24.0371 28.4776C24.0134 28.4111 23.9777 28.3612 23.9421 28.2947C23.7401 28.2282 23.55 28.145 23.3598 28.0785C22.136 27.6128 20.9359 27.1804 19.6764 26.9144C18.5833 26.6815 17.4902 26.4653 16.397 26.1826C15.5772 25.9664 14.7811 25.6338 13.9731 25.4176C12.975 25.1349 11.9532 25.0019 10.9551 24.7358C9.93323 24.4697 8.79257 24.1371 7.93707 23.2889C6.61817 21.9751 6.91522 20.0626 6.98651 19.73C7.16474 18.8819 7.64002 18.2166 8.17471 17.7676C9.44607 16.6866 11.0145 16.5702 12.4641 16.4538C16.6109 16.1545 20.7696 16.0879 24.9283 16.1545C29.1226 16.221 33.3288 16.4039 37.5231 16.6367C41.6343 16.8529 45.7692 17.0026 49.8685 17.5348C51.7934 17.7842 53.7895 18.0337 55.655 18.7654C56.9026 19.2477 58.3403 20.2622 58.4948 22.2578C58.6136 24.1537 57.1165 24.9021 56.059 25.3178Z" fill="#F9CA97"/>
<path d="M13.1176 14.6245C13.1294 14.4083 13.1176 14.1921 13.0938 13.9926C12.8324 11.9803 11.2877 11.9137 10.2065 12.6954C9.1371 13.477 8.17467 15.2398 8.19843 17.0027C8.23407 18.9983 9.64803 19.8298 10.8838 19.4806C11.3471 19.3476 11.8105 19.0648 12.2145 18.6491C12.4522 18.6823 12.6898 18.6158 12.9156 18.4163C13.2958 18.1003 13.3552 17.4517 13.1889 16.9694C13.272 16.6867 13.3196 16.404 13.3314 16.1046C13.3552 15.5724 13.272 15.0569 13.1176 14.6245Z" fill="#B04729"/>
<path d="M47.3494 10.6166C46.9692 8.42136 45.1988 6.52549 43.1313 6.44234C42.252 6.40908 41.444 6.6918 40.7668 7.17408C40.1133 7.39028 39.5073 7.77278 39.0914 8.3881C37.9626 10.0179 39.0082 11.7142 40.6361 12.0468C40.8856 12.0967 41.147 12.1299 41.3965 12.1299C42.4065 12.5956 43.4877 12.4958 44.4977 11.9304C44.5928 11.8805 44.6759 11.814 44.7472 11.7474C44.8542 11.8639 44.9611 11.9636 45.0562 12.0801C46.0899 13.1777 47.5989 12.0634 47.3494 10.6166Z" fill="#B04729"/>
<path d="M55.6194 24.3363C55.358 25.0181 54.9658 25.0514 54.6094 25.1179C54.1222 25.2177 53.647 25.3009 53.1241 25.6667C52.6489 25.9993 52.1855 26.465 51.7221 26.8974C51.0923 27.4795 50.4626 27.8786 49.8091 28.0948C48.5377 28.5272 47.2545 28.4606 45.9712 28.5272C44.5335 28.6103 43.072 28.6602 41.5749 28.6103C40.0659 28.5604 38.545 28.6103 36.9172 28.9263C35.2774 29.2423 33.6615 29.209 31.9861 28.9762C28.5047 28.5105 24.7976 27.995 20.9834 26.914C18.8447 26.3153 16.6822 25.5004 14.4365 24.619C13.3433 24.1866 12.2859 24.0037 11.0858 24.0536C9.93322 24.1035 7.85388 24.0868 7.96082 21.7752C7.99647 21.0767 7.23602 21.0934 7.17661 21.7752C6.92709 24.8352 9.37477 25.5004 11.0264 25.5337C13.4622 25.5836 15.4821 27.0471 17.609 27.8453C21.7082 29.4086 25.7362 29.9907 29.5147 30.4896C31.4396 30.739 33.305 31.0716 35.1705 30.9053C36.9172 30.7557 38.6282 30.2235 40.2797 30.2567C41.8838 30.29 43.4522 30.29 44.985 30.2068C46.4108 30.1237 47.8129 30.1403 49.2031 29.7745C49.9279 29.5915 50.6408 29.2755 51.3537 28.7101C51.9954 28.1946 52.6132 27.4628 53.243 27.0471C54.1935 26.4151 55.4174 27.0138 56.154 25.0514C56.5343 24.2033 55.9639 23.4216 55.6194 24.3363Z" fill="#EAC271"/>
<path d="M32.3308 50.1133C31.7961 50.1133 31.7961 51.2608 32.3308 51.2608C32.8655 51.2608 32.8655 50.1133 32.3308 50.1133Z" fill="#DBC5B4"/>
<path d="M37.3092 47.9514C36.7745 47.9514 36.7745 49.099 37.3092 49.099C37.8439 49.1156 37.8439 47.9514 37.3092 47.9514Z" fill="#DBC5B4"/>
<path d="M34.5886 46.8704C34.2794 46.8704 34.2794 47.5356 34.5886 47.5356C34.8859 47.5356 34.8859 46.8704 34.5886 46.8704Z" fill="#DBC5B4"/>
<path d="M29.4912 48.3672C29.182 48.3672 29.182 49.0324 29.4912 49.0324C29.7885 49.0324 29.7885 48.3672 29.4912 48.3672Z" fill="#DBC5B4"/>
<path d="M25.6889 47.2031C25.3797 47.2031 25.3797 47.8683 25.6889 47.8683C25.9981 47.8683 25.9981 47.2031 25.6889 47.2031Z" fill="#DBC5B4"/>
<path d="M29.6098 40.7341C29.3006 40.7341 29.3006 41.3993 29.6098 41.3993C29.9071 41.3993 29.9071 40.7341 29.6098 40.7341Z" fill="#DBC5B4"/>
<path d="M49.9993 39.8193C49.6187 39.8193 49.6187 40.6509 49.9993 40.6509C50.368 40.6509 50.3799 39.8193 49.9993 39.8193Z" fill="#C1987C"/>
<path d="M47.9794 44.6426C47.5988 44.6426 47.5988 45.4741 47.9794 45.4741C48.36 45.4574 48.36 44.6426 47.9794 44.6426Z" fill="#C1987C"/>
<path d="M48.6924 46.6711C48.5019 46.6711 48.5019 47.0703 48.6924 47.0703C48.871 47.0703 48.871 46.6711 48.6924 46.6711Z" fill="#C1987C"/>
<path d="M41.3374 50.2795C40.9569 50.2795 40.9569 51.1111 41.3374 51.1111C41.7179 51.0944 41.7179 50.2795 41.3374 50.2795Z" fill="#C1987C"/>
<path d="M44.308 37.8403C43.9274 37.8403 43.9274 38.6719 44.308 38.6719C44.6886 38.6552 44.6886 37.8403 44.308 37.8403Z" fill="#C1987C"/>
<path d="M22.1362 43.1453C21.7557 43.1453 21.7557 43.9768 22.1362 43.9768C22.5168 43.9602 22.5168 43.1453 22.1362 43.1453Z" fill="#C1987C"/>
<path d="M16.2072 43.9773C15.8266 43.9773 15.8266 44.8088 16.2072 44.8088C16.5877 44.7922 16.5877 43.9773 16.2072 43.9773Z" fill="#C1987C"/>
<path d="M12.7732 41.1497C12.3927 41.1497 12.3927 41.9812 12.7732 41.9812C13.1537 41.9812 13.1537 41.1497 12.7732 41.1497Z" fill="#C1987C"/>
<path d="M10.4087 39.1541C10.0282 39.1541 10.0282 39.9856 10.4087 39.9856C10.7774 39.9856 10.7774 39.1541 10.4087 39.1541Z" fill="#C1987C"/>
<path d="M17.8706 49.1155C17.4901 49.1155 17.4901 49.947 17.8706 49.947C18.2512 49.947 18.2512 49.1155 17.8706 49.1155Z" fill="#C1987C"/>
<path d="M56.3914 35.3787C56.3445 35.3787 56.3445 35.4771 56.3914 35.4771C56.4384 35.4771 56.4384 35.3787 56.3914 35.3787Z" fill="#C1987C"/>
<path d="M36.0025 36.5098C35.6219 36.5098 35.6219 37.3413 36.0025 37.3413C36.383 37.3247 36.383 36.5098 36.0025 36.5098Z" fill="#C1987C"/>
<path d="M23.7997 37.0085C23.4191 37.0085 23.4191 37.8401 23.7997 37.8401C24.1802 37.8234 24.1802 37.0085 23.7997 37.0085Z" fill="#C1987C"/>
<path d="M21.3044 35.5122C20.9239 35.5122 20.9239 36.3437 21.3044 36.3437C21.685 36.3271 21.685 35.5122 21.3044 35.5122Z" fill="#C1987C"/>
<path d="M29.4913 37.0085C29.1108 37.0085 29.1108 37.8401 29.4913 37.8401C29.8719 37.8234 29.8719 37.0085 29.4913 37.0085Z" fill="#C1987C"/>
<path d="M7.67591 31.687C7.29537 31.687 7.29537 32.5185 7.67591 32.5185C8.05646 32.5185 8.05646 31.687 7.67591 31.687Z" fill="#C1987C"/>
<path d="M5.89405 36.177C5.51351 36.177 5.51351 37.0085 5.89405 37.0085C6.2746 36.9919 6.2746 36.177 5.89405 36.177Z" fill="#C1987C"/>
<path d="M15.1497 34.8467C14.7691 34.8467 14.7691 35.6782 15.1497 35.6782C15.5183 35.6782 15.5302 34.8467 15.1497 34.8467Z" fill="#C1987C"/>
<path d="M23.7167 44.326C23.7048 44.2927 23.6929 44.2594 23.6692 44.2262C23.6573 44.2096 23.6454 44.2096 23.6335 44.1929C23.6097 44.1763 23.5859 44.1597 23.5502 44.1597C23.5146 44.1597 23.467 44.1763 23.4313 44.1763C23.4075 44.1763 23.3956 44.1763 23.3719 44.1929C23.3481 44.2096 23.3362 44.2096 23.3243 44.2428C23.3124 44.2595 23.3005 44.2927 23.2886 44.3093C23.2767 44.3426 23.2767 44.3592 23.2767 44.3925C23.2767 44.4091 23.2767 44.4258 23.2767 44.4424C23.2886 44.4756 23.3005 44.5089 23.3124 44.5422C23.3243 44.5588 23.3362 44.5588 23.3481 44.5754C23.3719 44.5921 23.3956 44.6087 23.4313 44.6087C23.467 44.6087 23.5146 44.6253 23.5502 44.6253C23.574 44.6253 23.5978 44.6253 23.6097 44.6087C23.6335 44.5921 23.6454 44.5754 23.6573 44.5588C23.6692 44.5422 23.681 44.5089 23.6929 44.4923C23.7048 44.459 23.7048 44.4424 23.7048 44.4091C23.7286 44.3592 23.7167 44.3426 23.7167 44.326Z" fill="#DBC5B4"/>
<path d="M40.1612 46.9536C39.7807 46.9536 39.7807 47.7851 40.1612 47.7851C40.5299 47.7851 40.5418 46.9536 40.1612 46.9536Z" fill="#DBC5B4"/>
<path d="M48.2172 35.8445C47.8366 35.8445 47.8366 36.676 48.2172 36.676C48.5977 36.6594 48.5977 35.8445 48.2172 35.8445Z" fill="#DBC5B4"/>
<path d="M14.7932 43.8108C14.4127 43.8108 14.4127 44.6424 14.7932 44.6424C15.1738 44.6257 15.1738 43.8108 14.7932 43.8108Z" fill="#DBC5B4"/>
<path d="M5.43019 23.7375C5.04964 23.7375 5.04964 24.5691 5.43019 24.5691C5.79884 24.5524 5.79884 23.7375 5.43019 23.7375Z" fill="#EAAA6A"/>
<path d="M5.53761 20.5779C5.15706 20.5779 5.15706 21.4094 5.53761 21.4094C5.91815 21.4094 5.91815 20.5779 5.53761 20.5779Z" fill="#EAAA6A"/>
<path d="M7.43824 25.2183C7.05769 25.2183 7.05769 26.0498 7.43824 26.0498C7.81879 26.0498 7.81879 25.2183 7.43824 25.2183Z" fill="#EAAA6A"/>
<path d="M17.3954 28.7104C17.0148 28.7104 17.0148 29.542 17.3954 29.542C17.7759 29.5253 17.7759 28.7104 17.3954 28.7104Z" fill="#EAAA6A"/>
<path d="M46.0788 29.8076C45.9475 29.8076 45.9475 30.0903 46.0788 30.0903C46.21 30.0903 46.21 29.8076 46.0788 29.8076Z" fill="#EAAA6A"/>
<path d="M53.3146 27.7126C52.934 27.7126 52.934 28.5442 53.3146 28.5442C53.6951 28.5442 53.6951 27.7126 53.3146 27.7126Z" fill="#EAAA6A"/>
<path d="M55.2157 27.3801C54.8352 27.3801 54.8352 28.2117 55.2157 28.2117C55.5844 28.2117 55.5963 27.3801 55.2157 27.3801Z" fill="#EAAA6A"/>
<path d="M58.5306 24.8853C58.1501 24.8853 58.1501 25.7168 58.5306 25.7168C58.9112 25.7168 58.9112 24.8853 58.5306 24.8853Z" fill="#EAAA6A"/>
<path d="M59.719 21.9084C59.3385 21.9084 59.3385 22.74 59.719 22.74C60.0996 22.7233 60.0996 21.9084 59.719 21.9084Z" fill="#EAAA6A"/>
<path d="M42.5255 30.7063C42.145 30.7063 42.145 31.5378 42.5255 31.5378C42.9061 31.5212 42.9061 30.7063 42.5255 30.7063Z" fill="#EAAA6A"/>
<path d="M37.3095 31.188C36.9289 31.188 36.9289 32.0195 37.3095 32.0195C37.69 32.0195 37.69 31.188 37.3095 31.188Z" fill="#EAAA6A"/>
<path d="M31.4993 31.188C31.1187 31.188 31.1187 32.0195 31.4993 32.0195C31.8798 32.0195 31.8798 31.188 31.4993 31.188Z" fill="#EAAA6A"/>
<path d="M28.1842 30.7063C27.8037 30.7063 27.8037 31.5378 28.1842 31.5378C28.5648 31.5212 28.5648 30.7063 28.1842 30.7063Z" fill="#EAAA6A"/>
<path d="M48.9893 14.9404C48.5496 14.2252 47.9793 13.5933 47.3971 13.2108C46.9812 12.9281 46.5416 12.7285 46.0901 12.6287C45.5673 12.4957 45.0444 12.6287 44.5216 12.6786C43.5592 12.7618 42.5136 13.1276 41.8363 14.1754C41.563 14.6077 41.3492 15.1233 41.3016 15.7054C41.2779 16.0047 41.3135 16.2542 41.361 16.5369C41.4323 17.0192 41.4917 17.1522 41.2303 17.4848C40.5887 18.2831 40.4224 20.0958 40.9214 21.077C41.4561 22.1414 42.4423 22.2079 43.2622 21.975C43.8681 21.7921 44.4028 21.6923 45.0326 21.7589C45.6385 21.8254 46.2445 21.9252 46.8624 21.975C47.8724 22.0416 49.0962 22.0249 49.8566 20.9606C51.1874 19.098 50.427 16.1544 48.9893 14.9404Z" fill="#782000"/>
<path d="M27.1027 14.5416C26.9601 13.4107 26.5442 12.4627 25.9977 11.6146C24.7738 9.68546 22.4925 9.16992 20.9835 10.7332C20.9003 10.8163 20.8528 10.9327 20.8409 11.0325C19.5576 11.6811 18.6546 13.4772 18.8804 15.4562C19.1655 17.9674 21.1142 18.2668 22.5756 18.6825C23.4668 18.932 24.5481 19.5141 25.463 19.1981C26.1521 18.9653 26.6868 18.3333 26.9601 17.4352C27.2096 16.6037 27.2215 15.4396 27.1027 14.5416Z" fill="#782000"/>
<path d="M37.6893 4.92816C37.024 3.88044 36.0972 3.13207 35.1466 2.71631C34.0653 2.23403 32.8296 2.33381 31.7127 2.3837C30.7265 2.43359 29.7403 2.68305 28.968 3.61436C28.2669 4.46251 27.8867 5.79295 28.1481 7.07349C28.766 10.1169 30.6077 12.0294 32.6633 12.9607C34.6238 13.8421 37.8319 13.6093 38.3666 10.067C38.3785 9.98382 38.3785 9.9173 38.3785 9.85078C38.9013 8.33741 38.5211 6.22534 37.6893 4.92816Z" fill="#782000"/>
<path d="M42.276 12.5456C40.2799 12.2463 39.3531 15.0901 37.749 16.0879C36.941 16.5868 36.0618 16.803 35.3013 17.4683C34.9448 17.7842 34.6478 18.1168 34.2319 18.2831C33.8755 18.4328 33.4952 18.5326 33.1744 18.7821C32.4734 19.3142 32.1645 20.3952 32.4259 21.4596C32.7348 22.7068 33.6497 23.2224 34.5052 23.4718C35.5508 23.7712 36.6202 23.8211 37.6896 23.7213C38.2124 23.6714 38.7233 23.5883 39.2461 23.5051C39.6739 23.4386 40.161 23.4386 40.5531 23.1392C40.9928 22.8066 41.2423 22.1913 41.1948 21.4762C41.1354 20.7278 40.7076 20.2788 40.7908 19.4972C40.874 18.7821 41.1472 18.1501 41.3611 17.5015C41.5988 16.7864 41.7651 16.1046 41.8364 15.3063C41.872 14.8905 41.6463 14.4914 41.3611 14.3251C41.6344 14.0923 41.9433 13.926 42.2998 13.9093C42.9058 13.8428 42.882 12.6288 42.276 12.5456Z" fill="#BF4F1F"/>
<path d="M27.6967 17.8336C27.067 14.308 24.2866 12.3123 21.8033 11.2313C21.7558 11.0318 21.6488 10.8488 21.4706 10.7657C19.9378 10.0339 18.1199 9.05275 16.4802 9.3521C15.0425 9.61819 14.0681 11.1815 14.0087 13.1937C13.8661 17.9002 17.9892 19.7628 20.5795 20.7606C21.3637 21.06 22.1597 21.3094 22.9677 21.4923C23.7757 21.6753 24.6312 21.9081 25.4629 21.8416C27.0789 21.6919 28.1245 20.1619 27.6967 17.8336Z" fill="#BF4F1F"/>
<path d="M28.0531 14.6411C26.5203 12.712 23.9776 11.4813 21.922 11.8638C20.8407 12.0634 20.0209 12.8949 19.3317 14.0424C19.2485 13.9925 19.1535 13.9759 19.0465 14.0757C18.3574 14.6411 18.0247 15.7055 18.1079 16.8031C18.191 18.0503 18.9158 18.7655 19.6763 19.2311C20.1753 19.5305 20.6863 19.7799 21.1972 20.046C21.7913 20.362 22.4091 20.7777 23.0508 20.7944C23.633 20.811 24.1677 20.4618 24.738 20.3786C25.3321 20.2955 25.9262 20.4285 26.5084 20.362C27.4114 20.2456 28.3501 19.6801 28.7897 18.516C29.3007 17.1357 28.8135 15.589 28.0531 14.6411Z" fill="#A53B1B"/>
<path d="M37.5825 12.5126C37.8558 11.8806 37.9508 11.1822 37.3686 10.6832C36.6201 10.0346 35.515 10.8662 34.7427 11.0657C33.7327 11.3318 32.7822 10.65 31.8792 10.0845C30.9286 9.48584 30.0018 8.85388 29.0869 8.18867C28.5879 7.82279 27.9225 8.25519 27.9344 9.11997C27.9462 9.91824 28.1839 10.6333 28.5879 11.1822C28.9919 11.731 29.5384 12.0303 29.9068 12.5957C30.3226 13.2277 30.5484 14.0592 30.9643 14.6912C31.3445 15.2566 31.8554 15.6724 32.3901 15.8886C33.103 16.1713 34.2556 16.138 34.8734 15.3564C36.0497 15.1236 37.0478 14.0925 37.5825 12.5126Z" fill="#A53B1B"/>
<path d="M45.8762 12.4795C44.5217 11.6147 43.0721 11.6646 41.765 12.729C41.1234 13.2445 40.5887 13.9763 40.2085 14.8577C40.0303 15.2568 39.9709 15.7724 39.7689 16.1549C39.5312 16.6205 39.0559 16.7369 38.6995 16.9864C37.5588 17.8179 35.6339 20.3125 36.8578 22.2416C37.4994 23.2561 38.652 23.0066 39.5193 23.0399C40.4105 23.0565 41.4323 23.2893 42.2166 22.541C42.8344 21.9589 42.4304 20.7781 41.7294 20.9278C41.563 20.9611 41.3611 20.9777 41.1591 20.9611C41.1234 20.4455 41.1115 19.93 41.1828 19.4311C41.3016 18.6494 41.7413 18.0674 41.8482 17.2857C41.8957 16.9365 41.8839 16.6039 41.8482 16.2546C41.8126 15.8222 41.8363 15.7557 42.0977 15.5562C42.6681 15.0905 43.2622 14.6747 43.8325 14.2257C44.0939 14.0095 44.189 13.6935 44.1771 13.3776C44.6405 13.2944 45.1158 13.3443 45.5554 13.5272C45.995 13.7102 46.304 12.7622 45.8762 12.4795Z" fill="#A53B1B"/>
<path d="M46.1017 14.4417C46.0898 14.4251 46.0661 14.4084 46.0423 14.3752C45.3769 13.7931 44.5927 14.292 44.3075 15.2566C44.2244 15.5393 44.3669 15.9218 44.5452 16.0549C44.8779 16.3209 45.2224 16.5205 45.567 16.7533C45.876 16.9529 46.1968 17.2356 46.5295 17.3687C47.076 17.6015 47.6107 17.1358 47.7652 16.3708C48.0266 14.9074 46.9929 14.2588 46.1017 14.4417Z" fill="#AA4E15"/>
<path d="M43.7612 18.3498C43.7255 18.2999 43.678 18.25 43.6305 18.2001C43.5473 18.1169 43.4522 18.1003 43.3453 18.0837C43.2502 18.067 43.1077 18.1502 43.0482 18.25C42.9888 18.3498 42.9413 18.4495 42.9294 18.5826C42.9175 18.7323 42.9413 18.8819 43.0126 19.015C43.0126 19.1148 43.0364 19.2312 43.072 19.2977C43.1314 19.4141 43.1908 19.4973 43.2859 19.5638C43.4998 19.6802 43.7374 19.5804 43.8562 19.2977C43.9156 19.1647 43.9394 19.015 43.9394 18.8653C43.9513 18.6824 43.88 18.4828 43.7612 18.3498Z" fill="#AA4E15"/>
<path d="M45.603 18.4993C44.8425 18.4993 44.8425 20.1457 45.603 20.1457C46.3634 20.1623 46.3634 18.4993 45.603 18.4993Z" fill="#AA4E15"/>
<path d="M49.2386 17.5346C49.2149 17.4847 49.1911 17.4348 49.1673 17.3849C49.001 17.0689 48.6802 16.9525 48.4663 17.2519C48.3237 17.4514 48.1811 17.651 48.0385 17.8506C47.8841 18.0668 47.8841 18.3661 47.9672 18.6322C48.2762 19.63 49.4406 19.3639 49.607 18.3495C49.6545 17.9836 49.5 17.6344 49.2386 17.5346Z" fill="#AA4E15"/>
<path d="M43.2264 15.6892C43.1313 15.5728 43.0125 15.473 42.8818 15.4896C42.763 15.4896 42.6204 15.5561 42.5373 15.6892C42.4422 15.8555 42.3353 16.0052 42.2521 16.1881C42.157 16.4209 42.1808 16.7702 42.3234 16.9531C42.466 17.136 42.6917 17.2026 42.8699 17.0529C43.0006 16.9365 43.1076 16.7868 43.2264 16.6537C43.3215 16.554 43.369 16.3378 43.369 16.1715C43.369 16.0052 43.3215 15.8056 43.2264 15.6892Z" fill="#AA4E15"/>
<path d="M32.1407 4.04748C31.4159 3.68161 30.5723 4.33019 30.3584 5.34465C30.2871 5.66063 30.299 5.94335 30.3584 6.19281C30.3346 6.2427 30.3109 6.29259 30.2871 6.32585C30.1445 6.59194 30.2515 7.07422 30.4534 7.20726C30.7861 7.42346 31.1307 7.45672 31.4634 7.29042C31.9981 7.5565 32.6278 7.19063 32.8892 6.47552C33.2219 5.56085 32.8179 4.38009 32.1407 4.04748ZM31.8317 5.69389C31.8674 5.72715 31.8793 5.76041 31.8793 5.77704C31.8199 5.74378 31.7604 5.69389 31.701 5.644C31.7367 5.62737 31.7842 5.644 31.8317 5.69389Z" fill="#AA4E15"/>
<path d="M36.7152 7.00765C36.5964 6.85797 36.4538 6.75819 36.2994 6.75819C36.2518 6.75819 36.2043 6.77482 36.1568 6.79145C36.0736 6.72493 35.9904 6.69167 35.8835 6.67504C35.634 6.64178 35.3844 6.87461 35.2775 7.19058C35.1587 7.52319 35.1587 7.93895 35.3013 8.25493C35.4676 8.65406 35.8241 8.82037 36.133 8.72059C36.1449 8.72059 36.1449 8.72059 36.1568 8.72059C36.3588 8.72059 36.5251 8.58754 36.6558 8.40461C36.7509 8.25493 36.8578 8.00548 36.8697 7.80591H36.8578C36.9172 7.52319 36.8697 7.20721 36.7152 7.00765Z" fill="#AA4E15"/>
<path d="M34.0181 9.60201C33.5904 8.97005 32.8775 9.08647 32.4854 9.6519C32.4141 9.70179 32.3547 9.76831 32.2952 9.83484C32.1051 10.051 32.117 10.4502 32.2121 10.7329C32.2121 10.7495 32.224 10.7661 32.2358 10.7828C32.2834 10.999 32.3784 11.1819 32.521 11.2983C32.7705 11.5145 33.0913 11.5977 33.3646 11.4314C33.3765 11.4314 33.3765 11.4147 33.3884 11.4147C33.7567 11.2817 34.03 10.9491 34.1726 10.4169C34.2558 10.1674 34.1607 9.81821 34.0181 9.60201Z" fill="#AA4E15"/>
<path d="M34.113 4.56299C33.3525 4.56299 33.3525 6.20941 34.113 6.20941C34.8734 6.22604 34.8734 4.56299 34.113 4.56299Z" fill="#AA4E15"/>
<path d="M36.4774 9.88501C35.717 9.88501 35.717 11.5314 36.4774 11.5314C37.2379 11.5314 37.2379 9.88501 36.4774 9.88501Z" fill="#AA4E15"/>
<path d="M23.9182 12.8951C23.7757 12.2631 23.3123 11.8806 22.8607 11.8972C22.3498 11.9305 21.7201 12.5625 21.7676 13.3441C21.7676 13.4273 21.7795 13.4938 21.8032 13.5603C21.7201 13.8098 21.6725 14.0758 21.6844 14.3586C21.6963 14.7577 21.9221 15.1236 22.2191 15.1069C22.9796 15.1069 24.2153 14.2255 23.9182 12.8951Z" fill="#AA4E15"/>
<path d="M20.7102 15.3563C20.7102 15.3396 20.6983 15.3064 20.6983 15.2897C20.6626 15.1068 20.5438 14.9073 20.4012 14.874C20.3418 14.8574 20.2943 14.8241 20.2468 14.8075C20.1517 14.7576 20.021 14.7908 19.9378 14.8574C19.8665 14.9239 19.8071 15.007 19.7715 15.1234C19.7358 15.2399 19.724 15.3729 19.7477 15.4893C19.7834 15.639 19.8428 15.7388 19.9378 15.8219C19.9616 15.8552 19.9854 15.8718 20.021 15.9051C20.1279 16.0215 20.2824 16.088 20.4131 16.0215C20.425 16.0049 20.4488 16.0048 20.4606 15.9882C20.5557 15.9383 20.6389 15.8718 20.6864 15.7388C20.7102 15.639 20.7339 15.5059 20.7102 15.3563Z" fill="#AA4E15"/>
<path d="M23.5619 16.1877C22.8015 16.1877 22.8015 17.8342 23.5619 17.8342C24.3224 17.8342 24.3224 16.1877 23.5619 16.1877Z" fill="#AA4E15"/>
<path d="M26.2589 14.6246C26.1757 14.2754 26.0094 13.9427 25.7836 13.7432C25.4866 13.4937 25.0232 13.5104 24.7855 13.8929C24.5836 14.2088 24.5123 14.7909 24.7855 15.1069C24.845 15.1734 24.8806 15.2067 24.9162 15.2566C24.8925 15.5226 24.9281 15.7887 25.0351 16.0548C25.1895 16.4706 25.546 16.5038 25.8193 16.3375C26.2708 16.0548 26.4015 15.2399 26.2589 14.6246Z" fill="#AA4E15"/>
<path d="M36.0497 20.7947C35.9427 20.6616 35.8001 20.5785 35.6457 20.645C35.5387 20.6949 35.4556 20.778 35.3962 20.9111C35.3368 21.0441 35.3249 21.2104 35.3486 21.3601C35.3724 21.4599 35.4199 21.5763 35.4793 21.6428C35.4675 21.726 35.4793 21.8091 35.515 21.8923C35.5863 22.042 35.717 22.1251 35.8477 22.0752C36.2516 21.9422 36.3586 21.1439 36.0497 20.7947Z" fill="#782000"/>
<path d="M37.5354 20.5784C37.4641 20.3955 37.2381 20.5119 37.2857 20.7281C37.3095 20.8113 37.3095 20.911 37.2738 20.9942C37.25 21.0441 37.2262 21.0607 37.2024 21.1106C37.1667 21.1771 37.1667 21.2603 37.1667 21.3268C37.1667 21.4432 37.2381 21.5264 37.3213 21.543C37.6543 21.5596 37.6424 20.8612 37.5354 20.5784Z" fill="#782000"/>
<path d="M37.7846 17.1025C37.2499 17.1025 37.2499 18.25 37.7846 18.25C38.3193 18.25 38.3193 17.1025 37.7846 17.1025Z" fill="#782000"/>
<path d="M39.8047 17.6343C39.4598 17.6343 39.4598 18.366 39.8047 18.366C40.1377 18.366 40.1377 17.6343 39.8047 17.6343Z" fill="#782000"/>
<path d="M39.5668 20.0791C39.0321 20.0791 39.0321 21.2266 39.5668 21.2266C40.0896 21.2432 40.0896 20.0791 39.5668 20.0791Z" fill="#782000"/>
<path d="M38.4977 22.0413C38.248 22.0413 38.248 22.5901 38.4977 22.5901C38.7475 22.5901 38.7475 22.0413 38.4977 22.0413Z" fill="#782000"/>
<path d="M38.6163 18.7488C38.0817 18.7488 38.0817 19.8963 38.6163 19.8963C39.151 19.9129 39.151 18.7488 38.6163 18.7488Z" fill="#782000"/>
<path d="M41.0169 20.7941C40.9812 20.7442 40.9217 20.7109 40.8742 20.7109L40.8147 20.7276C40.779 20.7442 40.7553 20.7608 40.7196 20.7941C40.672 20.844 40.6363 20.8939 40.5888 20.9438C40.5531 20.9937 40.5293 21.0934 40.5293 21.16C40.5293 21.2431 40.5531 21.3263 40.5888 21.3762C40.6363 21.426 40.6839 21.4759 40.7434 21.4593C40.8028 21.4593 40.8623 21.426 40.898 21.3762C40.9336 21.3096 40.9693 21.2597 41.005 21.1932C41.0407 21.1267 41.0645 21.0768 41.0645 20.9937C41.0764 20.9271 41.0526 20.844 41.0169 20.7941Z" fill="#782000"/>
<path d="M34.7071 21.4094C34.1724 21.4094 34.1724 22.5569 34.7071 22.5569C35.2299 22.5569 35.2299 21.4094 34.7071 21.4094Z" fill="#782000"/>
<path d="M35.3015 19.3145C34.9804 19.3145 34.9804 20.0129 35.3015 20.0129C35.6107 20.0129 35.6107 19.3145 35.3015 19.3145Z" fill="#782000"/>
<path d="M36.3588 19.7466C35.8241 19.7466 35.8241 20.8941 36.3588 20.8941C36.8935 20.9107 36.8935 19.7466 36.3588 19.7466Z" fill="#782000"/>
<path d="M15.8504 14.6574C15.7554 14.6574 15.6959 14.7073 15.6603 14.7904C15.6128 14.6574 15.5177 14.5576 15.3751 14.5576C14.9474 14.5576 14.9474 15.4723 15.3751 15.4723C15.5177 15.4723 15.6128 15.3725 15.6603 15.2395C15.6959 15.3226 15.7672 15.3725 15.8504 15.3725C16.1831 15.3725 16.1831 14.6574 15.8504 14.6574Z" fill="#782000"/>
<path d="M16.6823 15.4893C16.3613 15.4893 16.3613 16.2044 16.6823 16.2044C17.0153 16.2044 17.0153 15.4893 16.6823 15.4893Z" fill="#782000"/>
<path d="M17.8114 16.6032C17.7758 16.5534 17.7401 16.4868 17.6925 16.4369C17.6449 16.3704 17.5736 16.3372 17.5141 16.3372C17.4547 16.3372 17.3714 16.3704 17.3357 16.4369C17.2882 16.5035 17.2525 16.6032 17.2644 16.6864C17.2644 16.7862 17.2882 16.8693 17.3357 16.9359C17.3714 16.9857 17.419 17.0356 17.4547 17.1022C17.5022 17.1687 17.5617 17.2019 17.633 17.2019C17.6925 17.2019 17.7639 17.1687 17.8114 17.1022C17.859 17.0356 17.8828 16.9525 17.8828 16.8527C17.8828 16.7529 17.859 16.6698 17.8114 16.6032Z" fill="#782000"/>
<path d="M17.9067 14.6245C17.8591 14.5081 17.8234 14.4083 17.7759 14.2919C17.7045 14.0924 17.5023 14.0258 17.3715 14.1422C17.3121 14.1921 17.2526 14.2919 17.2288 14.3917C17.205 14.5081 17.2288 14.6079 17.2645 14.7077C17.3002 14.8241 17.3358 14.9405 17.3715 15.0403C17.4072 15.1401 17.4904 15.2066 17.5618 15.2399C17.6332 15.2731 17.7283 15.2565 17.7997 15.19C17.9424 15.0902 17.9899 14.8407 17.9067 14.6245Z" fill="#782000"/>
<path d="M17.0394 13.8261C17.0037 13.7097 16.968 13.5933 16.9323 13.4769C16.9086 13.3937 16.8253 13.3105 16.7659 13.2939C16.6945 13.2607 16.6113 13.2773 16.5518 13.3272C16.421 13.4436 16.3734 13.6764 16.4448 13.876C16.4923 13.9758 16.528 14.0922 16.5756 14.192C16.6469 14.3583 16.8253 14.4414 16.9442 14.325C17.0037 14.2751 17.0513 14.192 17.0632 14.0922C17.0869 14.0257 17.0632 13.9259 17.0394 13.8261Z" fill="#782000"/>
<path d="M19.1775 17.2354C18.9278 17.2354 18.9278 17.7675 19.1775 17.7675C19.4273 17.7675 19.4273 17.2354 19.1775 17.2354Z" fill="#782000"/>
<path d="M20.0093 18.3667C19.5812 18.3667 19.5812 19.298 20.0093 19.298C20.4255 19.298 20.4374 18.3667 20.0093 18.3667Z" fill="#782000"/>
<path d="M21.0667 18.5327C20.7932 18.5327 20.7932 19.1314 21.0667 19.1314C21.3521 19.1314 21.3521 18.5327 21.0667 18.5327Z" fill="#782000"/>
<path d="M22.9677 19.3643C22.8489 19.3643 22.7301 19.3643 22.6113 19.3477C22.433 19.3477 22.2548 19.5805 22.2667 19.8299C22.2786 20.0794 22.4211 20.3122 22.6113 20.3122C22.7301 20.3122 22.8489 20.3122 22.9677 20.2956C23.146 20.2956 23.3123 20.0794 23.3004 19.8299C23.3004 19.5639 23.1578 19.3643 22.9677 19.3643Z" fill="#782000"/>
<path d="M24.6314 19.6302C24.5482 19.6302 24.4769 19.6135 24.3937 19.6135C24.2511 19.5969 24.1086 19.7965 24.1204 19.996C24.1323 20.1956 24.2393 20.3951 24.3937 20.3785C24.4769 20.3785 24.5482 20.3619 24.6314 20.3619C24.7621 20.3453 24.8928 20.1956 24.8928 19.996C24.8809 19.7798 24.774 19.6468 24.6314 19.6302Z" fill="#782000"/>
<path d="M26.6867 19.231C26.6511 19.0814 26.5323 18.9151 26.4134 18.9317C26.4016 18.9317 26.3897 18.9317 26.3778 18.9317C26.461 18.9483 26.4729 18.9483 26.4016 18.9317C26.3778 18.9317 26.3659 18.9151 26.3421 18.9151C26.2946 18.9151 26.2471 18.9317 26.2114 18.9483C26.1283 18.9151 26.057 18.8984 25.9738 18.9317C25.855 18.965 25.7599 19.098 25.7124 19.2643C25.6649 19.414 25.6649 19.547 25.7124 19.6967C25.7599 19.863 25.855 19.9461 25.9738 20.0293C26.3065 20.2289 26.8293 19.8131 26.6867 19.231Z" fill="#782000"/>
<path d="M27.3523 17.4849C26.8766 17.4849 26.8647 18.5326 27.3523 18.5326C27.8399 18.5326 27.8399 17.4849 27.3523 17.4849Z" fill="#782000"/>
<path d="M28.0655 16.6367C27.5779 16.6367 27.5779 17.7011 28.0655 17.7011C28.5531 17.7011 28.5531 16.6367 28.0655 16.6367Z" fill="#782000"/>
<path d="M18.8685 13.4109C18.8209 13.2114 18.6546 13.0451 18.5001 13.1116C18.3813 13.1615 18.2625 13.228 18.1437 13.2779C18.0011 13.3444 17.8823 13.5606 17.9417 13.7934C17.9892 13.993 18.1437 14.1593 18.31 14.0761C18.4288 14.0262 18.5477 13.9764 18.6665 13.9098C18.8091 13.8599 18.916 13.6437 18.8685 13.4109Z" fill="#782000"/>
<path d="M16.1004 13.3607C16.1004 13.2776 16.0766 13.1778 16.029 13.1113C15.9814 13.0447 15.922 13.0115 15.8506 13.0115C15.7912 13.0115 15.7198 13.0447 15.6722 13.1113C15.6247 13.1778 15.6009 13.2609 15.6009 13.3607C15.6009 13.4106 15.6009 13.4771 15.589 13.527C15.589 13.6102 15.6247 13.71 15.6603 13.7765C15.7079 13.843 15.7793 13.8763 15.8387 13.8763C15.8982 13.8763 15.9695 13.843 16.0171 13.7765C16.0647 13.71 16.0885 13.6268 16.0885 13.527C16.1004 13.4771 16.1004 13.4106 16.1004 13.3607Z" fill="#782000"/>
<path d="M16.16 16.0713L16.0411 15.905C15.9935 15.8385 15.9221 15.7886 15.8508 15.7886C15.7794 15.7886 15.7081 15.8218 15.6605 15.905C15.6129 15.9715 15.5773 16.0713 15.5773 16.1711C15.5773 16.2709 15.6011 16.3706 15.6605 16.4372C15.6962 16.4871 15.7438 16.5536 15.7794 16.6035C15.827 16.67 15.8984 16.7199 15.9697 16.7199C16.0411 16.7199 16.1124 16.6866 16.16 16.6035C16.2075 16.5369 16.2432 16.4372 16.2432 16.3374C16.2432 16.2376 16.2194 16.1544 16.16 16.0713Z" fill="#782000"/>
<path d="M29.4552 6.87487C29.3245 6.60878 29.1701 6.35932 29.0037 6.12649C28.9205 5.79388 28.7542 5.51117 28.5284 5.3116C28.5403 5.06214 28.4215 4.77943 28.1957 4.74617C27.3997 4.59649 26.1402 4.7628 25.7362 5.92693C25.2609 7.29063 26.5917 8.22193 27.1977 8.88715C27.8155 9.55237 28.778 11.0491 29.6097 10.1344C30.3345 9.3528 29.8949 7.75628 29.4552 6.87487Z" fill="#CD7241"/>
<path d="M20.6745 10.5166C20.5676 9.78482 20.0567 9.38569 19.5933 9.15286C18.512 8.60405 17.2406 8.60405 16.3852 9.78482C16.2901 9.91786 16.2307 10.1174 16.2188 10.317C16.0643 10.7993 16.2426 11.3481 16.5396 11.6641C17.0743 12.2461 17.5733 11.8304 18.1556 11.6973C18.8091 11.531 19.32 12.3459 19.9973 12.0466C20.4606 11.847 20.7815 11.215 20.6745 10.5166ZM19.1655 10.5997C19.1655 10.5831 19.1655 10.5831 19.1655 10.5997C19.2487 10.6163 19.32 10.633 19.3913 10.6662C19.415 10.6995 19.4388 10.7161 19.4626 10.7328C19.415 10.7161 19.3675 10.6995 19.32 10.6662C19.2606 10.6496 19.213 10.6163 19.1655 10.5997Z" fill="#CD7241"/>
<path d="M40.4936 14.2589C40.2322 14.1924 39.9589 14.209 39.7094 14.3254C39.2817 14.4418 38.9252 14.8077 38.6638 15.3232C38.5212 15.6059 38.5807 15.9053 38.7114 16.1215C38.7351 16.3709 38.8421 16.5871 39.0322 16.7036C39.3649 16.9198 39.7926 16.637 40.0778 16.3709C40.3748 16.0882 40.6243 15.7057 40.7907 15.2733C40.9333 14.9241 40.8144 14.3587 40.4936 14.2589Z" fill="#CD7241"/>
<path d="M35.6458 17.0857C35.1111 17.0857 35.1111 18.2665 35.6458 18.2665C36.1923 18.2665 36.1923 17.0857 35.6458 17.0857Z" fill="#CD7241"/>
<path d="M48.2762 12.1295C47.9078 11.3645 47.492 10.666 47.0167 10.0341C46.8028 9.75136 46.3988 10.1339 46.589 10.4997C46.6721 10.666 46.7672 10.8323 46.8504 10.982C46.5533 10.8656 46.2444 10.7991 45.9117 10.8157C45.5909 10.8157 45.4126 11.5142 45.7335 11.7138C45.8523 11.7969 45.9711 11.8801 46.1018 11.9632C45.9473 12.0297 45.781 12.1129 45.6265 12.2127C45.2701 12.4455 45.4602 13.2271 45.8166 13.2105C45.9354 13.2105 46.0543 13.1939 46.1731 13.1939C46.0661 13.3602 45.9711 13.5265 45.876 13.7094C45.6503 14.1751 46.0899 14.7738 46.4226 14.4744C46.5533 14.358 46.684 14.2416 46.8147 14.1252C46.7672 14.6574 47.2068 15.2228 47.5157 14.6906C47.8484 14.1086 48.2405 13.6429 48.6802 13.2271C49.1198 12.7947 48.7515 11.8135 48.2762 12.1295Z" fill="#657C03"/>
<path d="M29.1939 18.2662C29.1226 18.366 29.0513 18.4491 28.9681 18.5489C28.9919 18.4824 29.0038 18.4325 29.0275 18.366C29.1463 17.9336 28.7423 17.5344 28.4691 17.7673C28.2908 17.9336 28.1126 18.0832 27.9344 18.2495C28.0532 17.8171 28.1482 17.3681 28.2077 16.9025C28.2671 16.4535 27.8631 15.9878 27.6017 16.4036C27.3878 16.7528 27.1977 17.1187 27.0313 17.5012C26.9125 17.0521 26.7343 16.6364 26.4848 16.2539C26.259 15.9213 25.7956 16.2705 25.9144 16.7195C26.1521 17.6342 26.259 18.5323 26.2471 19.5135C26.2471 19.7962 26.3897 19.9126 26.5442 19.896C26.5917 20.2119 26.8888 20.4614 27.1145 20.2618C27.1264 20.2452 27.1502 20.2286 27.162 20.2119C28.1245 20.478 29.1107 20.1288 29.7761 19.0811C30.1207 18.5323 29.5741 17.734 29.1939 18.2662Z" fill="#657C03"/>
<path d="M32.9961 10.8991C32.8654 10.949 32.7228 10.9989 32.604 11.0655C32.6277 10.9657 32.6634 10.8659 32.6871 10.7827C32.8654 10.1175 32.2237 9.75165 31.9029 10.1341C31.5583 10.5499 31.2494 11.0156 30.9761 11.5311C30.9405 11.3315 30.9048 11.132 30.8811 10.9324C30.786 10.2339 29.9424 10.3836 29.978 11.0987C29.9899 11.3814 30.0137 11.6642 30.0375 11.9302C29.7048 11.6143 29.3483 11.3482 28.98 11.1153C28.6235 10.8991 28.1601 11.5145 28.5166 11.9469C29.1582 12.7119 29.8355 13.3605 30.5484 13.9758C30.8454 14.2252 31.19 13.876 31.19 13.4436C31.3207 13.4935 31.4871 13.4602 31.6296 13.2939C31.6653 13.2607 31.7009 13.2108 31.7366 13.1775C31.7722 13.4769 31.998 13.6931 32.2356 13.6266C32.8416 13.4935 33.2812 12.5955 33.5426 11.8803C33.7446 11.3648 33.4119 10.7661 32.9961 10.8991Z" fill="#657C03"/>
<path d="M24.1678 11.2149C23.9658 11.481 23.7638 11.7637 23.5618 12.0298C23.5499 11.6972 23.5024 11.348 23.4548 10.9987C23.3479 10.3668 22.6112 10.3335 22.5162 10.9987C22.433 11.5475 22.3855 12.0963 22.3617 12.6451C22.0647 12.3292 21.7557 12.0132 21.4111 11.7471C21.0428 11.4644 20.6269 12.1629 20.9477 12.5952C21.2567 13.011 21.5775 13.4268 21.8864 13.8592C22.0052 14.0088 22.1359 14.0255 22.2429 13.9756C22.3379 14.1086 22.433 14.2583 22.5281 14.408C22.3498 14.9235 22.8251 15.5222 23.1816 15.2062C23.9539 14.4911 24.5242 13.1773 24.9401 12.0464C25.2015 11.3646 24.5836 10.6661 24.1678 11.2149Z" fill="#657C03"/>
<path d="M40.066 12.4288C39.9947 12.4621 39.9234 12.4953 39.8521 12.5286C40.0779 11.7968 39.4125 11.248 39.0798 11.9133C38.9372 12.196 38.7946 12.4787 38.6639 12.7614C38.5094 12.329 38.3431 11.9133 38.153 11.4975C37.8678 10.8822 37.2143 11.4143 37.4519 12.0629C37.7252 12.7947 37.9985 13.5098 38.248 14.2581C38.2718 14.3247 38.3074 14.3912 38.3431 14.4411C38.3431 14.4577 38.355 14.4743 38.355 14.491C38.3906 14.624 38.4619 14.7238 38.5332 14.7903C38.5688 15.0564 38.7471 15.2393 38.9728 15.1894C39.5788 15.0398 40.1135 14.0918 40.5175 13.4931C40.8027 13.0441 40.5175 12.2625 40.066 12.4288Z" fill="#657C03"/>
<path d="M20.9359 20.0626C20.924 19.6801 20.722 19.4639 20.5081 19.4472C20.4844 19.3807 20.4606 19.3308 20.425 19.2809C20.425 19.1146 20.3774 18.9483 20.3061 18.8153C20.2705 18.6989 20.1992 18.5991 20.0923 18.5492C19.3437 18.1833 18.5595 18.1833 17.8109 18.5824C17.3713 18.8153 17.4307 19.6801 17.9178 19.73C18.1436 19.7466 18.3575 19.7632 18.5832 19.7798C18.3218 20.1125 18.0842 20.4783 17.8703 20.8775C17.5852 21.4263 18.1317 22.0748 18.5001 21.7589C18.6545 21.6258 18.809 21.5094 18.9635 21.3764C18.9397 21.4429 18.9159 21.5094 18.8803 21.5759C18.6189 22.2411 19.2011 22.79 19.5932 22.3409C19.7477 22.1746 19.8903 21.9917 20.021 21.8088C20.1754 22.0915 20.5319 22.1081 20.6864 21.7589C20.9359 21.2766 20.9478 20.6446 20.9359 20.0626Z" fill="#657C03"/>
<path d="M38.6399 22.7736C38.1052 21.992 37.428 21.3933 36.7507 20.8777C36.5368 20.7114 36.2398 20.7779 36.0615 20.9941C35.919 21.0274 35.7764 21.1438 35.6932 21.2935C35.5981 21.1771 35.4674 21.1105 35.3367 21.1438C35.2298 21.0607 35.0991 21.0607 34.9684 21.1604C34.3981 21.6261 33.8515 22.1749 33.3643 22.8069C32.9722 23.2891 33.4713 24.1872 33.9228 23.8213C34.0891 23.6883 34.2555 23.5386 34.4218 23.4056C34.2436 24.0541 34.8971 24.6196 35.2773 24.1207C35.4437 23.9211 35.5981 23.7049 35.7526 23.4721C35.7645 23.5719 35.7645 23.6883 35.7764 23.7881C35.812 24.6695 36.6913 24.869 36.8814 24.0043C36.9527 23.6883 37.0002 23.3557 37.0359 23.0231C37.3091 23.3058 37.5824 23.5885 37.8557 23.9045C38.4023 24.5032 39.1627 23.522 38.6399 22.7736Z" fill="#657C03"/>
<path d="M31.0355 20.6613C30.679 20.1125 30.1325 20.2954 29.7879 20.761C29.6453 20.944 29.5384 21.1768 29.4314 21.4096C29.3839 21.5094 29.3482 21.6258 29.3007 21.7256C29.2888 21.7422 29.277 21.7589 29.2532 21.7921C28.7423 21.526 28.4096 22.6735 28.8849 23.0228C29.3007 23.3221 29.7285 23.1558 30.0493 22.7234C30.1919 22.5405 30.2869 22.3077 30.4057 22.0915C30.4414 22.025 30.477 21.9751 30.5127 21.9252C30.5246 21.9085 30.5364 21.9085 30.5483 21.9085C30.584 21.9085 30.6315 21.9085 30.6672 21.9085C31.1424 21.9252 31.3207 21.0937 31.0355 20.6613Z" fill="#D79852"/>
<path d="M31.7602 18.3995C31.5939 18.2997 31.4275 18.3995 31.3206 18.5991C31.2137 18.7986 31.1424 19.0314 31.0592 19.2476C30.9642 19.4971 31.0117 19.8297 31.1899 19.9627C31.3562 20.0791 31.6176 20.0459 31.7008 19.7798C31.784 19.5137 31.8909 19.2643 31.9503 18.9816C32.0097 18.7321 31.9147 18.4826 31.7602 18.3995Z" fill="#D79852"/>
<path d="M33.0438 17.4187C32.6514 17.4187 32.6514 18.2669 33.0438 18.2669C33.4363 18.2669 33.4363 17.4187 33.0438 17.4187Z" fill="#D79852"/>
<path d="M22.9916 21.1103C22.8371 21.0604 22.6945 20.9939 22.5401 20.944C22.3737 20.8775 22.1955 20.7777 22.0173 20.7943C21.8153 20.8276 21.6489 20.944 21.5657 21.2267C21.4944 21.4595 21.5182 21.8088 21.6727 21.9917C21.9578 22.3077 22.3618 22.4075 22.7183 22.5405C22.9797 22.6569 23.3124 22.4075 23.3718 22.025C23.4193 21.6258 23.2767 21.2101 22.9916 21.1103Z" fill="#D79852"/>
<path d="M24.0726 16.82C23.9894 16.4541 23.7042 16.1714 23.4191 16.3044C23.3003 16.3543 23.1814 16.4209 23.0626 16.4707C22.9319 16.5373 22.8131 16.637 22.7418 16.8034C22.6705 16.9697 22.6468 17.2025 22.6943 17.3688C22.7775 17.7347 23.0626 18.0174 23.3478 17.8843C23.4666 17.8344 23.5854 17.7679 23.7042 17.718C23.835 17.6515 23.9538 17.5517 24.0251 17.3854C24.0845 17.2191 24.1082 16.9863 24.0726 16.82Z" fill="#D79852"/>
<path d="M19.7721 17.0691C19.5219 17.0691 19.5219 17.6013 19.7721 17.6013C20.0103 17.6013 20.0103 17.0691 19.7721 17.0691Z" fill="#D79852"/>
<path d="M16.0406 19.231C15.8624 18.8319 15.4941 18.6822 15.1851 18.9151L14.9594 19.098C14.9 19.1479 14.8524 19.1812 14.8049 19.2477C14.7336 19.3142 14.6861 19.3974 14.6386 19.4971C14.4841 19.7799 14.4841 20.1956 14.6386 20.4783C14.7574 20.6945 14.9475 20.811 15.1376 20.7943C15.2089 20.7943 15.2802 20.7943 15.3396 20.7611C15.4228 20.7278 15.5059 20.6613 15.5772 20.5948L15.803 20.4118C16.1 20.1956 16.2189 19.6136 16.0406 19.231Z" fill="#D79852"/>
<path d="M32.7823 16.2045C32.7229 15.9883 32.6159 15.8386 32.4615 15.7555C32.2714 15.6391 32.0931 15.6723 31.9149 15.8054C31.7129 15.9384 31.5584 16.2378 31.499 16.5371C31.4753 16.6535 31.4634 16.7866 31.4634 16.9196C31.4753 17.2023 31.5584 17.4019 31.6773 17.6015C31.7129 17.6514 31.7485 17.6846 31.7961 17.7345C31.8436 17.7678 31.8911 17.7844 31.9268 17.8177C32.0456 17.8676 32.1763 17.8509 32.2951 17.7844C32.4615 17.6846 32.6041 17.4518 32.6397 17.2023C32.6872 17.1525 32.7229 17.0859 32.7585 17.0028C32.8536 16.7367 32.8536 16.454 32.7823 16.2045Z" fill="#D79852"/>
<path d="M43.1195 24.104C42.5848 24.0873 42.1095 24.3701 41.5748 24.4033C40.7431 24.4366 40.7431 26.2493 41.5748 26.2161C42.2402 26.1828 43.0125 26.0664 43.4759 25.3346C43.773 24.869 43.5829 24.1206 43.1195 24.104Z" fill="#D79852"/>
<path d="M45.496 23.2555C45.4485 23.0393 45.3534 22.8397 45.2108 22.74C45.0683 22.6402 44.89 22.5737 44.7356 22.6568C44.6168 22.7067 44.4979 22.7566 44.3791 22.8231C44.2247 22.8896 44.0821 23.0227 43.9989 23.2222C43.9157 23.4052 43.892 23.6879 43.9395 23.9041C43.987 24.1203 44.0821 24.3199 44.2247 24.4363C44.3672 24.5361 44.5455 24.6026 44.7118 24.5194C44.8306 24.4695 44.9494 24.403 45.0683 24.3531C45.2227 24.27 45.3534 24.1536 45.4366 23.954C45.5079 23.7378 45.5435 23.4551 45.496 23.2555Z" fill="#D79852"/>
<path d="M47.5872 23.0559C47.5278 22.8231 47.4208 22.5903 47.2664 22.4739C47.1 22.3574 46.898 22.2909 46.7198 22.3741C46.601 22.424 46.4821 22.4905 46.3633 22.5404C46.1851 22.6235 46.0306 22.7732 45.9474 22.9894C45.8643 23.2056 45.8167 23.505 45.8762 23.7544C45.9356 23.9872 46.0425 24.2201 46.197 24.3365C46.3633 24.4529 46.5653 24.5194 46.7435 24.4363C46.8624 24.3864 46.9812 24.3199 47.1 24.27C47.2782 24.1868 47.4327 24.0371 47.5159 23.8209C47.6109 23.6047 47.6466 23.2888 47.5872 23.0559Z" fill="#D79852"/>
<path d="M52.0547 19.6798C52.031 19.58 51.9953 19.4969 51.9359 19.4304C51.9003 19.3805 51.8646 19.3472 51.8171 19.2973C51.7339 19.2308 51.627 19.1809 51.5319 19.1809C51.4844 19.1975 51.425 19.1975 51.3775 19.2142C51.2824 19.2474 51.1992 19.314 51.1279 19.4137C51.0923 19.4636 51.0448 19.5135 51.0091 19.58C50.9497 19.6466 50.9141 19.7463 50.8903 19.8461C50.8547 19.9459 50.8428 20.0457 50.8428 20.1621C50.8428 20.2785 50.8547 20.3783 50.8903 20.4781C50.9141 20.5779 50.9497 20.661 51.0091 20.7442C51.0448 20.7941 51.0923 20.8273 51.1279 20.8772C51.223 20.9437 51.318 20.9936 51.4131 20.9936C51.4606 20.977 51.52 20.977 51.5676 20.9604C51.6626 20.9271 51.7458 20.8606 51.8171 20.7608C51.8527 20.7109 51.8884 20.6444 51.9359 20.5945C51.9953 20.528 52.031 20.4282 52.0547 20.345C52.0904 20.2453 52.1022 20.1455 52.1022 20.0291C52.1141 19.8794 52.0904 19.7796 52.0547 19.6798Z" fill="#D79852"/>
<path d="M50.9379 12.03C50.1774 12.03 50.1774 13.6764 50.9379 13.6764C51.6983 13.6931 51.6983 12.03 50.9379 12.03Z" fill="#D79852"/>
<path d="M23.0157 12.9783C23.0038 12.9118 22.98 12.8453 22.9443 12.7954C22.9205 12.7787 22.9086 12.7455 22.8848 12.7288C22.8373 12.6956 22.7897 12.679 22.7302 12.679C22.6946 12.679 22.647 12.6956 22.6113 12.7122C22.5756 12.7288 22.54 12.7621 22.5162 12.7954C22.4805 12.8453 22.4567 12.9118 22.4448 12.9783C22.4329 13.0448 22.4329 13.128 22.4448 13.1945L22.4686 13.3608C22.4686 13.3941 22.4805 13.4107 22.4805 13.4439C22.4805 13.4772 22.4924 13.5271 22.5043 13.5437C22.5162 13.5604 22.5281 13.5936 22.54 13.6103L22.5519 13.6269C22.5756 13.6601 22.5994 13.6768 22.6232 13.6934C22.647 13.71 22.6827 13.7267 22.7065 13.7267C22.7659 13.7267 22.8254 13.6934 22.8611 13.6435L22.873 13.6269C22.9086 13.577 22.9324 13.5271 22.9443 13.4606C22.9443 13.4273 22.9562 13.4107 22.9562 13.3774L22.98 13.2111C23.0276 13.1113 23.0276 13.0448 23.0157 12.9783Z" fill="#899E0D"/>
<path d="M24.156 12.3623C23.9063 12.3623 23.9063 12.8945 24.156 12.8945C24.4058 12.9111 24.4058 12.3623 24.156 12.3623Z" fill="#899E0D"/>
<path d="M19.2253 19.5965C19.2134 19.5633 19.2015 19.5134 19.1778 19.4968L19.1302 19.4469C19.0945 19.4136 19.0588 19.397 19.0113 19.397C18.9875 19.397 18.9756 19.397 18.9518 19.4136C18.9161 19.4302 18.8805 19.4635 18.8448 19.4968C18.821 19.53 18.7972 19.5633 18.7615 19.6132C18.7378 19.6464 18.7259 19.6797 18.714 19.713C18.7021 19.7462 18.6902 19.7961 18.6902 19.846C18.6902 19.8959 18.6902 19.9292 18.714 19.979C18.7259 20.0123 18.7378 20.0622 18.7615 20.0788L18.8091 20.1287C18.8448 20.162 18.8805 20.1786 18.928 20.1786C18.9518 20.1786 18.9637 20.1786 18.9875 20.162C19.0232 20.1454 19.0588 20.1121 19.0945 20.0788C19.1183 20.0456 19.1421 20.0123 19.1778 19.9624C19.2015 19.9292 19.2134 19.8959 19.2253 19.8626C19.2372 19.8294 19.2491 19.7795 19.2491 19.7296C19.2491 19.6797 19.2491 19.6298 19.2253 19.5965Z" fill="#899E0D"/>
<path d="M18.619 20.7446C18.3336 20.7446 18.3336 21.36 18.619 21.36C18.9044 21.36 18.9044 20.7446 18.619 20.7446Z" fill="#899E0D"/>
<path d="M20.3657 20.4121C19.9852 20.4121 19.9852 21.2436 20.3657 21.2436C20.7344 21.2436 20.7344 20.4121 20.3657 20.4121Z" fill="#899E0D"/>
<path d="M27.6971 18.4991C27.6971 18.4492 27.6971 18.4159 27.6733 18.3827C27.6614 18.3494 27.6496 18.3161 27.6258 18.2829C27.602 18.2496 27.5782 18.233 27.5544 18.2164C27.5306 18.1997 27.495 18.1831 27.4712 18.1831C27.4474 18.1831 27.4355 18.1831 27.4117 18.1997C27.376 18.2164 27.3404 18.2496 27.3047 18.2829C27.2928 18.2995 27.2809 18.3328 27.269 18.3494C27.2452 18.3993 27.2333 18.4492 27.2333 18.5157C27.2333 18.5822 27.2214 18.6654 27.2214 18.7319C27.2214 18.7818 27.2214 18.8151 27.2452 18.8649C27.2571 18.8982 27.269 18.9481 27.2928 18.9647C27.3166 18.998 27.3404 19.0146 27.3641 19.0312C27.3879 19.0479 27.4236 19.0645 27.4593 19.0645C27.4831 19.0645 27.5068 19.0645 27.5187 19.0479C27.5544 19.0312 27.5901 18.998 27.6258 18.9647C27.6377 18.9481 27.6496 18.9148 27.6614 18.8982C27.6852 18.8483 27.6971 18.7818 27.6971 18.7319C27.709 18.6488 27.709 18.5822 27.6971 18.4991Z" fill="#899E0D"/>
<path d="M30.5845 12.5286C30.5726 12.4787 30.5607 12.4288 30.5369 12.3955C30.5131 12.3456 30.4894 12.3124 30.4537 12.2957C30.4061 12.2625 30.3585 12.2458 30.311 12.2458C30.2991 12.2458 30.2872 12.2458 30.2753 12.2458C30.2396 12.2458 30.2039 12.2625 30.1683 12.2791C30.1326 12.2957 30.1207 12.3124 30.085 12.3623L30.0731 12.3789C30.0612 12.3955 30.0493 12.4288 30.0375 12.4454C30.0137 12.4787 30.0137 12.5286 30.0137 12.5785C30.0137 12.6117 30.0137 12.645 30.0137 12.6782C30.0137 12.7281 30.0256 12.7614 30.0375 12.8113C30.0375 12.8113 30.0375 12.8279 30.0493 12.8279C30.0612 12.8612 30.0731 12.8778 30.0969 12.9111C30.1326 12.961 30.1802 12.9942 30.2277 13.0109C30.2396 13.0109 30.2515 13.0275 30.2634 13.0275C30.311 13.0441 30.3585 13.0441 30.418 13.0275C30.4418 13.0109 30.4656 12.9942 30.4894 12.9942C30.5369 12.961 30.5607 12.9111 30.5845 12.8612C30.6083 12.8113 30.6202 12.7614 30.6202 12.7115C30.5964 12.6284 30.5964 12.5785 30.5845 12.5286Z" fill="#899E0D"/>
<path d="M31.7964 11.7972C31.7845 11.764 31.7726 11.7307 31.7607 11.6975C31.7488 11.6808 31.7369 11.6642 31.725 11.6476C31.7012 11.6143 31.6775 11.5977 31.6537 11.5977C31.618 11.581 31.5823 11.581 31.5466 11.5977C31.5229 11.6143 31.4991 11.6309 31.4753 11.6476C31.4515 11.6642 31.4396 11.6975 31.4277 11.7307C31.4158 11.7474 31.4039 11.7806 31.392 11.7972L31.3683 11.8638V11.8804V11.897C31.3683 11.9137 31.3564 11.9303 31.3564 11.9469C31.3445 11.9968 31.3326 12.0633 31.3207 12.1132C31.3088 12.1465 31.3088 12.1964 31.3207 12.2296C31.3207 12.2629 31.3326 12.3128 31.3445 12.346C31.3564 12.3793 31.3801 12.4126 31.4039 12.4292C31.4277 12.4625 31.4515 12.4791 31.4753 12.4791C31.4991 12.4791 31.511 12.4791 31.5347 12.4957C31.5704 12.4957 31.618 12.4791 31.6418 12.4458C31.6537 12.4292 31.6775 12.4126 31.6893 12.3959C31.7131 12.3627 31.7369 12.3128 31.7488 12.2629C31.7607 12.213 31.7726 12.1465 31.7845 12.0966L31.7964 12.0633C31.8083 12.0301 31.8083 11.9968 31.8083 11.9469C31.8083 11.9137 31.8083 11.8804 31.8083 11.8638C31.7964 11.8471 31.7964 11.8305 31.7964 11.7972Z" fill="#899E0D"/>
<path d="M33.4244 11.3818C33.4125 11.3319 33.3887 11.282 33.3649 11.2487C33.3411 11.2321 33.3292 11.1988 33.3055 11.1822C33.2579 11.149 33.2103 11.1323 33.1627 11.1323C33.139 11.1323 33.1152 11.149 33.0914 11.149C33.0438 11.1656 32.9962 11.1988 32.9606 11.2487L32.8773 11.3651C32.8535 11.3984 32.8297 11.4483 32.8179 11.4982C32.7941 11.5481 32.7941 11.598 32.7941 11.6479C32.7941 11.6978 32.806 11.7476 32.8179 11.7975C32.8297 11.8474 32.8535 11.8973 32.8773 11.9306C32.9011 11.9472 32.913 11.9805 32.9368 11.9971C32.9844 12.0304 33.0319 12.047 33.0795 12.047C33.1033 12.047 33.1271 12.0304 33.1508 12.0304C33.1984 12.0137 33.246 11.9805 33.2817 11.9306L33.3649 11.8142C33.3887 11.7809 33.4125 11.731 33.4244 11.6811C33.4482 11.6312 33.4482 11.5813 33.4482 11.5314C33.4482 11.4816 33.4482 11.4317 33.4244 11.3818Z" fill="#899E0D"/>
<path d="M39.2579 13.5102C39.246 13.427 39.2104 13.3605 39.1748 13.294C39.1391 13.2441 39.0916 13.1776 39.0559 13.1277C39.0322 13.0944 39.0084 13.0778 38.9965 13.0445C38.9609 13.0113 38.9371 12.9614 38.9015 12.9281C38.8896 12.9115 38.8777 12.9115 38.8658 12.8949C38.8421 12.8782 38.8183 12.8616 38.7826 12.8616C38.7708 12.8616 38.747 12.8616 38.7351 12.845H38.7232C38.6757 12.845 38.6401 12.8616 38.6044 12.8782C38.5688 12.8949 38.5331 12.9281 38.5094 12.9614L38.4618 13.0445C38.4381 13.1111 38.4143 13.1776 38.4143 13.2607V13.2774C38.4143 13.2774 38.4143 13.2774 38.4143 13.294C38.4143 13.3273 38.4262 13.3772 38.4262 13.4104C38.4381 13.4437 38.45 13.4769 38.4618 13.5268C38.4737 13.5435 38.4856 13.5601 38.4856 13.5767C38.4975 13.5934 38.4975 13.61 38.5094 13.6266C38.5094 13.6266 38.5094 13.6432 38.5212 13.6432L38.5331 13.6599C38.5569 13.6931 38.5688 13.7264 38.5925 13.7597C38.6282 13.8262 38.6757 13.8761 38.7114 13.926C38.747 13.9759 38.7827 14.0091 38.8183 14.0258C38.8539 14.059 38.9015 14.0756 38.949 14.059C38.9965 14.059 39.0441 14.0424 39.0797 14.0258C39.1272 14.0091 39.1629 13.9759 39.1866 13.926C39.1985 13.8927 39.2223 13.8594 39.2342 13.8262C39.2698 13.7597 39.2817 13.6765 39.2817 13.5934C39.2698 13.5934 39.2579 13.5435 39.2579 13.5102Z" fill="#899E0D"/>
<path d="M35.6819 21.5263C35.67 21.4764 35.6462 21.4099 35.6106 21.3766C35.5749 21.3267 35.5392 21.2935 35.5035 21.2768C35.4679 21.2436 35.4203 21.227 35.3727 21.2436C35.3489 21.2436 35.3133 21.2602 35.2895 21.2602C35.23 21.2768 35.1825 21.3267 35.1468 21.3766C35.1349 21.4099 35.1111 21.4432 35.0992 21.4764C35.0635 21.5429 35.0516 21.6261 35.0516 21.7092V21.8256C35.0516 21.8922 35.0635 21.9421 35.0754 22.0086C35.0873 22.0585 35.1111 22.125 35.1468 22.1583C35.1825 22.2081 35.2181 22.2414 35.2538 22.258C35.2895 22.2913 35.337 22.3079 35.3846 22.2913C35.4084 22.2913 35.4441 22.2747 35.4679 22.2747C35.5273 22.258 35.5749 22.2081 35.6106 22.1583C35.6225 22.125 35.6462 22.0917 35.6581 22.0585C35.6938 21.992 35.7057 21.9088 35.7057 21.8256V21.7092C35.7057 21.6427 35.7057 21.5928 35.6819 21.5263Z" fill="#899E0D"/>
<path d="M36.3355 22.5902C36.3355 22.5236 36.3236 22.4737 36.3117 22.4072C36.2998 22.3573 36.276 22.3074 36.2403 22.2576C36.2165 22.2077 36.1809 22.1744 36.1333 22.1578C36.0976 22.1245 36.0501 22.1245 36.0025 22.1245C35.9787 22.1245 35.943 22.1411 35.9192 22.1411C35.8598 22.1578 35.8122 22.2077 35.7765 22.2576C35.7646 22.2908 35.7409 22.3241 35.729 22.3573C35.7052 22.4239 35.6814 22.507 35.6814 22.5902C35.6814 22.6234 35.6814 22.6567 35.6814 22.7066C35.6814 22.7731 35.6933 22.823 35.7052 22.8895C35.7171 22.9394 35.7409 22.9893 35.7765 23.0392C35.8122 23.0891 35.836 23.1223 35.8836 23.139C35.9192 23.1722 35.9668 23.1889 36.0144 23.1722C36.0382 23.1722 36.0738 23.1556 36.0976 23.1556C36.1571 23.139 36.2046 23.0891 36.2403 23.0392C36.2522 23.0059 36.276 22.9727 36.2879 22.9394C36.3236 22.8729 36.3355 22.7897 36.3355 22.7066C36.3355 22.6733 36.3355 22.6234 36.3355 22.5902Z" fill="#899E0D"/>
<path d="M37.1906 22.8232C37.0951 22.8232 37.0951 23.0394 37.1906 23.0394C37.2861 23.0394 37.2861 22.8232 37.1906 22.8232Z" fill="#899E0D"/>
<path d="M46.6727 11.9803C46.6727 11.9471 46.6727 11.8972 46.6727 11.8639C46.6727 11.7974 46.6608 11.7143 46.6489 11.6477C46.6371 11.6145 46.6252 11.5812 46.6133 11.548C46.5895 11.4981 46.5657 11.4648 46.53 11.4315C46.5062 11.3983 46.4825 11.3816 46.4587 11.3816C46.423 11.3484 46.3873 11.3484 46.3398 11.3484L46.2565 11.365C46.2327 11.3816 46.2089 11.3983 46.1852 11.4149C46.1495 11.4482 46.1257 11.4814 46.1019 11.5313C46.0781 11.5646 46.0544 11.6145 46.0425 11.681C46.0306 11.7475 46.0187 11.8307 46.0187 11.8972C46.0187 11.9305 46.0187 11.9803 46.0187 12.0136C46.0187 12.0968 46.0187 12.1633 46.0187 12.2464C46.0187 12.313 46.0306 12.3628 46.0425 12.4294C46.0544 12.4793 46.0781 12.5292 46.1138 12.579C46.1376 12.6289 46.1733 12.6622 46.2208 12.6788C46.2565 12.7121 46.3041 12.7121 46.3516 12.7121C46.3754 12.7121 46.4111 12.6955 46.4349 12.6955C46.4944 12.6788 46.5419 12.6289 46.5776 12.579C46.5895 12.5458 46.6133 12.5125 46.6252 12.4793C46.6489 12.4127 46.6727 12.3296 46.6727 12.2464C46.6846 12.13 46.6846 12.0469 46.6727 11.9803Z" fill="#899E0D"/>
<path d="M47.7772 12.5618C47.7296 12.5618 47.6821 12.5784 47.6465 12.595C47.6465 12.595 47.6465 12.5784 47.6584 12.5784C47.6821 12.5285 47.6821 12.4786 47.6821 12.4121C47.6821 12.3788 47.6702 12.3456 47.6702 12.2957C47.6584 12.2292 47.6346 12.1626 47.5989 12.1128C47.5752 12.0961 47.5633 12.0629 47.5395 12.0462C47.492 12.013 47.4445 11.9963 47.3851 11.9963C47.3375 11.9963 47.2781 11.9963 47.2306 11.9963C47.195 11.9963 47.1474 12.013 47.1237 12.0296C47.088 12.0462 47.0524 12.0795 47.0286 12.1128C47.0048 12.146 46.9811 12.1959 46.9692 12.2458C46.9454 12.2957 46.9454 12.3456 46.9454 12.3955L46.9573 12.5119C46.9692 12.5784 46.993 12.6449 47.0286 12.6948C47.0524 12.7114 47.0643 12.7447 47.088 12.7613C47.1355 12.7946 47.1831 12.8112 47.2306 12.8112C47.2781 12.8112 47.3375 12.8112 47.3851 12.8112C47.4207 12.8112 47.4682 12.7946 47.5039 12.778C47.5158 12.778 47.5158 12.7613 47.5277 12.7613C47.4445 13.0108 47.5277 13.36 47.7772 13.36C48.1574 13.3767 48.1574 12.5618 47.7772 12.5618Z" fill="#899E0D"/>
<path d="M50.7359 19.7634C50.6884 19.4807 50.4745 19.2479 50.2725 19.2645C50.0467 19.2811 49.8804 19.4641 49.8091 19.7634C49.7972 19.7801 49.7972 19.8133 49.7853 19.8299C49.7616 19.8798 49.7497 19.9297 49.7259 19.9796C49.7022 20.0295 49.6784 20.096 49.6546 20.1459C49.6427 20.1626 49.6309 20.1958 49.619 20.2124C49.619 20.2124 49.619 20.2124 49.619 20.2291C49.5596 20.3122 49.512 20.412 49.4407 20.4952C49.417 20.5284 49.3813 20.5617 49.3576 20.6116C49.3457 20.6282 49.3219 20.6448 49.31 20.6615C49.3813 20.5783 49.31 20.6615 49.2982 20.6781C49.1556 20.8111 49.0011 20.9276 48.8466 21.0273C48.8348 21.0273 48.7754 21.0606 48.7635 21.0772C48.7278 21.0939 48.6803 21.1105 48.6447 21.1438C48.5496 21.1936 48.4427 21.2269 48.3476 21.2602C48.2644 21.2934 48.1694 21.3101 48.0862 21.3433C48.0743 21.3433 48.0268 21.3599 48.003 21.3599C47.9911 21.3599 47.9674 21.3599 47.9674 21.3599C47.9436 21.3599 47.908 21.3599 47.8842 21.3766C47.6585 21.4098 47.4208 21.4098 47.1832 21.3932C46.6604 21.3766 46.1376 21.2768 45.6148 21.2435C45.0801 21.1936 44.5454 21.2269 44.0226 21.3599C43.5473 21.4764 43.0958 21.6926 42.6443 21.942C42.0502 22.258 41.4798 22.6239 40.8738 22.9232C40.3867 23.0064 39.9114 23.0895 39.4243 23.156C39.3054 23.1727 39.1985 23.2558 39.1391 23.4055C38.9846 23.4055 38.8301 23.4055 38.6757 23.3722C38.6757 23.3722 38.6638 23.3722 38.6519 23.3722C38.64 23.3722 38.6044 23.3556 38.6044 23.3556C38.545 23.339 38.4856 23.3223 38.4262 23.3057C38.3192 23.2724 38.2123 23.2392 38.1054 23.1893C38.0816 23.1727 38.0459 23.156 38.0222 23.1394C38.0103 23.1394 37.9984 23.1228 37.9984 23.1228C37.9509 23.0895 37.9034 23.0563 37.8439 23.023C37.737 22.9398 37.6301 22.8567 37.535 22.7569C37.2974 22.5241 36.9409 22.7735 36.8696 23.1394C36.8696 23.156 36.834 23.2891 36.834 23.3057C36.8102 23.3722 36.7865 23.4221 36.7627 23.4886C36.7508 23.5053 36.7389 23.5385 36.727 23.5552C36.727 23.5552 36.727 23.5552 36.7152 23.5718C36.6795 23.6217 36.6439 23.6716 36.6082 23.7215C36.5963 23.7381 36.5845 23.7547 36.5607 23.7714C36.5607 23.7714 36.5488 23.7714 36.525 23.8046C36.4775 23.8379 36.4419 23.8711 36.3943 23.9044C36.3825 23.9044 36.3349 23.9377 36.3231 23.9377C36.2755 23.9543 36.228 23.9709 36.1805 23.9876C36.1686 23.9876 36.0735 24.0042 36.0617 24.0042C36.0617 24.0042 35.9904 24.0042 35.9785 24.0042C35.931 23.9876 35.8834 23.9709 35.8359 23.9543C35.8121 23.9377 35.7884 23.9377 35.7527 23.921C35.7527 23.921 35.7408 23.921 35.7408 23.9044C35.7052 23.8711 35.6577 23.8545 35.622 23.8213C35.5983 23.8046 35.5745 23.7714 35.5507 23.7547C35.5507 23.7547 35.5388 23.7547 35.5388 23.7381C35.4913 23.6882 35.4557 23.6217 35.42 23.5718C35.42 23.5552 35.4081 23.5552 35.4081 23.5552C35.3963 23.5219 35.3725 23.4886 35.3606 23.4554C35.1943 23.0729 34.7665 23.023 34.5883 23.4055C34.5645 23.4055 34.5526 23.4055 34.5526 23.4055C34.5289 23.4055 34.517 23.3889 34.4932 23.3889C34.4695 23.3722 34.3744 23.3057 34.4695 23.3722C34.4338 23.339 34.4101 23.3223 34.3744 23.3057C34.3744 23.3057 34.2794 23.2059 34.3388 23.2724C33.9942 22.9066 33.6853 22.4908 33.2219 22.5074C32.9842 22.5241 32.7585 22.7902 32.7703 23.1394C32.7822 23.472 32.9723 23.788 33.2219 23.7714C33.2337 23.7714 33.2575 23.7714 33.2694 23.7714C33.2694 23.7714 33.2813 23.7714 33.305 23.788H33.3169C33.3169 23.788 33.3288 23.8046 33.3526 23.8046C33.4001 23.8379 33.4476 23.8878 33.4833 23.921C33.4951 23.9377 33.5427 23.9876 33.5427 23.9876C33.7328 24.2038 33.911 24.4033 34.1487 24.5364C34.3863 24.6694 34.6477 24.7027 34.8853 24.6029C35.2774 25.1018 35.8121 25.3346 36.3468 25.2016C36.7983 25.1018 37.1904 24.7027 37.4518 24.1871C38.141 24.686 38.9609 24.7858 39.7332 24.6361C40.3986 24.5031 41.0164 24.2204 41.6343 23.8878C41.8244 23.8878 42.0264 23.8711 42.2165 23.8545C42.6918 23.8379 43.1552 23.8213 43.5948 23.5219C43.7612 23.4055 43.9156 23.2724 44.0701 23.1394C44.2602 22.9731 44.3553 22.9066 44.5454 22.8234C44.6404 22.7902 44.7355 22.7569 44.8305 22.7236C44.8424 22.7236 44.8543 22.7236 44.8662 22.707C44.8781 22.707 44.89 22.707 44.9018 22.707C44.9494 22.707 44.9969 22.6904 45.0563 22.6904C45.2583 22.6738 45.4603 22.6904 45.6623 22.707C45.8643 22.7403 45.9356 22.7569 46.1613 22.8068C46.3871 22.8567 46.6128 22.9232 46.8386 22.9897C47.7297 23.2226 48.6803 23.3889 49.5358 22.8068C49.9279 22.5407 50.2844 22.0917 50.5101 21.5595C50.7834 21.044 50.8428 20.412 50.7359 19.7634Z" fill="#EAC271"/>
<path d="M21.2093 20.6442C21.1024 20.4114 20.9123 20.295 20.7103 20.3615C20.532 20.428 20.3657 20.6941 20.3894 20.9602C20.3894 21.0101 20.3894 21.06 20.3894 21.1265C20.3894 21.1598 20.3894 21.2097 20.3894 21.2097C20.3776 21.2429 20.3776 21.2596 20.4013 21.2097C20.3894 21.2263 20.3894 21.2596 20.3776 21.2762C20.3776 21.2762 20.3657 21.3095 20.3538 21.3261C20.3419 21.3427 20.3063 21.3926 20.2944 21.4092C20.2825 21.4259 20.2706 21.4259 20.2587 21.4425C20.2469 21.4591 20.1993 21.4924 20.1756 21.509C20.1637 21.509 20.1518 21.5257 20.1518 21.5257C20.128 21.5423 20.0924 21.5423 20.0686 21.5589C20.0568 21.5589 20.0449 21.5755 20.0449 21.5755C20.0449 21.5755 20.033 21.5755 20.0211 21.5755C19.9617 21.5755 19.9142 21.5755 19.8548 21.5755C19.7478 21.5755 19.7003 21.5589 19.5815 21.5257C19.3557 21.4591 19.1418 21.376 18.9161 21.3427C18.6903 21.2928 18.417 21.3261 18.215 21.2928C18.2269 21.2928 18.1675 21.2762 18.1438 21.2596C18.1556 21.2263 18.1794 21.1764 18.1913 21.1432C18.2388 21.0101 18.2982 20.8771 18.3101 20.7274C18.3695 20.3116 18.2388 19.9125 17.9893 19.6963C17.9536 19.663 17.9061 19.6298 17.8705 19.6132C17.8586 19.6132 17.8467 19.5965 17.8467 19.5965V19.5799C17.8467 19.5799 17.8586 19.5799 17.8467 19.5799C17.8467 19.5799 17.8467 19.5799 17.8467 19.5633C18.12 19.3637 18.2507 18.8481 17.9893 18.5322C17.3714 17.7505 16.5872 17.6341 15.8268 17.2516C15.7911 17.235 15.7436 17.2017 15.708 17.1851C15.6961 17.1685 15.6842 17.1685 15.6723 17.1685C15.6723 17.1685 15.6604 17.1685 15.6485 17.1518C15.5654 17.0853 15.4822 17.0354 15.399 16.9689C15.3515 16.9356 15.3158 16.8858 15.2683 16.8525C15.2446 16.8359 15.2446 16.8192 15.2446 16.8192C15.2446 16.8192 15.2327 16.8026 15.2208 16.786C15.1495 16.7028 15.0901 16.6197 15.0307 16.5199C14.8168 16.1873 14.6505 15.7216 14.6148 15.256C14.591 14.9899 14.4722 14.7737 14.2702 14.7737C14.0801 14.7737 13.9257 14.9899 13.9257 15.256C13.9257 16.5033 14.4485 17.684 15.2564 18.2328C15.6367 18.4823 16.0406 18.6486 16.4446 18.8149C16.5278 18.8481 16.611 18.898 16.6942 18.9313C16.7536 18.9646 16.8011 18.9812 16.8605 19.0145C16.8724 19.0145 16.8843 19.0311 16.8843 19.0311C16.8843 19.0311 16.8961 19.0477 16.908 19.0477C16.9437 19.0643 16.9674 19.0976 17.0031 19.1142C16.908 19.4635 16.908 19.8626 17.0387 20.2285C17.0981 20.4114 17.2051 20.5445 17.3239 20.6609L17.3358 20.6775C17.2645 20.8604 17.2051 21.0766 17.1932 21.2928C17.1813 21.7585 17.3952 22.1909 17.6804 22.4071C17.9774 22.6233 18.2863 22.59 18.619 22.6066C18.7497 22.6066 18.8091 22.6233 18.9517 22.6732C19.1062 22.7231 19.2488 22.7729 19.4032 22.8062C19.7122 22.8894 20.033 22.9392 20.3419 22.8228C20.936 22.5567 21.6252 21.5423 21.2093 20.6442Z" fill="#EAC271"/>
<path d="M37.4517 13.5932C37.3685 13.3271 37.1903 13.1774 36.9883 13.1608C36.7388 13.1441 36.4773 13.1774 36.2278 13.2439C36.2041 13.2439 36.1803 13.2439 36.1684 13.2439C36.1684 13.2439 36.1684 13.2439 36.1684 13.2273C36.2278 13.0444 36.2397 12.7783 36.1447 12.612C35.8476 12.0632 35.4199 11.7971 34.9327 11.8137C34.4693 11.8303 34.0653 12.0964 33.6494 12.3625C33.6257 12.3791 33.6019 12.3958 33.5782 12.4124C33.5782 12.4124 33.5544 12.429 33.5425 12.429C33.5306 12.429 33.5069 12.4457 33.5069 12.4457C33.4712 12.4623 33.4475 12.4789 33.4118 12.4956C33.3168 12.5454 33.2098 12.5953 33.1029 12.612C33.091 12.612 33.0316 12.612 33.0197 12.6286C32.9722 12.6286 32.9365 12.6286 32.889 12.6286C32.8771 12.6286 32.8415 12.612 32.8415 12.612C32.8177 12.612 32.7939 12.5953 32.7702 12.5953C32.7108 12.5787 32.6514 12.5621 32.5919 12.5288C32.3068 12.429 32.0335 12.3958 31.7483 12.4789C31.5226 12.5454 31.3206 12.6785 31.0948 12.7616C31.0592 12.7783 31.0117 12.7949 30.976 12.7949C30.9641 12.7949 30.9047 12.8115 30.8928 12.8115C30.8334 12.8115 30.7859 12.8115 30.7265 12.8115C30.7027 12.8115 30.6195 12.7949 30.6195 12.7949C30.5245 12.7783 30.4294 12.745 30.3344 12.6951C30.275 12.6785 30.2274 12.6452 30.168 12.612C30.168 12.612 30.1443 12.5953 30.1324 12.5953C30.1205 12.5787 30.0849 12.5621 30.073 12.5621C29.871 12.429 29.669 12.2627 29.4789 12.0798C29.3006 11.9135 29.1224 11.7139 28.9798 11.5643C28.9085 11.4811 28.8254 11.3979 28.7541 11.2982C28.7541 11.2982 28.7303 11.2649 28.7184 11.2483C28.7303 11.2316 28.7303 11.215 28.7303 11.215C28.7422 11.1984 28.7422 11.1818 28.7541 11.1818C28.9323 11.2982 29.1105 11.3314 29.3125 11.3314C29.3244 11.3314 29.3482 11.3314 29.3601 11.3314C29.3957 11.3314 29.4432 11.3148 29.4789 11.3148C29.7046 11.2649 29.8353 10.8824 29.8116 10.5997C29.7878 10.3003 29.5977 10.0342 29.3719 10.0342C29.3719 10.0342 29.3719 10.0342 29.3719 10.0176C29.3719 10.001 29.3601 9.98436 29.3601 9.96773C29.3601 9.9511 29.3482 9.91784 29.3482 9.91784C29.3363 9.86794 29.3363 9.81805 29.3244 9.78479C29.3006 9.63512 29.3006 9.53534 29.2769 9.3524C29.2531 9.16947 29.2175 9.00316 29.1581 8.83686C29.0392 8.45436 28.7897 8.15501 28.5164 7.9887C28.255 7.8224 27.9699 7.72262 27.6847 7.67272C27.6015 7.65609 27.5065 7.63946 27.4233 7.62283C27.3877 7.62283 27.352 7.6062 27.3164 7.6062C27.3045 7.6062 27.2807 7.6062 27.2688 7.58957C27.1381 7.55631 27.0074 7.53968 26.8886 7.48979C26.8292 7.47316 26.7817 7.4399 26.7223 7.42327C26.6985 7.39001 26.6747 7.35675 26.651 7.32348C26.6391 7.30685 26.6391 7.30685 26.6272 7.29022C26.6272 7.27359 26.6153 7.27359 26.6153 7.25696C26.5916 7.20707 26.5678 7.15718 26.544 7.10729C26.5203 7.0574 26.4965 7.00751 26.4846 6.94098C26.4846 6.92435 26.4727 6.92435 26.4727 6.92435C26.4727 6.92435 26.4727 6.92435 26.4727 6.90772C26.4727 6.90772 26.4727 6.89109 26.4609 6.85783C26.3896 6.54185 26.1519 6.32566 25.9024 6.42544C25.6766 6.50859 25.5222 6.87446 25.5935 7.20707C25.6529 7.47316 25.7361 7.70599 25.843 7.93881C26.1638 8.77033 26.6272 9.46881 27.2451 9.93447C27.4114 10.0675 27.5896 10.1507 27.756 10.2671C27.8273 10.317 27.8986 10.3835 27.958 10.4334C27.9699 10.45 27.9936 10.4833 28.0055 10.4999L27.9936 10.5165C27.958 10.5831 27.9105 10.6496 27.8867 10.7327C27.7441 11.1152 27.7798 11.5643 27.958 11.9135C28.1006 12.1962 28.2907 12.3958 28.4808 12.612C28.6828 12.8282 28.8848 13.0444 29.0868 13.2439C29.467 13.6098 29.9066 13.9258 30.37 14.0422C30.6077 14.1087 30.8453 14.1253 31.0948 14.0921C31.3562 14.0422 31.582 13.9258 31.8315 13.826C31.879 13.8094 31.9266 13.7927 31.9741 13.7761C31.9979 13.7761 32.0216 13.7595 32.0335 13.7595C32.0454 13.7595 32.0573 13.7595 32.0691 13.7595C32.081 13.7595 32.1642 13.7595 32.1642 13.7595C32.2236 13.7761 32.2949 13.7927 32.3543 13.8094C32.5919 13.8925 32.8415 13.9757 33.091 13.959C33.3762 13.9424 33.6494 13.826 33.9108 13.6763C34.0534 13.5932 34.196 13.51 34.3267 13.4269C34.3505 13.4102 34.3742 13.3936 34.398 13.377C34.398 13.377 34.398 13.377 34.4099 13.377C34.4099 13.377 34.4218 13.377 34.4218 13.3603C34.4812 13.3271 34.5287 13.2938 34.5881 13.2772C34.6713 13.2439 34.7545 13.2107 34.8495 13.194C34.8614 13.194 34.9089 13.1774 34.9446 13.1774C34.9327 13.2273 34.9208 13.2938 34.9089 13.3603C34.8614 13.6264 34.8614 13.9091 34.9089 14.1752C34.802 14.5577 35.0278 14.9901 35.3129 15.0234C35.9664 15.6886 36.8338 15.0068 37.3685 14.3415C37.4992 14.1752 37.5348 13.826 37.4517 13.5932Z" fill="#EAC271"/>
<path d="M35.717 16.9359C35.6932 16.5867 35.5031 16.2375 35.2298 16.2541C35.0635 16.2707 34.909 16.3871 34.8258 16.5534C34.7902 16.5534 34.7664 16.5368 34.7546 16.5368C34.6951 16.5368 34.6357 16.5202 34.5763 16.5202C34.303 16.4869 34.0298 16.4703 33.7565 16.437C33.198 16.3871 32.6396 16.304 32.0811 16.2375C30.9761 16.1044 29.8711 15.988 28.7661 15.855C28.7304 15.855 28.7067 15.855 28.671 15.855C28.5403 15.8217 28.4215 15.7884 28.2908 15.7718C28.1839 15.7552 28.065 15.7552 27.9343 15.7385C27.9819 15.6388 28.0175 15.539 28.0413 15.4226C28.172 14.7075 27.7442 13.8926 27.364 13.4934C26.9244 13.0111 26.3659 12.8116 25.8194 12.9446C25.5104 13.0278 25.5698 13.7761 25.8906 13.7263C26.2709 13.6597 26.6273 13.826 26.9006 14.1753C26.9719 14.2584 27.0313 14.3582 27.0788 14.4414C27.1026 14.4913 27.1264 14.5578 27.1501 14.6077C27.162 14.6409 27.1739 14.6576 27.1739 14.6908C27.1977 14.7573 27.1858 14.7241 27.1977 14.7573C27.2095 14.8239 27.2214 14.8904 27.2333 14.9569C27.2452 14.9902 27.2333 15.0068 27.2333 15.0234C27.2095 15.0234 27.1977 15.0401 27.1739 15.0401C27.162 15.0401 27.1501 15.0401 27.1382 15.0401C27.0788 15.0401 27.0075 15.0567 26.9481 15.0567C26.8056 15.0567 26.663 15.0733 26.5204 15.0733C26.2352 15.0733 25.9619 15.0567 25.6768 15.09C25.1658 15.1398 24.643 15.2895 24.2272 15.7053C23.7638 16.1709 23.4192 16.8528 23.4311 17.6843C23.443 18.1666 23.8232 18.5158 24.1202 18.2497C24.6074 17.8174 25.0946 17.3683 25.6055 16.9692C25.8431 16.7863 26.0095 16.6698 26.259 16.5701C26.3184 16.5534 26.3778 16.5202 26.4372 16.5202C26.4491 16.5202 26.5323 16.5035 26.5323 16.5035C26.556 16.5035 26.5798 16.5035 26.6036 16.5035C26.4966 16.8029 26.4847 17.1521 26.6036 17.518C26.7818 18.0169 27.1739 18.3495 27.566 18.3828C27.768 18.3994 27.9819 18.3329 28.172 18.283C28.2195 18.2664 28.2551 18.2664 28.3027 18.2497C28.3264 18.2497 28.3383 18.2331 28.3502 18.2331C28.3621 18.2331 28.374 18.2331 28.3858 18.2331C28.4334 18.2331 28.4809 18.2331 28.5403 18.2331C28.5522 18.2331 28.576 18.2331 28.5878 18.2331C28.5522 18.2331 28.5522 18.2331 28.5997 18.2497C28.6116 18.2497 28.6829 18.2996 28.6829 18.2996C28.7067 18.3163 28.7304 18.3329 28.7661 18.3662C28.7898 18.3828 28.8136 18.4161 28.8374 18.4327C28.8374 18.4327 28.8968 18.4992 28.9087 18.4992C29.0631 18.6655 29.2057 18.8484 29.372 18.9815C29.6691 19.2309 30.0374 19.2975 30.3701 19.1312C30.7741 18.9316 31.0712 18.4327 30.988 17.8007C30.9761 17.6843 30.9523 17.5845 30.9167 17.4847C31.4276 17.5513 31.9267 17.6012 32.4376 17.6677C33.0436 17.7342 33.6495 17.8174 34.2555 17.8839C34.5407 17.9171 34.8377 18.0003 35.1229 17.9171C35.4556 17.8174 35.7526 17.4182 35.717 16.9359Z" fill="#EAC271"/>
<path d="M44.1414 19.1476C43.9632 18.948 43.6661 18.948 43.5116 19.1975C43.4998 19.2307 43.476 19.2473 43.4641 19.2806C43.4285 19.1309 43.3572 18.9979 43.2621 18.9314C43.2027 18.8815 43.1433 18.8648 43.0839 18.8482C43.0482 18.6154 42.9175 18.3992 42.7512 18.316C42.4898 18.1996 42.2284 18.2329 41.9908 18.3493C41.9789 18.3493 41.9789 18.3327 41.967 18.3327C41.8006 18.1664 41.6105 18.0666 41.4204 18.0333C41.3729 17.7672 41.266 17.5178 41.0758 17.3515C40.6362 16.969 40.0778 17.285 39.6738 17.5843C39.2935 17.867 38.9133 18.316 38.6876 18.8316C38.4024 19.4802 38.4618 20.3782 39.0321 20.6609C39.2817 20.7773 39.5906 20.7108 39.852 20.6609C39.8876 20.6443 39.9352 20.6443 39.9708 20.6277C40.0896 20.6609 40.2085 20.6443 40.3154 20.611C40.5887 20.6443 40.862 20.6277 41.1353 20.5778C41.2778 20.5445 41.4085 20.5113 41.5392 20.4614C41.8006 20.7607 42.1927 20.794 42.5254 20.6942C42.5849 20.6776 42.6324 20.6609 42.6918 20.6277C42.87 20.7275 43.072 20.7774 43.2621 20.7607C43.2978 20.8272 43.3453 20.8938 43.4166 20.9437C43.6186 21.0933 43.975 21.0434 44.082 20.6942C44.1533 20.4614 44.2246 20.2285 44.2959 20.0123C44.3553 19.6964 44.3434 19.3638 44.1414 19.1476Z" fill="#EAC271"/>
<path d="M27.3165 23.4055C27.3403 23.2059 27.3046 23.0063 27.2214 22.8567C27.0789 22.5906 26.7818 22.4742 26.5679 22.6737C26.5679 22.6737 26.556 22.6737 26.556 22.6904C26.4848 22.3744 26.259 22.1415 25.962 22.2247C25.8075 22.258 25.653 22.3245 25.5104 22.4243C25.249 21.6925 24.4648 21.8588 24.0014 22.0584C23.9539 22.075 23.9064 22.1083 23.8588 22.1249C23.7994 22.0251 23.7163 21.942 23.5974 21.942C23.0865 21.942 22.5637 21.9752 22.0884 22.258C21.8508 22.4076 21.625 22.6238 21.4943 22.9398C21.3518 23.3223 21.4112 23.788 21.625 24.0873C21.8983 24.4698 22.3142 24.5862 22.7182 24.6361C22.9202 24.9687 23.2648 25.0186 23.5618 25.0519C23.8707 25.1018 24.1915 25.0685 24.5005 24.9854C24.5836 25.0851 24.7025 25.1517 24.8094 25.1517C25.2966 25.1517 25.7718 25.002 26.1996 24.7193C26.4016 25.002 26.6986 25.0851 26.9719 24.9188C27.2333 24.7692 27.3759 24.4033 27.4234 24.0374C27.4472 23.788 27.4234 23.5551 27.3165 23.4055ZM22.3023 23.3223C22.2904 23.3223 22.2904 23.3057 22.2786 23.3057C22.3261 23.2558 22.4211 23.1726 22.4924 23.1227C22.6231 23.0396 22.7538 22.9897 22.8964 22.9564C22.8251 23.0729 22.7538 23.1726 22.6944 23.3057C22.6707 23.3389 22.6588 23.3888 22.6469 23.4387C22.5518 23.4221 22.4687 23.4055 22.3736 23.3722C22.3498 23.3389 22.3261 23.3389 22.3023 23.3223Z" fill="#EAC271"/>
<path d="M18.6069 20.3284C18.5237 20.0789 18.298 19.8627 18.096 19.9791C18.0247 20.0124 17.9534 20.0456 17.8821 20.0623C17.8702 20.0623 17.8346 20.0789 17.8227 20.0789C17.7752 20.0789 17.7276 20.0789 17.6682 20.0789C17.6564 20.0789 17.6564 20.0789 17.6564 20.0789H17.6445C17.6088 20.0623 17.5732 20.0623 17.5375 20.0456C17.49 20.029 17.4425 20.0124 17.395 19.9957C17.3831 19.9957 17.3593 19.9791 17.3474 19.9625C17.2761 19.9126 17.2167 19.8627 17.1573 19.8128C17.1454 19.8128 17.1454 19.7962 17.1335 19.7962C17.1335 19.7962 17.1217 19.7795 17.1098 19.7795C17.086 19.7463 17.0504 19.713 17.0266 19.6798C17.0266 19.6631 16.9791 19.6132 16.9672 19.58C16.9553 19.5467 16.9197 19.4802 16.9197 19.4802C16.9078 19.4469 16.8959 19.4137 16.884 19.3804C16.8959 19.4137 16.8603 19.264 16.8484 19.2474C16.7652 18.8316 16.3137 18.5822 16.0998 18.9647C16.0642 19.0145 16.0404 19.0644 16.0048 19.1143C15.9929 19.131 15.9929 19.131 15.981 19.1476C15.981 19.1476 15.9691 19.1642 15.9454 19.1808C15.9216 19.1975 15.8859 19.2307 15.8622 19.2474C15.8503 19.2474 15.7909 19.2806 15.7909 19.2806C15.779 19.2806 15.7196 19.2973 15.7196 19.2973C15.684 19.2973 15.6483 19.2973 15.6008 19.2973C15.5889 19.2973 15.577 19.2973 15.5651 19.2973C15.5533 19.2973 15.5533 19.2973 15.5295 19.2973C15.4938 19.2806 15.4701 19.2806 15.4344 19.264C15.4226 19.2474 15.375 19.2141 15.3631 19.2141C15.3513 19.1975 15.3394 19.1975 15.3394 19.1975C15.3394 19.1975 15.3275 19.1808 15.3275 19.1642C15.3037 19.131 15.2918 19.1143 15.2681 19.0811C15.2562 19.0644 15.2443 19.0478 15.2443 19.0478C15.2443 19.0478 15.2443 19.0312 15.2324 19.0312C15.2206 18.9979 15.2087 18.9647 15.1849 18.9314C15.173 18.9148 15.1611 18.8316 15.1493 18.8316C15.1374 18.7817 15.1255 18.7485 15.1255 18.6986C15.1255 18.6819 15.1255 18.6653 15.1136 18.6653C15.1136 18.6653 15.1136 18.6487 15.1136 18.632C15.1136 18.5988 15.1255 18.3826 15.1136 18.499C15.1374 18.2495 15.1136 18.0333 14.9592 17.867C14.8285 17.734 14.6265 17.6841 14.4839 17.8171C14.3651 17.9169 14.2581 18.0333 14.1393 18.1165C13.9135 17.4845 13.3432 17.285 12.9036 17.6508C12.6778 17.8338 12.4758 18.1996 12.4758 18.5822C12.4758 18.7485 12.5352 18.8981 12.6184 19.0312C12.7491 19.6132 13.165 19.9791 13.6165 19.8461C13.7947 19.7962 13.9373 19.6465 14.0442 19.4636C14.1512 19.4137 14.2581 19.3638 14.3651 19.2973C14.4839 19.7463 14.7096 20.1288 15.0304 20.345C15.4107 20.5944 15.8622 20.5944 16.2424 20.3616C16.4088 20.6942 16.6464 20.9603 16.9078 21.1266C17.4068 21.4592 17.9296 21.4592 18.4287 21.1432C18.6188 20.9603 18.6901 20.5778 18.6069 20.3284Z" fill="#EAC271"/>
<path d="M57.9957 22.0915C58.1026 21.5926 58.0788 21.0604 57.8531 20.5947C57.4253 19.7466 56.5104 19.4638 55.8688 19.9461C55.7619 20.0293 55.6906 20.179 55.6787 20.3453C55.5124 20.445 55.3579 20.6114 55.2391 20.8442C55.1203 21.0936 55.0727 21.393 55.0965 21.6757C55.0014 21.8919 54.942 22.1414 54.942 22.3908C54.8232 22.3742 54.7163 22.3576 54.5975 22.3409C54.4192 22.3077 54.2529 22.4074 54.1935 22.6569C54.1459 22.8897 54.2529 23.1558 54.4192 23.2223C54.7638 23.3388 55.1203 23.4053 55.4648 23.4552C55.6668 23.5716 55.9045 23.6215 56.1183 23.6381C56.4986 23.688 56.8788 23.6048 57.2234 23.372C57.3778 23.2722 57.5085 23.1226 57.6273 22.9563C57.8174 22.7401 57.9481 22.4407 57.9957 22.0915Z" fill="#EAC271"/>
<path d="M14.4721 23.3054C14.4008 23.2721 14.3414 23.2555 14.2701 23.2222C14.2463 23.2056 14.2107 23.189 14.1869 23.189C14.175 23.189 14.175 23.189 14.175 23.189C14.175 23.189 14.175 23.189 14.1632 23.189C14.1394 23.1557 14.1037 23.1391 14.0681 23.1225C14.0562 23.1058 14.0443 23.1058 14.0443 23.1058C13.9968 23.0559 13.9612 22.9894 13.9255 22.9395C13.9255 22.9395 13.9255 22.9395 13.9136 22.9229C13.9136 22.9229 13.9136 22.9063 13.9018 22.9063C13.8899 22.8564 13.8661 22.8231 13.8542 22.7732C13.8067 22.6734 13.7592 22.5737 13.6998 22.4905C13.4859 22.2244 13.1888 22.2244 12.9512 22.4406C12.9274 22.4572 12.9037 22.4905 12.8799 22.5071C12.868 22.5238 12.8324 22.5404 12.8205 22.5404C12.7967 22.557 12.773 22.557 12.7611 22.5737C12.7492 22.5737 12.7492 22.5737 12.7373 22.5737H12.7254C12.6898 22.5737 12.6541 22.5737 12.6185 22.5737H12.6066C12.6066 22.5737 12.5591 22.557 12.5353 22.5404C12.5234 22.5238 12.4759 22.4905 12.464 22.4905C12.4522 22.4905 12.4522 22.4739 12.4403 22.4739C12.4165 22.4406 12.3927 22.4074 12.369 22.3741C12.3571 22.3575 12.3571 22.3575 12.3571 22.3575C12.3571 22.3575 12.3571 22.3408 12.3452 22.3242C12.3333 22.2909 12.3215 22.2577 12.2977 22.2244C12.2977 22.2078 12.2858 22.2078 12.2858 22.2078V22.1912C12.2739 22.1413 12.2739 22.108 12.262 22.0581V22.0415C12.262 21.975 12.262 21.9251 12.262 21.8585C12.2858 21.5259 12.0363 21.2432 11.8224 21.2432C11.7511 21.2432 11.6798 21.2432 11.6085 21.2266C11.5967 21.2266 11.5848 21.2266 11.5729 21.21C11.5372 21.1933 11.5016 21.1933 11.4659 21.1767C11.3947 21.1601 11.3352 21.1268 11.264 21.0935C11.2521 21.0935 11.2045 21.0603 11.1808 21.0603C11.1689 21.0437 11.1095 21.0104 11.1095 21.0104C11.0501 20.9605 10.9907 20.9272 10.9313 20.8774C10.8956 20.8441 10.8719 20.8108 10.8362 20.7942C10.8362 20.7942 10.8124 20.7609 10.8006 20.7609C10.6817 20.6279 10.5748 20.4782 10.4797 20.3119C10.3015 20.0126 9.95694 20.129 9.82624 20.4283C9.7193 20.6778 9.60048 20.894 9.44601 21.027C9.43413 21.027 9.42225 21.0437 9.42225 21.0437C9.39849 21.0603 9.37472 21.0603 9.35096 21.0769C9.33908 21.0769 9.33908 21.0769 9.3272 21.0769C9.30343 21.0769 9.27967 21.0769 9.2559 21.0769C9.24402 21.0769 9.24402 21.0769 9.23214 21.0769C9.23214 21.0769 9.22026 21.0769 9.19649 21.0603C9.17273 21.0437 9.17273 21.0437 9.16085 21.0437C9.14897 21.027 9.13708 21.027 9.11332 21.0104C9.1252 21.0104 9.08956 20.9605 9.07767 20.9272C9.08956 20.9605 9.06579 20.8275 9.06579 20.8275C9.06579 20.7776 9.07767 20.6445 9.10144 20.5447C9.18461 20.2454 9.39849 20.0292 9.56483 19.8296C9.82624 19.5137 9.48166 18.8651 9.19649 19.1478C8.87568 19.4638 8.56675 19.813 8.42417 20.3452C8.29346 20.8441 8.35287 21.4428 8.63804 21.8087C8.91133 22.1579 9.32719 22.2577 9.67177 22.0747C9.88565 21.975 10.0639 21.792 10.2183 21.5592C10.551 21.9583 10.955 22.241 11.3828 22.3741C11.4541 22.873 11.6798 23.322 12.0006 23.5881C12.2145 23.771 12.4759 23.8708 12.7254 23.8542C12.8561 23.8376 12.9868 23.8209 13.1175 23.7544C13.1294 23.7544 13.1532 23.7378 13.1651 23.7378C13.177 23.771 13.1888 23.7877 13.2126 23.8209C13.3077 23.9872 13.4146 24.1203 13.5453 24.2367C13.8186 24.5028 14.1394 24.6192 14.4602 24.536C14.6384 24.4862 14.7929 24.1868 14.7929 23.9374C14.7929 23.6214 14.6622 23.4052 14.4721 23.3054Z" fill="#EAC271"/>
<path d="M48.8229 26.6482C48.5971 26.6649 48.4189 26.7646 48.205 26.8644C48.003 26.9476 47.801 27.0141 47.599 27.064C47.2901 27.1472 46.898 27.1804 46.5296 27.1638C46.1494 27.1472 45.8405 27.0806 45.4603 26.9476C45.0682 26.8145 44.6998 26.5983 44.3315 26.4154C43.5116 26.0163 42.6205 26.2657 41.7768 26.3655C40.8857 26.4653 40.0064 26.5817 39.1153 26.6981C38.1291 26.8145 37.1429 26.9642 36.1685 27.064C35.8596 27.0973 35.8477 27.7791 36.1685 27.7459C37.9627 27.5629 39.745 27.4631 41.5392 27.3135C41.967 27.2802 42.3947 27.2303 42.8343 27.197C43.2502 27.1638 43.6542 27.1638 44.0582 27.38C44.4265 27.5795 44.7711 27.8456 45.1513 28.0119C45.5553 28.1949 45.9593 28.2947 46.3871 28.3446C46.8386 28.4111 47.302 28.3778 47.7535 28.2947C48.2169 28.1949 48.7635 28.0785 49.1318 27.6461C49.4051 27.3467 49.1674 26.6316 48.8229 26.6482Z" fill="#EAC271"/>
<path d="M24.3342 7.62303C23.8708 7.6064 23.3005 7.75608 23.0866 8.40467C22.9915 8.68738 23.0391 9.00336 23.2292 9.16967C23.2529 9.1863 23.2767 9.20293 23.2886 9.21956C23.3005 9.43575 23.4074 9.63532 23.55 9.7351C23.752 9.88478 24.0253 9.91804 24.2391 9.88478C24.4887 9.85152 24.7382 9.7351 24.9521 9.53554C25.1897 9.31934 25.4036 9.00336 25.3917 8.57097C25.3679 7.83923 24.7857 7.63967 24.3342 7.62303Z" fill="#EAC271"/>
<path d="M28.0655 25.2012C27.9823 25.1845 27.9109 25.1679 27.8277 25.1513C27.7682 25.1347 27.6969 25.2012 27.6612 25.2511C27.6255 25.301 27.5898 25.4007 27.5898 25.4839C27.5898 25.6336 27.6969 25.8331 27.8158 25.7999C27.899 25.7832 27.9704 25.7666 28.0536 25.75C28.1607 25.7333 28.2558 25.6336 28.2558 25.4673C28.2558 25.301 28.1726 25.2178 28.0655 25.2012Z" fill="#F9DC96"/>
<path d="M31.9744 25.7998C31.5225 25.7998 31.5225 26.7976 31.9744 26.7976C32.4263 26.7976 32.4382 25.7998 31.9744 25.7998Z" fill="#F9DC96"/>
<path d="M34.3509 26.6316C33.899 26.6316 33.899 27.6294 34.3509 27.6294C34.8028 27.6294 34.8028 26.6316 34.3509 26.6316Z" fill="#F9DC96"/>
<path d="M30.0137 28.0788C29.7048 27.7961 29.2533 27.7961 28.8968 27.7296C28.6711 27.6963 28.481 28.0289 28.481 28.3117C28.481 28.6609 28.6711 28.8605 28.8968 28.8937C29.2295 28.9436 29.6097 29.0933 29.9305 28.927C30.2157 28.8106 30.2632 28.3117 30.0137 28.0788Z" fill="#F9DC96"/>
<path d="M24.3934 26.7978C24.334 26.7312 24.2865 26.6647 24.2271 26.6148C24.1914 26.5816 24.1439 26.5483 24.0964 26.5317C24.0013 26.4652 23.9063 26.4319 23.7993 26.4818C23.7043 26.515 23.6092 26.6148 23.5736 26.7312C23.526 26.8643 23.5023 27.014 23.5379 27.147C23.5736 27.28 23.6211 27.4131 23.7161 27.463C23.7756 27.4962 23.8231 27.5461 23.8825 27.5794C23.9419 27.6127 24.0013 27.6293 24.0488 27.6459C24.1914 27.6958 24.3815 27.6127 24.4528 27.4131C24.4766 27.3299 24.5003 27.2468 24.5003 27.1636C24.5122 27.0306 24.4647 26.8643 24.3934 26.7978Z" fill="#F9DC96"/>
<path d="M18.5832 25.4011H18.3455C18.2386 25.4011 18.1316 25.4676 18.0603 25.5674C17.9891 25.6672 17.9415 25.8169 17.9415 25.9666C17.9534 26.2659 18.1198 26.532 18.3455 26.532H18.5832C18.6901 26.532 18.797 26.4655 18.8683 26.3657C18.9396 26.2659 18.9871 26.1162 18.9871 25.9666C18.9753 25.6672 18.8089 25.4011 18.5832 25.4011Z" fill="#F9DC96"/>
<path d="M17.3832 25.3012C16.8366 25.3178 16.4801 25.1848 16.0643 24.6692C15.9217 24.4863 15.7553 24.5196 15.6127 24.6692C15.3276 24.9852 14.9592 24.9353 14.6622 24.7025C14.3533 24.4697 14.0918 25.1016 14.3889 25.3511C14.8285 25.7336 15.2919 25.7668 15.7316 25.534C16.1593 26.2325 16.8366 26.5651 17.4901 26.3822C17.9297 26.2658 17.8228 25.2846 17.3832 25.3012Z" fill="#FFC136"/>
<path d="M27.5423 21.7421C27.4354 21.6257 27.3285 21.5591 27.1978 21.5758C27.0908 21.5758 26.972 21.6423 26.8888 21.7421C26.7819 21.8918 26.7581 22.0747 26.7938 22.2743C26.8413 22.5237 27.0195 22.6401 27.1859 22.5902C27.1859 22.5902 27.1859 22.5902 27.1978 22.5902H27.1859C27.2096 22.6734 27.2453 22.7565 27.3047 22.8064C27.4592 22.9228 27.6017 22.8397 27.6968 22.6568C27.8513 22.3574 27.7206 21.9416 27.5423 21.7421Z" fill="#FFC136"/>
<path d="M27.1738 22.5903C27.1268 22.5903 27.068 22.6231 27.1738 22.5903C27.1855 22.5903 27.1855 22.5903 27.1738 22.5903Z" fill="#FFC136"/>
<path d="M24.9876 19.614H24.5123C24.3104 19.614 24.1202 19.8635 24.1202 20.1628C24.1321 20.4622 24.2866 20.7116 24.5123 20.7116H24.9876C25.1896 20.7116 25.3797 20.4622 25.3797 20.1628C25.356 19.8635 25.2015 19.614 24.9876 19.614Z" fill="#FFC136"/>
<path d="M17.3952 23.2393C16.8605 23.2393 16.8605 24.3868 17.3952 24.3868C17.9298 24.3868 17.9298 23.2393 17.3952 23.2393Z" fill="#FFC136"/>
<path d="M14.9119 22.5569C14.5194 22.5569 14.5194 23.405 14.9119 23.405C15.2924 23.405 15.2924 22.5569 14.9119 22.5569Z" fill="#FFC136"/>
<path d="M10.8721 19.9961C10.4083 19.9961 10.4083 20.9939 10.8721 20.9939C11.3359 20.9939 11.3359 19.9961 10.8721 19.9961Z" fill="#FFC136"/>
<path d="M10.171 20.0125C9.88555 20.0125 9.88555 20.6444 10.171 20.6444C10.4564 20.6444 10.4564 20.0125 10.171 20.0125Z" fill="#FFC136"/>
<path d="M29.2535 27.5129C29.158 27.5129 29.158 27.7291 29.2535 27.7291C29.3489 27.7291 29.3489 27.5129 29.2535 27.5129Z" fill="#FFC136"/>
<path d="M31.9148 25.7334C31.8197 25.5172 31.6177 25.4174 31.4514 25.5671C31.3326 25.6669 31.2137 25.7833 31.083 25.883C30.9286 26.0161 30.8573 26.3321 30.9523 26.5483C31.0474 26.7478 31.2732 26.8809 31.4276 26.7312C31.5464 26.6148 31.6653 26.4984 31.7722 26.382C31.9385 26.2323 32.0217 25.9496 31.9148 25.7334Z" fill="#FFC136"/>
<path d="M32.8062 22.1582C32.3543 22.1582 32.3543 23.156 32.8062 23.156C33.2581 23.1394 33.2581 22.1582 32.8062 22.1582Z" fill="#FFC136"/>
<path d="M30.6196 22.1916C30.5364 22.1251 30.4295 22.0918 30.3345 22.1417C30.2513 22.175 30.1443 22.2581 30.1087 22.3912C30.073 22.5076 30.0374 22.624 30.0018 22.7404C29.9661 22.8734 29.9423 22.9899 29.9661 23.1229C29.9899 23.2393 30.0493 23.3724 30.1325 23.4222C30.2988 23.5553 30.5246 23.4888 30.6196 23.2393C30.6671 23.1395 30.7028 23.0231 30.7503 22.9233C30.8573 22.6739 30.8097 22.3246 30.6196 22.1916Z" fill="#FFC136"/>
<path d="M30.3229 25.2178C29.9423 25.2178 29.9423 26.0493 30.3229 26.0493C30.7034 26.0493 30.7034 25.2178 30.3229 25.2178Z" fill="#FFC136"/>
<path d="M38.5451 26.8144C38.4738 26.4817 38.2481 26.3487 38.0223 26.3986C37.7847 26.4485 37.547 26.4984 37.3094 26.5483C37.0836 26.5982 36.9529 26.9973 37.0124 27.2966C37.0836 27.6292 37.3094 27.7789 37.547 27.7124L38.26 27.5295C38.4738 27.4796 38.6045 27.0971 38.5451 26.8144Z" fill="#FFC136"/>
<path d="M40.9806 25.5675L40.6242 25.3845C40.5291 25.3346 40.3746 25.3679 40.2915 25.451C40.1964 25.5176 40.1132 25.6672 40.0895 25.8169C40.0419 26.1495 40.1608 26.4655 40.3865 26.5653C40.5053 26.6152 40.6242 26.6651 40.743 26.715C40.9569 26.7981 41.2064 26.6152 41.2658 26.2992C41.3252 25.95 41.1945 25.6839 40.9806 25.5675Z" fill="#FFC136"/>
<path d="M45.4841 24.9853C45.4722 24.9022 45.4366 24.819 45.4009 24.7525C45.3653 24.686 45.3178 24.6194 45.2583 24.5696C45.187 24.503 45.1039 24.4698 45.0088 24.4698C44.9256 24.4531 44.8068 24.503 44.7355 24.5696C44.7118 24.5862 44.6524 24.6527 44.6286 24.686C44.5573 24.7858 44.5573 24.819 44.5216 24.9188C44.5098 24.9521 44.4979 24.9853 44.4979 25.0186C44.4979 25.0518 44.486 25.1683 44.4741 25.2015C44.4741 25.2015 44.4741 25.2015 44.4741 25.2182C44.4741 25.2182 44.4741 25.2182 44.4741 25.2348C44.4741 25.3013 44.486 25.3512 44.486 25.4177C44.4979 25.4842 44.5216 25.5341 44.5335 25.6007C44.5692 25.6838 44.6048 25.7503 44.6524 25.7836C44.6999 25.8501 44.7593 25.8834 44.8187 25.9C44.8662 25.9 44.9019 25.9166 44.9494 25.9166C45.0207 25.9166 45.0801 25.9 45.1395 25.8501C45.1752 25.8335 45.2108 25.8002 45.2465 25.767C45.294 25.7171 45.3415 25.6505 45.3653 25.584C45.3653 25.5674 45.3772 25.5674 45.3772 25.5508C45.389 25.5341 45.4009 25.5175 45.4128 25.4842C45.4485 25.4011 45.4722 25.3179 45.4722 25.2348C45.5079 25.1683 45.5079 25.0685 45.4841 24.9853Z" fill="#FFC136"/>
<path d="M45.8406 24.3364C45.4125 24.3364 45.4006 25.2844 45.8406 25.2844C46.2806 25.2844 46.2806 24.3364 45.8406 24.3364Z" fill="#FFC136"/>
<path d="M49.3694 23.4385C49.3694 23.3554 49.3457 23.2722 49.31 23.1891C49.2625 23.0893 49.215 23.0061 49.1437 22.9563C49.1199 22.9396 49.0486 22.8897 49.0249 22.8897C49.0249 22.8897 49.0249 22.8897 49.013 22.8897C48.9773 22.8731 48.9298 22.8565 48.8823 22.8731C48.8704 22.8731 48.7635 22.8897 48.7516 22.8897C48.7516 22.8897 48.6447 22.9563 48.6328 22.9563L48.5377 23.056L48.4664 23.1891C48.4664 23.2057 48.4545 23.239 48.4427 23.2722C48.4308 23.3055 48.4189 23.3554 48.4189 23.3554C48.407 23.4219 48.3951 23.5051 48.3951 23.5716C48.3951 23.6381 48.407 23.7046 48.4189 23.7545V23.7711C48.4189 23.7878 48.4664 23.9208 48.4664 23.9374C48.4664 23.9541 48.5377 24.0705 48.5377 24.0705C48.5734 24.1037 48.5971 24.137 48.6328 24.1703C48.6684 24.2035 48.7041 24.2202 48.7397 24.2368C48.7516 24.2368 48.7516 24.2534 48.7635 24.2534C48.7753 24.2534 48.8348 24.27 48.8348 24.27C48.8585 24.27 48.8704 24.2867 48.8823 24.2867C48.9179 24.2867 48.9655 24.2867 49.0011 24.27C49.013 24.27 49.0843 24.2202 49.108 24.2035C49.1437 24.1869 49.1674 24.137 49.1912 24.1037C49.215 24.0705 49.2387 24.0206 49.2625 23.9707C49.2625 23.9541 49.2744 23.9541 49.2744 23.9374C49.31 23.8709 49.3457 23.8044 49.3575 23.7212C49.3813 23.6048 49.3813 23.5217 49.3694 23.4385Z" fill="#FFC136"/>
<path d="M51.4131 24.6689C51.3537 24.4028 51.1635 24.2532 50.9734 24.3197C50.819 24.3696 50.6526 24.4195 50.4982 24.4527C50.308 24.5026 50.1773 24.8519 50.2368 25.1013C50.2962 25.3674 50.4982 25.5503 50.7002 25.4672C50.8546 25.4007 51.0091 25.3341 51.1635 25.2676C51.3418 25.2177 51.4725 24.935 51.4131 24.6689Z" fill="#FFC136"/>
<path d="M52.6013 19.5969C52.0904 19.5969 52.0785 20.7278 52.6013 20.7278C53.1122 20.7278 53.1241 19.5969 52.6013 19.5969Z" fill="#FFC136"/>
<path d="M52.1263 15.6887C51.6744 15.6887 51.6744 16.6865 52.1263 16.6865C52.5782 16.6699 52.5901 15.6887 52.1263 15.6887Z" fill="#FFC136"/>
<path d="M51.2946 14.5413C50.8546 14.5413 50.8546 15.5058 51.2946 15.5058C51.7346 15.4892 51.7346 14.5413 51.2946 14.5413Z" fill="#FFC136"/>
<path d="M33.0439 19.3306C32.592 19.3306 32.592 20.3284 33.0439 20.3284C33.4958 20.3284 33.4958 19.3306 33.0439 19.3306Z" fill="#FFC136"/>
<path d="M29.4913 24.9683C29.0394 24.9683 29.0394 25.9661 29.4913 25.9661C29.9432 25.9661 29.9432 24.9683 29.4913 24.9683Z" fill="#FFC136"/>
<path d="M30.6552 26.9646C30.4176 26.9147 30.18 26.8648 29.9423 26.7983C29.7403 26.7484 29.5383 26.8648 29.4908 27.1641C29.4433 27.4136 29.5502 27.7462 29.7522 27.7961C29.9899 27.846 30.2275 27.9125 30.4651 27.9624C30.6671 28.0123 30.8691 27.8959 30.9285 27.5965C30.9642 27.3471 30.8572 26.9978 30.6552 26.9646Z" fill="#FFC136"/>
<path d="M31.9745 28.5774C31.7841 28.5774 31.7841 28.9932 31.9745 28.9932C32.1649 28.9932 32.1649 28.5774 31.9745 28.5774Z" fill="#FFC136"/>
<path d="M28.3031 28.8269C27.875 28.8269 27.875 29.7582 28.3031 29.7582C28.7312 29.7582 28.7312 28.8269 28.3031 28.8269Z" fill="#FFC136"/>
<path d="M29.7286 29.8746C29.4077 29.8247 29.0988 29.7582 28.778 29.7083C28.6235 29.675 28.481 29.9078 28.481 30.124C28.481 30.3735 28.6117 30.5065 28.778 30.5398C29.0988 30.5897 29.4077 30.6562 29.7286 30.7061C29.883 30.7393 30.0256 30.5065 30.0256 30.2903C30.0137 30.0409 29.883 29.9078 29.7286 29.8746Z" fill="#FFC136"/>
<path d="M34.8261 29.5583C34.6716 29.5583 34.5053 29.5417 34.3508 29.5417C34.1369 29.525 33.923 29.8244 33.9349 30.1237C33.9468 30.4231 34.1132 30.7224 34.3508 30.7058C34.5053 30.7058 34.6716 30.6892 34.8261 30.6892C35.04 30.6725 35.2301 30.4397 35.2301 30.1237C35.2063 29.8078 35.04 29.5749 34.8261 29.5583Z" fill="#FFC136"/>
<path d="M36.359 29.4583C35.907 29.4583 35.907 30.4561 36.359 30.4561C36.8228 30.4394 36.8228 29.4583 36.359 29.4583Z" fill="#FFC136"/>
<path d="M46.8389 30.5729C45.318 30.839 43.809 31.2215 42.2881 31.4709C40.8029 31.7038 39.3057 31.8701 37.8205 31.9699C34.7906 32.1694 31.7607 32.1195 28.7427 31.8035C22.6829 31.155 16.73 29.2092 10.8484 27.1803C7.96113 26.1825 5.20452 24.5194 3.42222 21.027C3.12517 20.4616 2.49543 20.9605 2.74495 21.5758C4.00444 24.6525 6.13131 26.6814 8.47205 27.8621C9.96918 28.6105 11.5376 29.0429 13.0823 29.5418C14.6269 30.0407 16.1716 30.5563 17.7162 31.0219C23.8711 32.9344 30.1329 33.9322 36.4422 33.6329C38.2007 33.5497 39.9711 33.3834 41.7178 33.1174C43.4644 32.8513 45.2705 32.5852 46.9815 32.0197C47.5518 31.8368 47.4449 30.4731 46.8389 30.5729Z" fill="#EAC271"/>
</svg>
