<svg width="17" height="16" viewBox="0 0 17 16" fill="none" xmlns="http://www.w3.org/2000/svg">
<path d="M5.3 12.8C4.42 12.8 3.708 13.52 3.708 14.4C3.708 15.28 4.42 16 5.3 16C6.18 16 6.9 15.28 6.9 14.4C6.9 13.52 6.18 12.8 5.3 12.8ZM0.5 0V1.6H2.1L4.98 7.672L3.9 9.632C3.772 9.856 3.7 10.12 3.7 10.4C3.7 11.28 4.42 12 5.3 12H14.9V10.4H5.636C5.524 10.4 5.436 10.312 5.436 10.2L5.46 10.104L6.18 8.8H12.14C12.74 8.8 13.268 8.472 13.54 7.976L16.404 2.784C16.468 2.672 16.5 2.536 16.5 2.4C16.5 1.96 16.14 1.6 15.7 1.6H3.868L3.116 0H0.5ZM13.3 12.8C12.42 12.8 11.708 13.52 11.708 14.4C11.708 15.28 12.42 16 13.3 16C14.18 16 14.9 15.28 14.9 14.4C14.9 13.52 14.18 12.8 13.3 12.8Z" fill="#D70F64"/>
</svg>
