<svg width="66" height="60" viewBox="0 0 66 60" fill="none" xmlns="http://www.w3.org/2000/svg">
<path d="M11.1256 19.6875H9.09622C6.85465 19.6875 5.03748 21.3664 5.03748 23.4375V29.0625H15.1843V23.4375C15.1843 21.3664 13.3672 19.6875 11.1256 19.6875Z" fill="#BE5000"/>
<path d="M11.1256 21.5625H9.0962C7.97536 21.5625 7.06683 22.4019 7.06683 23.4375V29.0625H13.1549V23.4375C13.1549 22.4019 12.2464 21.5625 11.1256 21.5625Z" fill="#DC6E1E"/>
<path d="M18.2284 23.4375H22.2871C22.8475 23.4375 23.3018 23.8573 23.3018 24.375V29.0625H17.2137V24.375C17.2137 23.8573 17.668 23.4375 18.2284 23.4375Z" fill="#4B8C41"/>
<path d="M22.2871 21.5625H26.3459C26.9062 21.5625 27.3606 21.9823 27.3606 22.5V29.0625H21.2725V22.5C21.2725 21.9823 21.7268 21.5625 22.2871 21.5625Z" fill="#91B945"/>
<path d="M55.7718 34.6875C59.1341 34.6875 61.8599 32.1691 61.8599 29.0625C61.8599 25.9559 59.1341 23.4375 55.7718 23.4375C52.4094 23.4375 49.6837 25.9559 49.6837 29.0625C49.6837 32.1691 52.4094 34.6875 55.7718 34.6875Z" fill="#D7E6E6"/>
<path d="M18.7357 29.0625C18.7357 28.4557 19.6217 27.7266 19.4291 27.1789C19.2297 26.6115 18.0426 26.5042 17.6704 26.0318C17.2946 25.5547 17.5484 24.4795 17.0321 24.1323C16.5208 23.7886 15.4942 24.3414 14.88 24.1571C14.2875 23.9794 13.8117 22.9688 13.155 22.9688C12.4982 22.9688 12.0224 23.9794 11.4297 24.1573C10.8156 24.3415 9.78899 23.7887 9.27772 24.1324C8.76137 24.4796 9.01517 25.5548 8.63935 26.0319C8.26734 26.5043 7.08016 26.6115 6.88077 27.1791C6.68824 27.7266 7.57419 28.4557 7.57419 29.0625C7.57419 29.6693 6.68824 30.3984 6.88077 30.9461C7.08016 31.5135 8.26734 31.6208 8.63948 32.0932C9.01529 32.5703 8.76149 33.6455 9.27784 33.9927C9.78912 34.3364 10.8157 33.7836 11.4299 33.9679C12.0224 34.1456 12.4982 35.1562 13.155 35.1562C13.8117 35.1562 14.2875 34.1456 14.8802 33.9677C15.4943 33.7835 16.5209 34.3363 17.0322 33.9926C17.5485 33.6454 17.2947 32.5702 17.6706 32.0931C18.0426 31.6207 19.2297 31.5135 19.4291 30.9459C19.6217 30.3984 18.7357 29.6693 18.7357 29.0625Z" fill="#D7E6E6"/>
<path d="M13.155 33.2812C10.6371 33.2812 8.58887 31.3888 8.58887 29.0625C8.58887 26.7362 10.6371 24.8438 13.155 24.8438C15.6728 24.8438 17.721 26.7362 17.721 29.0625C17.721 31.3888 15.6728 33.2812 13.155 33.2812ZM13.155 25.7812C11.1967 25.7812 9.60355 27.2532 9.60355 29.0625C9.60355 30.8718 11.1967 32.3438 13.155 32.3438C15.1132 32.3438 16.7063 30.8718 16.7063 29.0625C16.7063 27.2532 15.1132 25.7812 13.155 25.7812Z" fill="#FF8773"/>
<path d="M13.155 31.0937C11.9427 31.0937 10.9565 30.1825 10.9565 29.0625C10.9565 27.9424 11.9427 27.0312 13.155 27.0312C14.3673 27.0312 15.3534 27.9424 15.3534 29.0625C15.3534 30.1825 14.3673 31.0937 13.155 31.0937ZM13.155 27.9687C12.5023 27.9687 11.9712 28.4594 11.9712 29.0625C11.9712 29.6655 12.5023 30.1562 13.155 30.1562C13.8077 30.1562 14.3387 29.6655 14.3387 29.0625C14.3387 28.4594 13.8077 27.9687 13.155 27.9687Z" fill="#FF8773"/>
<path d="M55.7718 31.875C57.453 31.875 58.8158 30.6158 58.8158 29.0625C58.8158 27.5092 57.453 26.25 55.7718 26.25C54.0906 26.25 52.7277 27.5092 52.7277 29.0625C52.7277 30.6158 54.0906 31.875 55.7718 31.875Z" fill="#FABE19"/>
<path d="M46.6396 34.6875C50.002 34.6875 52.7277 32.1691 52.7277 29.0625C52.7277 25.9559 50.002 23.4375 46.6396 23.4375C43.2773 23.4375 40.5515 25.9559 40.5515 29.0625C40.5515 32.1691 43.2773 34.6875 46.6396 34.6875Z" fill="#D7E6E6"/>
<path d="M46.6396 31.875C48.3208 31.875 49.6836 30.6158 49.6836 29.0625C49.6836 27.5092 48.3208 26.25 46.6396 26.25C44.9584 26.25 43.5955 27.5092 43.5955 29.0625C43.5955 30.6158 44.9584 31.875 46.6396 31.875Z" fill="#FABE19"/>
<path d="M22.2871 6.5625H63.8893V4.6875H22.2871C21.7268 4.6875 21.2725 5.10727 21.2725 5.625C21.2725 6.14273 21.7268 6.5625 22.2871 6.5625Z" fill="#D7322D"/>
<path d="M22.2871 10.3125H63.8893V8.4375H22.2871C21.7268 8.4375 21.2725 8.85727 21.2725 9.375C21.2725 9.89273 21.7268 10.3125 22.2871 10.3125Z" fill="#D7322D"/>
<path d="M21.2725 5.625H63.8893V4.6875H22.2871C21.7268 4.6875 21.2725 5.10727 21.2725 5.625Z" fill="#F04B37"/>
<path d="M21.2725 9.375H63.8893V8.4375H22.2871C21.7268 8.4375 21.2725 8.85727 21.2725 9.375Z" fill="#F04B37"/>
<path d="M27.3606 30.4688C26.5201 30.4688 25.8386 29.8391 25.8386 29.0625C25.8386 27.4584 26.6409 26.6059 27.2267 25.9834C27.6669 25.5156 27.8679 25.3021 27.8679 24.7498C27.8679 24.1975 27.667 23.9839 27.2267 23.5161C26.6409 22.8934 25.8386 22.041 25.8386 20.4369C25.8386 18.8329 26.6409 17.9804 27.2268 17.358C27.667 16.8904 27.8679 16.6768 27.8679 16.1248C27.8679 15.5726 27.667 15.3592 27.2268 14.8914C26.6409 14.2688 25.8386 13.4162 25.8386 11.8121C25.8386 10.2081 26.6409 9.35566 27.2268 8.73328C27.667 8.26559 27.8679 8.05207 27.8679 7.5C27.8679 6.7234 28.5494 6.09375 29.39 6.09375C30.2305 6.09375 30.912 6.7234 30.912 7.5C30.912 9.10406 30.1096 9.95648 29.5238 10.5788C29.0835 11.0464 28.8826 11.26 28.8826 11.812C28.8826 12.3643 29.0835 12.5777 29.5239 13.0455C30.1098 13.668 30.912 14.5205 30.912 16.1244C30.912 17.7284 30.1096 18.5808 29.5238 19.2032C29.0835 19.671 28.8826 19.8844 28.8826 20.4366C28.8826 20.9889 29.0835 21.2024 29.5239 21.6702C30.1098 22.2928 30.912 23.1452 30.912 24.7493C30.912 26.3534 30.1096 27.2059 29.5239 27.8284C29.0835 28.2967 28.8826 28.5102 28.8826 29.0625C28.8826 29.8391 28.2011 30.4688 27.3606 30.4688Z" fill="#F5871E"/>
<path d="M24.3165 30.4688C23.476 30.4688 22.7945 29.8391 22.7945 29.0625C22.7945 27.4584 23.5969 26.6059 24.1826 25.9834C24.6228 25.5156 24.8239 25.3021 24.8239 24.7498C24.8239 24.1975 24.623 23.9839 24.1826 23.5161C23.5969 22.8934 22.7945 22.041 22.7945 20.4369C22.7945 18.8329 23.5969 17.9804 24.1827 17.358C24.623 16.8904 24.8239 16.6768 24.8239 16.1248C24.8239 15.5726 24.623 15.3592 24.1827 14.8914C23.5969 14.2688 22.7945 13.4162 22.7945 11.8121C22.7945 10.2081 23.5969 9.35566 24.1827 8.73328C24.623 8.26559 24.8239 8.05207 24.8239 7.5C24.8239 6.7234 25.5054 6.09375 26.3459 6.09375C27.1864 6.09375 27.8679 6.7234 27.8679 7.5C27.8679 9.10406 27.0656 9.95648 26.4797 10.5788C26.0395 11.0464 25.8386 11.26 25.8386 11.812C25.8386 12.3643 26.0395 12.5777 26.4798 13.0455C27.0657 13.668 27.8679 14.5205 27.8679 16.1244C27.8679 17.7284 27.0656 18.5808 26.4797 19.2032C26.0395 19.671 25.8386 19.8844 25.8386 20.4366C25.8386 20.9889 26.0395 21.2024 26.4798 21.6702C27.0657 22.2928 27.8679 23.1452 27.8679 24.7493C27.8679 26.3534 27.0656 27.2059 26.4798 27.8284C26.0395 28.2967 25.8386 28.5102 25.8386 29.0625C25.8386 29.8391 25.1571 30.4688 24.3165 30.4688Z" fill="#FABE19"/>
<path d="M33.4487 30.4688C32.6081 30.4688 31.9266 29.8391 31.9266 29.0625C31.9266 27.4584 32.729 26.6059 33.3147 25.9834C33.7551 25.5156 33.956 25.3021 33.956 24.7498C33.956 24.1975 33.7551 23.9839 33.3147 23.5161C32.729 22.8934 31.9266 22.041 31.9266 20.4369C31.9266 18.8329 32.729 17.9804 33.3149 17.358C33.7551 16.8904 33.956 16.6768 33.956 16.1248C33.956 15.5726 33.7551 15.3592 33.3149 14.8914C32.729 14.2688 31.9266 13.4162 31.9266 11.8121C31.9266 10.2081 32.729 9.35566 33.3149 8.73328C33.7551 8.26559 33.956 8.05207 33.956 7.5C33.956 6.7234 34.6375 6.09375 35.478 6.09375C36.3186 6.09375 37.0001 6.7234 37.0001 7.5C37.0001 9.10406 36.1977 9.95648 35.6118 10.5788C35.1716 11.0464 34.9707 11.26 34.9707 11.812C34.9707 12.3643 35.1716 12.5777 35.612 13.0455C36.1977 13.668 37.0001 14.5205 37.0001 16.1244C37.0001 17.7284 36.1977 18.5808 35.612 19.2032C35.1716 19.671 34.9707 19.8844 34.9707 20.4366C34.9707 20.9889 35.1716 21.2024 35.612 21.6702C36.1978 22.2928 37.0001 23.1452 37.0001 24.7493C37.0001 26.3534 36.1978 27.2059 35.612 27.8284C35.1716 28.2967 34.9707 28.5102 34.9707 29.0625C34.9707 29.8391 34.2892 30.4688 33.4487 30.4688Z" fill="#F5871E"/>
<path d="M30.4047 30.4688C29.5641 30.4688 28.8826 29.8391 28.8826 29.0625C28.8826 27.4584 29.685 26.6059 30.2707 25.9834C30.711 25.5156 30.912 25.3021 30.912 24.7498C30.912 24.1975 30.7111 23.9839 30.2707 23.5161C29.685 22.8934 28.8826 22.041 28.8826 20.4369C28.8826 18.8329 29.685 17.9804 30.2708 17.358C30.7111 16.8904 30.912 16.6768 30.912 16.1248C30.912 15.5726 30.7111 15.3592 30.2708 14.8914C29.685 14.2688 28.8826 13.4162 28.8826 11.8121C28.8826 10.2081 29.685 9.35566 30.2708 8.73328C30.7111 8.26559 30.912 8.05207 30.912 7.5C30.912 6.7234 31.5935 6.09375 32.434 6.09375C33.2746 6.09375 33.9561 6.7234 33.9561 7.5C33.9561 9.10406 33.1537 9.95648 32.5678 10.5788C32.1276 11.0464 31.9267 11.26 31.9267 11.812C31.9267 12.3643 32.1276 12.5777 32.568 13.0455C33.1538 13.668 33.9561 14.5205 33.9561 16.1244C33.9561 17.7284 33.1537 18.5808 32.5678 19.2032C32.1276 19.671 31.9267 19.8844 31.9267 20.4366C31.9267 20.9889 32.1276 21.2024 32.568 21.6702C33.1538 22.2928 33.9561 23.1452 33.9561 24.7493C33.9561 26.3534 33.1537 27.2059 32.568 27.8284C32.1276 28.2967 31.9267 28.5102 31.9267 29.0625C31.9267 29.8391 31.2452 30.4688 30.4047 30.4688Z" fill="#FABE19"/>
<path d="M39.5368 30.4688C38.6963 30.4688 38.0148 29.8391 38.0148 29.0625C38.0148 27.4584 38.817 26.6059 39.4029 25.9834C39.8432 25.5156 40.0441 25.3021 40.0441 24.7498C40.0441 24.1975 39.8432 23.9839 39.4029 23.5161C38.817 22.8934 38.0148 22.041 38.0148 20.4369C38.0148 18.8329 38.8171 17.9804 39.403 17.358C39.8432 16.8904 40.0441 16.6768 40.0441 16.1248C40.0441 15.5726 39.8432 15.3592 39.403 14.8914C38.8171 14.2688 38.0148 13.4162 38.0148 11.8121C38.0148 10.2081 38.8171 9.35566 39.403 8.73328C39.8432 8.26559 40.0441 8.05207 40.0441 7.5C40.0441 6.7234 40.7256 6.09375 41.5662 6.09375C42.4067 6.09375 43.0882 6.7234 43.0882 7.5C43.0882 9.10406 42.2858 9.95648 41.7 10.5788C41.2597 11.0464 41.0588 11.26 41.0588 11.812C41.0588 12.3643 41.2597 12.5777 41.7001 13.0455C42.2858 13.668 43.0882 14.5205 43.0882 16.1244C43.0882 17.7284 42.2858 18.5808 41.7001 19.2032C41.2597 19.671 41.0588 19.8844 41.0588 20.4366C41.0588 20.9889 41.2597 21.2024 41.7001 21.6702C42.286 22.2928 43.0882 23.1452 43.0882 24.7493C43.0882 26.3534 42.286 27.2059 41.7001 27.8284C41.2597 28.2967 41.0588 28.5102 41.0588 29.0625C41.0588 29.8391 40.3773 30.4688 39.5368 30.4688Z" fill="#F5871E"/>
<path d="M36.4927 30.4688C35.6522 30.4688 34.9707 29.8391 34.9707 29.0625C34.9707 27.4584 35.7729 26.6059 36.3588 25.9834C36.7992 25.5156 37.0001 25.3021 37.0001 24.7498C37.0001 24.1975 36.7992 23.9839 36.3588 23.5161C35.7729 22.8934 34.9707 22.041 34.9707 20.4369C34.9707 18.8329 35.7731 17.9804 36.3589 17.358C36.7992 16.8904 37.0001 16.6768 37.0001 16.1248C37.0001 15.5726 36.7992 15.3592 36.3589 14.8914C35.7731 14.2688 34.9707 13.4162 34.9707 11.8121C34.9707 10.2081 35.7731 9.35566 36.3589 8.73328C36.7992 8.26559 37.0001 8.05207 37.0001 7.5C37.0001 6.7234 37.6816 6.09375 38.5221 6.09375C39.3626 6.09375 40.0441 6.7234 40.0441 7.5C40.0441 9.10406 39.2418 9.95648 38.6559 10.5788C38.2157 11.0464 38.0148 11.26 38.0148 11.812C38.0148 12.3643 38.2157 12.5777 38.656 13.0455C39.2418 13.668 40.0441 14.5205 40.0441 16.1244C40.0441 17.7284 39.2418 18.5808 38.656 19.2032C38.2157 19.671 38.0148 19.8844 38.0148 20.4366C38.0148 20.9889 38.2157 21.2024 38.656 21.6702C39.2419 22.2928 40.0441 23.1452 40.0441 24.7493C40.0441 26.3534 39.2419 27.2059 38.656 27.8284C38.2157 28.2967 38.0148 28.5102 38.0148 29.0625C38.0148 29.8391 37.3333 30.4688 36.4927 30.4688Z" fill="#FABE19"/>
<path d="M43.5955 51.5625H23.3018C12.0939 51.5625 3.00812 43.1679 3.00812 32.8125V30.9375C3.00812 29.9019 3.91664 29.0625 5.03749 29.0625H61.8599C62.9807 29.0625 63.8892 29.9019 63.8892 30.9375V32.8125C63.8892 43.1679 54.8035 51.5625 43.5955 51.5625Z" fill="#F04B37"/>
<path d="M23.3018 49.6875C13.2308 49.6875 5.03748 42.1174 5.03748 32.8125V31.875C5.03748 31.3573 5.4918 30.9375 6.05216 30.9375C6.61252 30.9375 7.06685 31.3573 7.06685 31.875V32.8125C7.06685 41.0835 14.3498 47.8125 23.3018 47.8125C23.8622 47.8125 24.3165 48.2323 24.3165 48.75C24.3165 49.2677 23.8622 49.6875 23.3018 49.6875Z" fill="#FF6955"/>
<path d="M61.8599 29.0625H41.5662C42.687 29.0625 43.5955 29.9019 43.5955 30.9375V32.8125C43.5955 43.1678 34.5097 51.5625 23.3018 51.5625H43.5955C54.8034 51.5625 63.8892 43.1678 63.8892 32.8125V30.9375C63.8892 29.9019 62.9807 29.0625 61.8599 29.0625Z" fill="#D7322D"/>
<path d="M41.5662 55.3125H25.3312C24.2103 55.3125 23.3018 54.4731 23.3018 53.4375V51.5625H43.5955V53.4375C43.5955 54.4731 42.687 55.3125 41.5662 55.3125Z" fill="#D7322D"/>
</svg>
