<svg width="66" height="60" viewBox="0 0 66 60" fill="none" xmlns="http://www.w3.org/2000/svg">
<path d="M17.9879 51.5625H48.4285V57.1875H17.9879V51.5625Z" fill="#C7463B"/>
<path d="M48.4293 4.45312V51.5625H17.9888V14.0555C18.0712 14.0602 18.1549 14.0625 18.2386 14.0625C18.7717 14.0628 19.2996 13.966 19.7922 13.7776C20.2848 13.5893 20.7323 13.313 21.1093 12.9648C21.4862 12.6165 21.7852 12.203 21.989 11.7479C22.1929 11.2928 22.2977 10.805 22.2974 10.3125C22.297 10.1345 22.283 9.95668 22.2555 9.78047C23.2731 9.40463 24.1981 8.84286 24.9751 8.12882C25.752 7.41478 26.365 6.56316 26.7772 5.625C26.7836 5.61211 26.7899 5.59922 26.795 5.58633C26.9857 5.6117 27.1781 5.62462 27.3708 5.625C28.2707 5.62492 29.145 5.34864 29.8565 4.83956C30.568 4.33048 31.0762 3.61746 31.3014 2.8125H46.6536C47.1246 2.8125 47.5762 2.98535 47.9092 3.29303C48.2423 3.6007 48.4293 4.018 48.4293 4.45312Z" fill="#834B10"/>
<path d="M27.1201 5.625V13.125H21.032V13.0336C21.432 12.6833 21.7504 12.2614 21.9678 11.7935C22.1853 11.3256 22.2971 10.8217 22.2965 10.3125C22.2961 10.1345 22.2821 9.95668 22.2547 9.78047C23.2723 9.40463 24.1973 8.84286 24.9742 8.12882C25.7512 7.41478 26.3642 6.56316 26.7764 5.625H27.1201Z" fill="#A45E14"/>
<path d="M30.1642 5.625H36.2523V13.125H30.1642V5.625Z" fill="#A45E14"/>
<path d="M39.2963 5.625H45.3844V13.125H39.2963V5.625Z" fill="#A45E14"/>
<path d="M21.032 15.9375H27.1201V23.4375H21.032V15.9375Z" fill="#A45E14"/>
<path d="M21.032 26.25H27.1201V33.75H21.032V26.25Z" fill="#A45E14"/>
<path d="M21.032 36.5625H27.1201V44.0625H21.032V36.5625Z" fill="#A45E14"/>
<path d="M30.1642 15.9375H36.2523V23.4375H30.1642V15.9375Z" fill="#A45E14"/>
<path d="M30.1642 26.25H36.2523V33.75H30.1642V26.25Z" fill="#A45E14"/>
<path d="M39.2963 15.9375H45.3844V23.4375H39.2963V15.9375Z" fill="#A45E14"/>
<path d="M39.2963 26.25H45.3844V33.75H39.2963V26.25Z" fill="#A45E14"/>
<path d="M48.4285 25.3125L48.4284 51.5625H17.9878L17.9879 43.125L48.4285 25.3125Z" fill="#DC4D41"/>
<path d="M48.4285 11.25L53.5019 17.8125L54.5166 20.625L48.4285 21.5625V11.25Z" fill="#A8D6DA"/>
<path d="M32.1935 54.375H34.2229V57.1875H32.1935V54.375Z" fill="#B94137"/>
<path d="M28.1348 54.375H30.1641V57.1875H28.1348V54.375Z" fill="#B94137"/>
<path d="M24.076 54.375H26.1054V57.1875H24.076V54.375Z" fill="#B94137"/>
<path d="M20.0173 54.375H22.0467V57.1875H20.0173V54.375Z" fill="#B94137"/>
<path d="M44.3698 54.375H46.3991V57.1875H44.3698V54.375Z" fill="#B94137"/>
<path d="M40.311 54.375H42.3404V57.1875H40.311V54.375Z" fill="#B94137"/>
<path d="M36.2522 54.375H38.2816V57.1875H36.2522V54.375Z" fill="#B94137"/>
<path d="M43.3551 41.25H45.3845V45H43.3551V41.25Z" fill="#F55648"/>
<path d="M43.3551 46.875H45.3845V48.75H43.3551V46.875Z" fill="#F55648"/>
<path d="M17.9879 43.125L53.5019 17.8125L58.5753 24.375L17.9879 43.125Z" fill="#B3E4E8"/>
</svg>
