<svg width="66" height="60" viewBox="0 0 66 60" fill="none" xmlns="http://www.w3.org/2000/svg">
<path d="M22.6626 15L19.6186 17.8125L13.3503 12.0211C13.0884 12.1315 12.8037 12.1883 12.5158 12.1875C11.9775 12.1875 11.4614 11.99 11.0808 11.6383C10.7002 11.2867 10.4864 10.8098 10.4864 10.3125C10.4864 9.81522 10.7002 9.33831 11.0808 8.98668C11.4614 8.63504 11.9775 8.4375 12.5158 8.4375C12.5158 7.94022 12.7296 7.46331 13.1101 7.11167C13.4907 6.76004 14.0069 6.5625 14.5451 6.5625C15.0834 6.5625 15.5995 6.76004 15.9801 7.11167C16.3607 7.46331 16.5745 7.94022 16.5745 8.4375C16.5754 8.70353 16.5139 8.96658 16.3944 9.2086L22.6626 15Z" fill="#F0DE9C"/>
<path d="M32.8995 24.8026C32.359 25.6812 31.6063 26.4327 30.7 26.9985C29.7937 27.5643 28.7583 27.9292 27.6743 28.0647C26.5904 28.2002 25.4872 28.1027 24.4508 27.7798C23.4143 27.4569 22.4725 26.9173 21.6987 26.203C18.9248 23.6401 16.0558 16.8327 18.8284 14.2698C20.8019 12.4475 25.1004 13.2632 28.4159 14.8089C29.7604 15.4358 30.9437 16.1823 31.7441 16.9217C32.8433 17.9376 33.5516 19.2586 33.7603 20.6821C33.9691 22.1056 33.6667 23.5531 32.8995 24.8026Z" fill="#F0C033"/>
<path d="M50.0591 4.6875C50.0596 4.40756 49.9922 4.13108 49.862 3.87834C49.7317 3.6256 49.5418 3.40302 49.3063 3.22694C49.0707 3.05085 48.7955 2.92574 48.5008 2.86077C48.2061 2.7958 47.8993 2.79262 47.6031 2.85148C47.3069 2.91033 47.0287 3.02973 46.789 3.20089C46.5492 3.37205 46.354 3.59065 46.2176 3.84063C46.0812 4.09061 46.0072 4.36563 46.0008 4.64551C45.9945 4.92539 46.0561 5.20302 46.1811 5.45803L39.9123 11.25L42.9563 14.0625L49.2252 8.27053C49.5011 8.38557 49.8013 8.44211 50.1039 8.43602C50.4065 8.42992 50.7038 8.36134 50.974 8.23531C51.2443 8.10927 51.4805 7.92897 51.6655 7.70762C51.8505 7.48628 51.9795 7.22949 52.0432 6.95608C52.1068 6.68267 52.1034 6.39957 52.0333 6.12753C51.9631 5.85548 51.828 5.60139 51.6377 5.38387C51.4475 5.16635 51.207 4.99091 50.9338 4.87042C50.6607 4.74992 50.3618 4.68742 50.0591 4.6875Z" fill="#F0DE9C"/>
<path d="M44.8195 14.4973C44.4847 17.3989 42.6608 20.8043 40.8762 22.4532C39.5441 23.6839 37.7374 24.3754 35.8535 24.3754C33.9696 24.3754 32.1629 23.6839 30.8308 22.4532C29.4987 21.2224 28.7503 19.5531 28.7503 17.8125C28.7503 16.072 29.4987 14.4027 30.8308 13.1719C33.6047 10.609 40.9726 7.95823 43.7465 10.52C44.7358 11.434 45.0072 12.8883 44.8195 14.4973Z" fill="#F0C033"/>
<path d="M59.1913 20.625C59.1915 21.1175 59.0866 21.6052 58.8826 22.0602C58.6787 22.5153 58.3798 22.9287 58.0028 23.2769C57.6259 23.6252 57.1784 23.9014 56.6859 24.0898C56.1935 24.2782 55.6656 24.3751 55.1326 24.375H42.8993C38.6173 24.375 37.2538 19.0406 41.0842 17.2711L56.1472 10.3125C56.1488 11.4207 55.9132 12.5183 55.4541 13.5421C54.9951 14.566 54.3216 15.4959 53.4723 16.2785C53.2449 16.4892 53.0052 16.6883 52.7544 16.875H55.1326C55.2877 16.8749 55.4427 16.8831 55.5968 16.8996C56.5863 17.0049 57.4993 17.4427 58.1622 18.1296C58.825 18.8166 59.1913 19.7047 59.1913 20.625Z" fill="#F0C033"/>
<path d="M62.2354 21.5625H13.5305V25.3125H62.2354V21.5625Z" fill="#C6D6E2"/>
<path d="M53.1032 57.1875H22.6626L17.5892 25.3125H58.1766L53.1032 57.1875Z" fill="#E64042"/>
<path d="M26.7214 39.375C26.7215 39.6883 26.6367 39.9967 26.4745 40.2719C26.3124 40.5471 26.0782 40.7803 25.7933 40.9503C25.5084 41.1203 25.1819 41.2215 24.8437 41.2448C24.5055 41.2681 24.1664 41.2127 23.8574 41.0836L21.2903 43.4555L17.5892 46.875L14.5451 44.0625L20.8134 38.2711C20.6888 38.0162 20.6276 37.7387 20.6342 37.4591C20.6407 37.1795 20.7149 36.9047 20.8513 36.655C20.9878 36.4053 21.1829 36.187 21.4225 36.016C21.6621 35.8451 21.94 35.7258 22.236 35.667C22.5319 35.6081 22.8384 35.6112 23.1329 35.676C23.4274 35.7408 23.7024 35.8656 23.9379 36.0414C24.1734 36.2172 24.3634 36.4394 24.4938 36.6918C24.6243 36.9441 24.692 37.2203 24.692 37.5C24.9585 37.4999 25.2224 37.5484 25.4687 37.6426C25.7149 37.7368 25.9387 37.8749 26.1271 38.049C26.3156 38.2231 26.4651 38.4299 26.567 38.6574C26.669 38.8849 26.7214 39.1288 26.7214 39.375Z" fill="#F0DE9C"/>
<path d="M21.2903 43.4556L17.5892 46.8751L17.0159 46.3454C18.0526 44.9692 19.5569 43.9521 21.2903 43.4556Z" fill="#F0C033"/>
<path d="M16.5174 54.1547C16.2135 54.549 15.8763 54.9204 15.5091 55.2657C14.177 56.4964 12.3702 57.1879 10.4864 57.1879C8.60249 57.1879 6.79577 56.4964 5.46367 55.2657C4.13157 54.0349 3.38321 52.3656 3.38321 50.625C3.38321 48.8845 4.13158 47.2152 5.46369 45.9844C8.23758 43.4215 15.6055 40.7707 18.3794 43.3325C18.7076 43.6414 18.9655 44.008 19.1378 44.4106C20.287 47.0309 18.5772 51.518 16.5174 54.1547Z" fill="#F0C033"/>
<path d="M41.9417 50.625C42.343 50.625 42.7354 50.515 43.0691 50.309C43.4028 50.103 43.6629 49.8101 43.8165 49.4675C43.9701 49.1249 44.0103 48.7479 43.932 48.3842C43.8537 48.0205 43.6604 47.6864 43.3766 47.4242C43.0928 47.162 42.7312 46.9834 42.3376 46.911C41.9439 46.8387 41.5359 46.8758 41.165 47.0177C40.7942 47.1596 40.4773 47.4 40.2543 47.7083C40.0313 48.0166 39.9123 48.3792 39.9123 48.75H31.7948V52.5H39.9123C39.9123 52.8708 40.0313 53.2334 40.2543 53.5417C40.4773 53.85 40.7942 54.0904 41.165 54.2323C41.5359 54.3742 41.9439 54.4113 42.3376 54.339C42.7312 54.2666 43.0928 54.088 43.3766 53.8258C43.6604 53.5636 43.8537 53.2295 43.932 52.8658C44.0103 52.5021 43.9701 52.1251 43.8165 51.7825C43.6629 51.4399 43.4028 51.147 43.0691 50.941C42.7354 50.735 42.343 50.625 41.9417 50.625Z" fill="#F0DE9C"/>
<path d="M34.8388 50.625C34.8388 54.2494 27.6001 57.1875 23.6773 57.1875C21.7935 57.1875 19.9869 56.4961 18.6549 55.2654C17.3228 54.0347 16.5745 52.3655 16.5745 50.625C16.5745 48.8845 17.3228 47.2153 18.6549 45.9846C19.9869 44.7539 21.7935 44.0625 23.6773 44.0625C27.6001 44.0625 34.8388 47.0006 34.8388 50.625Z" fill="#F0C033"/>
<path d="M62.2353 20.625H60.206C60.2044 19.3823 59.6694 18.1908 58.7183 17.312C57.7672 16.4333 56.4776 15.939 55.1325 15.9375H55.127C56.4497 14.3171 57.1642 12.3422 57.1619 10.3125C57.1619 10.1527 57.1177 9.99558 57.0335 9.856C56.9492 9.71643 56.8278 9.59906 56.6807 9.51504C56.5335 9.43103 56.3656 9.38316 56.1928 9.37599C56.02 9.36881 55.8481 9.40256 55.6934 9.47404L45.8797 14.0076C45.9044 13.5791 45.8916 13.1494 45.8413 12.7228L49.5133 9.33019C50.278 9.4588 51.067 9.31232 51.7186 8.92076C52.3701 8.5292 52.835 7.92222 53.0178 7.22421C53.2006 6.5262 53.0875 5.79002 52.7018 5.16654C52.316 4.54307 51.6868 4.07952 50.943 3.8709C50.7165 3.18449 50.2146 2.60401 49.5401 2.24824C48.8655 1.89248 48.0694 1.78832 47.3145 1.95708C46.5596 2.12585 45.903 2.55477 45.4791 3.15609C45.0552 3.75742 44.8961 4.48567 45.0342 5.19183L41.3583 8.58815C40.106 8.45498 38.638 8.59711 37.0123 9.02217C34.3651 9.7143 31.6572 11.0831 30.1136 12.5092C29.638 12.949 29.2234 13.4417 28.8792 13.9759C27.2056 13.195 25.3868 12.6338 23.7573 12.4071C22.9171 12.2812 22.0626 12.2577 21.2157 12.3373L17.5406 8.94183C17.6798 8.23528 17.5213 7.50631 17.0975 6.90429C16.6737 6.30228 16.0167 5.87282 15.2612 5.70393C14.5057 5.53503 13.709 5.6395 13.0342 5.99592C12.3594 6.35233 11.8577 6.93371 11.6319 7.62089C10.8889 7.8302 10.2607 8.29391 9.87564 8.91713C9.4906 9.54034 9.37788 10.276 9.56054 10.9734C9.74321 11.6709 10.2074 12.2775 10.8583 12.6692C11.5091 13.0608 12.2973 13.2078 13.0616 13.0802L16.7363 16.4754C16.6965 16.8074 16.6797 17.1414 16.6861 17.4753C16.7222 18.5436 16.9115 19.6028 17.2493 20.625H13.5304C13.2613 20.625 13.0032 20.7238 12.8129 20.8996C12.6227 21.0755 12.5157 21.3139 12.5157 21.5625V25.3125C12.5157 25.5612 12.6227 25.7996 12.8129 25.9755C13.0032 26.1513 13.2613 26.25 13.5304 26.25H16.7128L17.9282 33.8865L19.936 33.6136L18.764 26.25H57.0018L52.2268 56.2501H33.8241V58.1251H53.1032C53.3467 58.1251 53.5821 58.0441 53.7664 57.8971C53.9507 57.75 54.0716 57.5466 54.1071 57.324L59.053 26.25H62.2353C62.5045 26.25 62.7625 26.1513 62.9528 25.9755C63.1431 25.7996 63.25 25.5612 63.25 25.3125V21.5625C63.25 21.3139 63.1431 21.0755 62.9528 20.8996C62.7625 20.7238 62.5045 20.625 62.2353 20.625ZM47.0151 17.8125H46.0004V19.6875H47.0151C49.2087 19.6897 51.3435 19.0315 53.0961 17.8125H55.1325C55.9396 17.8134 56.7133 18.11 57.284 18.6372C57.8547 19.1645 58.1757 19.8794 58.1766 20.625H39.8528C39.8408 19.7224 40.2656 18.6975 41.5385 18.1095L54.9459 11.9157C54.5477 13.5858 53.5448 15.0805 52.1028 16.1527C50.6608 17.2248 48.866 17.8104 47.0151 17.8125ZM46.898 6.12155C47.0444 5.9863 47.1425 5.81293 47.1791 5.62469C47.2158 5.43646 47.1893 5.24237 47.1031 5.06846C47.0443 4.94887 47.0142 4.81891 47.0151 4.68755C47.0151 4.43891 47.122 4.20045 47.3123 4.02463C47.5025 3.84882 47.7606 3.75005 48.0297 3.75005C48.2989 3.75005 48.5569 3.84882 48.7472 4.02463C48.9375 4.20045 49.0444 4.43891 49.0444 4.68755C49.0444 4.93619 49.1513 5.17464 49.3416 5.35046C49.5319 5.52627 49.79 5.62504 50.0591 5.62505C50.3282 5.62505 50.5863 5.72382 50.7766 5.89963C50.9669 6.07545 51.0738 6.31391 51.0738 6.56255C51.0738 6.81119 50.9669 7.04964 50.7766 7.22546C50.5863 7.40128 50.3282 7.50005 50.0591 7.50005C49.9169 7.50079 49.7762 7.47303 49.6468 7.41868C49.4585 7.33912 49.2485 7.31464 49.0447 7.34852C48.841 7.38241 48.6534 7.47303 48.507 7.60825L45.1588 10.7017C44.9682 10.3933 44.7344 10.1095 44.4635 9.85758C44.1909 9.60704 43.8833 9.39127 43.5488 9.21598L46.898 6.12155ZM31.5487 13.835C32.8449 12.6374 35.2626 11.4283 37.5648 10.8263C40.0797 10.1688 42.0713 10.2989 43.0284 11.1834C43.807 11.9027 44.047 13.2513 43.7186 15.006L40.6308 16.4324C39.7767 16.8085 39.0579 17.4039 38.5604 18.1474C38.0628 18.8909 37.8076 19.7511 37.8251 20.625H30.5801C29.9097 19.5527 29.6412 18.3059 29.8164 17.0781C29.9915 15.8503 30.6004 14.7103 31.5487 13.835ZM14.0679 11.3583C13.9215 11.223 13.7338 11.1324 13.5301 11.0985C13.3264 11.0646 13.1163 11.0891 12.9281 11.1687C12.7986 11.223 12.6579 11.2508 12.5157 11.25C12.2466 11.25 11.9885 11.1513 11.7983 10.9755C11.608 10.7996 11.5011 10.5612 11.5011 10.3125C11.5011 10.0639 11.608 9.82545 11.7983 9.64964C11.9885 9.47382 12.2466 9.37505 12.5157 9.37505C12.7849 9.37504 13.0429 9.27627 13.2332 9.10046C13.4235 8.92464 13.5304 8.68619 13.5304 8.43755C13.5304 8.18891 13.6373 7.95045 13.8276 7.77463C14.0179 7.59882 14.276 7.50005 14.5451 7.50005C14.8142 7.50005 15.0723 7.59882 15.2626 7.77463C15.4529 7.95045 15.5598 8.18891 15.5598 8.43755C15.5606 8.56893 15.5306 8.69891 15.4717 8.81852C15.3856 8.99242 15.3591 9.1865 15.3957 9.37473C15.4324 9.56295 15.5305 9.73631 15.6769 9.87155L19.027 12.9669C18.3536 13.3169 17.7964 13.8301 17.4155 14.4512L14.0679 11.3583ZM19.5465 14.9334C21.067 13.5284 24.9155 14.2002 28.066 15.6969C27.5484 17.3197 27.6399 19.0564 28.3256 20.625H19.3754C18.4386 18.0554 18.4926 15.907 19.5465 14.9334ZM61.2207 24.375H14.5451V22.5H61.2207V24.375Z" fill="#1C3F55"/>
<path d="M34.7246 53.4375H39.0715C39.2212 53.8296 39.4631 54.186 39.7798 54.4813C40.0964 54.7766 40.48 55.0033 40.9029 55.1452C41.3258 55.2871 41.7775 55.3406 42.2254 55.3019C42.6734 55.2632 43.1065 55.1332 43.4936 54.9213C43.8806 54.7094 44.212 54.4208 44.4639 54.0764C44.7158 53.732 44.882 53.3402 44.9504 52.9294C45.0187 52.5185 44.9877 52.0987 44.8595 51.7003C44.7312 51.3019 44.509 50.9346 44.2087 50.625C44.5087 50.3155 44.7306 49.9483 44.8587 49.5499C44.9867 49.1516 45.0176 48.732 44.9491 48.3213C44.8806 47.9107 44.7144 47.5191 44.4626 47.1749C44.2108 46.8306 43.8795 46.5422 43.4926 46.3304C43.1057 46.1185 42.6727 45.9886 42.225 45.9498C41.7772 45.9111 41.3257 45.9645 40.9029 46.1062C40.4802 46.2479 40.0967 46.4745 39.78 46.7695C39.4633 47.0646 39.2214 47.4208 39.0715 47.8126H34.7246C33.94 46.8578 32.7601 45.9594 31.2242 45.1663C28.8226 43.9263 25.8603 43.125 23.6773 43.125C23.4683 43.125 23.2619 43.1347 23.0568 43.1492L24.1461 42.1427C24.9109 42.2713 25.6999 42.1248 26.3514 41.7333C27.003 41.3417 27.4679 40.7347 27.6507 40.0367C27.8335 39.3387 27.7204 38.6025 27.3346 37.979C26.9489 37.3556 26.3197 36.892 25.5759 36.6834C25.3494 35.997 24.8475 35.4165 24.173 35.0607C23.4984 34.705 22.7023 34.6008 21.9473 34.7696C21.1924 34.9383 20.5359 35.3673 20.112 35.9686C19.6881 36.5699 19.529 37.2982 19.6671 38.0043L15.9913 41.4006C14.7389 41.2674 13.2709 41.4096 11.6451 41.8347C8.99794 42.5268 6.29005 43.8956 4.74647 45.3217C3.22587 46.7286 2.3721 48.6357 2.37283 50.624C2.37357 52.6122 3.22875 54.5188 4.75039 55.9247C6.27204 57.3306 8.33562 58.1208 10.4876 58.1214C12.6395 58.1221 14.7037 57.3333 16.2263 55.9284C16.5366 55.6381 16.8265 55.3297 17.0942 55.0052C17.8451 55.9704 18.8337 56.7566 19.9783 57.2991C21.123 57.8416 22.3909 58.1247 23.6773 58.125C25.8603 58.125 28.8226 57.3238 31.2242 56.0838C32.7601 55.2907 33.94 54.3923 34.7246 53.4375ZM39.9123 49.6876C40.1814 49.6875 40.4395 49.5888 40.6298 49.413C40.8201 49.2371 40.927 48.9987 40.927 48.7501C40.927 48.5646 40.9865 48.3834 41.098 48.2292C41.2095 48.075 41.3679 47.9549 41.5534 47.8839C41.7388 47.813 41.9428 47.7944 42.1396 47.8306C42.3364 47.8667 42.5172 47.956 42.6591 48.0871C42.8011 48.2182 42.8977 48.3853 42.9368 48.5672C42.976 48.749 42.9559 48.9375 42.8791 49.1088C42.8023 49.2801 42.6722 49.4265 42.5054 49.5296C42.3385 49.6326 42.1423 49.6876 41.9417 49.6876C41.6725 49.6876 41.4145 49.7863 41.2242 49.9621C41.0339 50.138 40.927 50.3764 40.927 50.625C40.927 50.8737 41.0339 51.1121 41.2242 51.288C41.4145 51.4638 41.6725 51.5625 41.9417 51.5625C42.1423 51.5625 42.3385 51.6175 42.5054 51.7205C42.6722 51.8236 42.8023 51.97 42.8791 52.1413C42.9559 52.3126 42.976 52.5011 42.9368 52.6829C42.8977 52.8648 42.8011 53.0319 42.6591 53.163C42.5172 53.2941 42.3364 53.3834 42.1396 53.4195C41.9428 53.4557 41.7388 53.4371 41.5534 53.3662C41.3679 53.2952 41.2095 53.1751 41.098 53.0209C40.9865 52.8667 40.927 52.6855 40.927 52.5C40.927 52.2514 40.8201 52.013 40.6298 51.8371C40.4395 51.6613 40.1814 51.5626 39.9123 51.5625H35.7302C35.8946 50.9468 35.8946 50.3033 35.7302 49.6876H39.9123ZM21.5309 38.9341C21.6773 38.7988 21.7753 38.6254 21.812 38.4372C21.8487 38.249 21.8222 38.0549 21.736 37.881C21.6772 37.7614 21.6471 37.6314 21.6479 37.5C21.6479 37.2514 21.7549 37.0129 21.9451 36.8371C22.1354 36.6613 22.3935 36.5625 22.6626 36.5625C22.9317 36.5625 23.1898 36.6613 23.3801 36.8371C23.5704 37.0129 23.6773 37.2514 23.6773 37.5C23.6773 37.7487 23.7842 37.9871 23.9745 38.163C24.1648 38.3388 24.4229 38.4375 24.692 38.4375C24.9611 38.4375 25.2192 38.5363 25.4095 38.7121C25.5998 38.888 25.7067 39.1264 25.7067 39.375C25.7067 39.6237 25.5998 39.8621 25.4095 40.038C25.2192 40.2138 24.9611 40.3125 24.692 40.3125C24.5498 40.3133 24.4092 40.2855 24.2798 40.2312C24.0915 40.1516 23.8814 40.1271 23.6777 40.161C23.4739 40.1949 23.2863 40.2855 23.1399 40.4208L19.7912 43.5146C19.4112 42.8931 18.8547 42.3793 18.1817 42.0285L21.5309 38.9341ZM14.7913 54.6026C14.226 55.125 13.5548 55.5395 12.8161 55.8223C12.0774 56.105 11.2857 56.2506 10.4861 56.2507C9.68654 56.2507 8.89478 56.1052 8.15606 55.8225C7.41733 55.5398 6.74612 55.1255 6.18074 54.6031C5.61536 54.0807 5.16689 53.4605 4.86094 52.778C4.555 52.0954 4.39757 51.3639 4.39764 50.6252C4.39772 49.8864 4.5553 49.1549 4.86138 48.4724C5.16747 47.7899 5.61606 47.1698 6.18155 46.6475C7.47777 45.4499 9.89545 44.2408 12.1977 43.6388C14.7126 42.9814 16.7041 43.1114 17.6613 43.9959C17.9597 44.2836 18.1769 44.6348 18.2937 45.0185C17.081 46.0096 16.2176 47.3138 15.8147 48.7626C15.4118 50.2115 15.488 51.7386 16.0334 53.1471C15.6736 53.6698 15.2574 54.1574 14.7913 54.6026ZM30.2341 54.447C28.1454 55.5255 25.5105 56.25 23.6773 56.25C22.0627 56.25 20.5141 55.6574 19.3724 54.6025C18.2306 53.5476 17.5892 52.1169 17.5892 50.625C17.5892 49.1332 18.2306 47.7025 19.3724 46.6476C20.5141 45.5927 22.0627 45 23.6773 45C25.5105 45 28.1454 45.7246 30.2341 46.8031C32.5157 47.9811 33.8242 49.3742 33.8242 50.625C33.8242 51.8759 32.5157 53.269 30.2341 54.447Z" fill="#1C3F55"/>
</svg>
