<svg width="66" height="60" viewBox="0 0 66 60" fill="none" xmlns="http://www.w3.org/2000/svg">
<g clip-path="url(#clip0)">
<path d="M10.9535 0.956849L7.76862 2.65572C7.46498 2.81767 7.36084 3.1765 7.53626 3.45704L23.4631 28.9447C23.6384 29.2253 24.0268 29.3215 24.3305 29.1594L27.5152 27.4606C27.8188 27.2986 27.9229 26.9398 27.7475 26.6592L11.8208 1.17154C11.6455 0.890989 11.2571 0.794896 10.9535 0.956849Z" fill="#F0B4A3"/>
<path d="M33.0879 27.4188C40.2183 27.4188 45.9986 22.0782 45.9986 15.4902C45.9986 8.90216 40.2183 3.56152 33.0879 3.56152C25.9575 3.56152 20.1771 8.90216 20.1771 15.4902C20.1771 22.0782 25.9575 27.4188 33.0879 27.4188Z" fill="#FDEAAF"/>
<path d="M33.0874 3.56177C32.7999 3.56177 32.5148 3.57138 32.2318 3.58849C38.1885 3.99548 42.8995 9.16814 42.8995 15.4904C42.8995 21.8127 38.1885 26.9853 32.2318 27.3923C32.5148 27.4094 32.7999 27.419 33.0874 27.419C40.2179 27.419 45.9982 22.0783 45.9982 15.4904C45.9982 8.90247 40.2179 3.56177 33.0874 3.56177Z" fill="#F8CC7C"/>
<path d="M35.7416 29.6191C35.7416 31.8249 35.094 33.8914 33.9622 35.6647C33.6971 36.0812 33.405 36.4816 33.0876 36.8643C32.7701 36.4816 32.478 36.0812 32.2129 35.6647H11.7005C10.5688 33.8915 9.92102 31.825 9.92102 29.6191C9.92102 23.0309 15.7008 17.6909 22.8312 17.6909C27.0124 17.6909 30.7285 19.5271 33.0873 22.374C34.7525 24.383 35.7416 26.8941 35.7416 29.6191Z" fill="#B78358"/>
<path d="M33.0875 22.3737C30.7286 19.527 27.0124 17.6907 22.8314 17.6907C22.4458 17.6907 22.0646 17.7072 21.6876 17.7378C24.7888 18.0412 27.5129 19.7916 29.3027 22.3737C30.6959 24.383 31.5232 26.894 31.5232 29.619C31.5232 31.8248 30.9814 33.8913 30.0346 35.6645H32.213C32.478 36.081 32.7701 36.4815 33.0876 36.8642C33.4051 36.4815 33.6972 36.081 33.9623 35.6645C35.094 33.8914 35.7416 31.8249 35.7416 29.619C35.7416 26.894 34.7526 24.3829 33.0875 22.3737Z" fill="#935D38"/>
<path d="M7.45105 35.6645C7.45105 36.8526 8.49339 37.8156 9.77925 37.8156H56.3957C57.6814 37.8156 58.7239 36.8526 58.7239 35.6645C58.7239 34.4766 57.6815 33.5134 56.3957 33.5134H9.77925C8.49351 33.5134 7.45105 34.4765 7.45105 35.6645Z" fill="#E6EFF5"/>
<path d="M56.3956 33.5134H53.2148C54.5006 33.5134 55.543 34.4765 55.543 35.6645C55.543 36.8525 54.5007 37.8156 53.2148 37.8156H56.3956C57.6815 37.8156 58.7238 36.8526 58.7238 35.6645C58.7238 34.4765 57.6815 33.5134 56.3956 33.5134Z" fill="#CDD6DE"/>
<path d="M47.9818 59.1212H18.1933C16.9324 59.1212 15.8449 58.3027 15.59 57.1618L11.2656 37.8157H54.9094L50.5852 57.1619C50.33 58.3029 49.2426 59.1212 47.9818 59.1212Z" fill="#80B9F9"/>
<path d="M51.6961 37.8157L47.3719 57.1619C47.1168 58.3029 46.0294 59.1213 44.7686 59.1213H47.9817C49.2426 59.1213 50.3301 58.3029 50.585 57.1619L54.9092 37.8157H51.6961Z" fill="#3185DB"/>
<path d="M51.7612 51.8996L53.4344 44.4138H12.7405L14.4136 51.8996H51.7612Z" fill="#E6EFF5"/>
<path d="M48.5481 51.8996H51.7612L53.4344 44.4138H50.2212L48.5481 51.8996Z" fill="#CDD6DE"/>
<path d="M56.2543 29.6186C56.2543 23.0302 50.4743 17.6912 43.3436 17.6912C39.1631 17.6912 35.4467 19.5263 33.0875 22.3741C31.4222 24.3827 30.4329 26.8941 30.4329 29.6187C30.4329 30.9816 30.6802 32.2918 31.1368 33.5129H37.4001V40.6931C37.4001 41.6477 38.2377 42.4216 39.2709 42.4216C40.3041 42.4216 41.1417 41.6477 41.1417 40.6931V39.5439C41.1417 38.5893 41.9794 37.8154 43.0126 37.8154C44.0458 37.8154 44.8834 38.5893 44.8834 39.5439V44.326C44.8834 45.2806 45.721 46.0545 46.7542 46.0545C47.7874 46.0545 48.625 45.2806 48.625 44.326V33.513H55.5504C56.007 32.2917 56.2543 30.9815 56.2543 29.6186Z" fill="#D70F64"/>
<path d="M43.3436 17.6912C43.0603 17.6912 42.7795 17.7003 42.5009 17.7169C48.4161 18.1163 53.0961 23.2908 53.0961 29.6186C53.0961 30.9815 52.8789 32.2917 52.4783 33.5128H55.5505C56.0071 32.2917 56.2544 30.9815 56.2544 29.6186C56.2544 23.0303 50.4744 17.6912 43.3436 17.6912Z" fill="#EA6C9D"/>
<path d="M27.7301 8.53271C27.2047 8.53271 26.7788 8.92623 26.7788 9.41162V10.2182C26.7788 10.7036 27.2047 11.0971 27.7301 11.0971C28.2554 11.0971 28.6813 10.7036 28.6813 10.2182V9.41162C28.6813 8.92623 28.2554 8.53271 27.7301 8.53271Z" fill="black"/>
<path d="M33.0875 8.53271C32.5621 8.53271 32.1362 8.92623 32.1362 9.41162V10.2182C32.1362 10.7036 32.5621 11.0971 33.0875 11.0971C33.6129 11.0971 34.0388 10.7036 34.0388 10.2182V9.41162C34.0388 8.92623 33.6129 8.53271 33.0875 8.53271Z" fill="black"/>
<path d="M38.4449 8.53271C37.9196 8.53271 37.4937 8.92623 37.4937 9.41162V10.2182C37.4937 10.7036 37.9196 11.0971 38.4449 11.0971C38.9703 11.0971 39.3962 10.7036 39.3962 10.2182V9.41162C39.3962 8.92623 38.9704 8.53271 38.4449 8.53271Z" fill="black"/>
<path d="M30.4088 12.8591C29.8834 12.8591 29.4575 13.2526 29.4575 13.738V14.5448C29.4575 15.0301 29.8834 15.4237 30.4088 15.4237C30.9341 15.4237 31.3601 15.0301 31.3601 14.5448V13.738C31.3601 13.2526 30.9341 12.8591 30.4088 12.8591Z" fill="black"/>
<path d="M35.7662 12.8591C35.2409 12.8591 34.8149 13.2526 34.8149 13.738V14.5448C34.8149 15.0301 35.2409 15.4237 35.7662 15.4237C36.2916 15.4237 36.7175 15.0301 36.7175 14.5448V13.738C36.7175 13.2526 36.2916 12.8591 35.7662 12.8591Z" fill="black"/>
<path d="M56.8103 32.6595C57.0715 31.669 57.2057 30.6509 57.2057 29.6188C57.2057 23.6671 52.7882 18.6509 46.8232 17.2211C46.9067 16.6498 46.9497 16.0708 46.9497 15.4906C46.9497 8.42841 40.7312 2.68294 33.0875 2.68294C26.7261 2.68294 21.3526 6.66275 19.7286 12.069L12.6445 0.731653C12.2081 0.0332156 11.2365 -0.207839 10.4776 0.19552L7.29271 1.89474C6.53677 2.2981 6.27599 3.19564 6.71244 3.89689L15.8674 18.547C14.6849 19.1822 13.6126 19.9706 12.674 20.904C12.3164 21.2596 12.3385 21.8157 12.7234 22.1461C13.1084 22.4766 13.7103 22.4561 14.0679 22.1004C15.0788 21.0952 16.2665 20.2812 17.5984 19.681C18.5547 19.2497 19.5694 18.9395 20.6134 18.7592C21.0114 18.6909 21.4116 18.6408 21.8078 18.6099C21.9397 18.5996 22.0711 18.5914 22.2019 18.5854C22.202 18.5854 22.2021 18.5854 22.2022 18.5854C22.2024 18.5854 22.2025 18.5854 22.2026 18.5854C22.4181 18.5753 22.6298 18.5702 22.8317 18.5702C26.3513 18.5702 29.6152 19.9602 31.8914 22.4062C30.3139 24.5349 29.4819 27.0133 29.4819 29.6187C29.4819 29.8018 29.486 29.9863 29.4944 30.1675C29.5167 30.6525 29.9595 31.0305 30.4853 31.0083C31.0102 30.9877 31.4176 30.5779 31.3953 30.0929C31.3881 29.9364 31.3845 29.7769 31.3845 29.6187C31.3845 27.1689 32.2347 24.8485 33.8434 22.9083C36.1273 20.1514 39.5903 18.57 43.344 18.57C49.9386 18.57 55.3035 23.5265 55.3035 29.6186C55.3035 30.6462 55.1521 31.6578 54.8529 32.6338H49.5767V30.7026C49.5767 30.2172 49.1508 29.8237 48.6254 29.8237C48.1001 29.8237 47.6742 30.2172 47.6742 30.7026V33.5127V44.3258C47.6742 44.7943 47.2617 45.1754 46.7546 45.1754C46.2475 45.1754 45.835 44.7943 45.835 44.3258V39.5437C45.835 38.1059 44.5691 36.9363 43.0129 36.9363C41.4568 36.9363 40.1909 38.1059 40.1909 39.5437V40.6928C40.1909 41.1613 39.7784 41.5424 39.2713 41.5424C38.7642 41.5424 38.3517 41.1613 38.3517 40.6928V33.5126C38.3517 33.0272 37.9258 32.6337 37.4005 32.6337L11.3256 32.6341C11.0262 31.6578 10.8724 30.6465 10.8724 29.6185C10.8724 27.9343 11.2723 26.3168 12.061 24.811C12.2898 24.374 12.092 23.8484 11.6191 23.637C11.1461 23.4256 10.5774 23.6083 10.3484 24.0453C9.4337 25.7917 8.96986 27.6668 8.96986 29.6185C8.96986 30.6506 9.10392 31.6687 9.36533 32.6591C7.75211 32.8481 6.50037 34.1231 6.50037 35.6641C6.50037 37.3348 7.97153 38.694 9.7797 38.694H10.4911L11.8084 44.5877C11.8089 44.5898 11.8093 44.5918 11.8098 44.5939L14.6586 57.3391C15.0031 58.881 16.4898 59.9999 18.1936 59.9999H47.9821C49.6859 59.9999 51.1725 58.881 51.517 57.3394L52.6925 52.0804C52.693 52.0779 52.6937 52.0755 52.6942 52.073L54.3659 44.594C54.3664 44.5919 54.3668 44.5899 54.3673 44.5878L55.6846 38.6941H56.396C58.2043 38.6941 59.6755 37.3348 59.6755 35.6642C59.6752 34.1234 58.4234 32.8484 56.8103 32.6595ZM18.9594 17.3188C18.9424 17.3234 18.9253 17.3275 18.9083 17.3322C18.7759 17.3683 18.6443 17.4065 18.513 17.4462C18.4743 17.4579 18.4357 17.4702 18.3972 17.4823C18.3014 17.5122 18.206 17.543 18.1109 17.5748C18.0687 17.5888 18.0266 17.603 17.9846 17.6175C17.8783 17.6542 17.7724 17.6922 17.667 17.7313C17.6429 17.7404 17.6185 17.7488 17.5944 17.7578C17.5882 17.7602 17.5817 17.7624 17.5755 17.7647L17.4339 17.538L19.1915 14.7251L19.2451 14.8109C19.2323 15.036 19.2255 15.2624 19.2255 15.4905C19.2255 16.0699 19.2685 16.6483 19.3519 17.219C19.3384 17.2222 19.3251 17.226 19.3117 17.2292C19.1937 17.2577 19.0764 17.2875 18.9594 17.3188ZM14.4969 12.8386L16.2548 10.0256L18.0929 12.9673L16.3351 15.7803L14.4969 12.8386ZM11.5602 8.13919L13.3183 5.32575L15.1564 8.26751L13.3985 11.0807L11.5602 8.13919ZM11.1551 1.86392L12.2199 3.56794L10.4618 6.38138L8.51794 3.27087L11.1551 1.86392ZM33.0875 21.003C30.4632 18.3272 26.7869 16.8125 22.8315 16.8125C22.5976 16.8125 22.3534 16.8183 22.1066 16.8299C21.8146 16.8434 21.5199 16.8666 21.2242 16.8981C21.1603 16.4331 21.1281 15.9623 21.1281 15.4905C21.1281 9.39755 26.4931 4.44075 33.0875 4.44075C39.682 4.44075 45.047 9.39767 45.047 15.4905C45.047 15.9626 45.0147 16.4338 44.9509 16.899C44.4234 16.8425 43.8872 16.8124 43.3436 16.8124C39.3881 16.8122 35.7119 18.3272 33.0875 21.003ZM8.40252 35.6644C8.40252 34.9629 9.02021 34.3924 9.77932 34.3924L36.4488 34.392V36.9366H11.2674C11.266 36.9366 11.2644 36.9366 11.263 36.9366H9.77932C9.02009 36.9366 8.40252 36.3659 8.40252 35.6644ZM49.6536 56.984C49.4907 57.713 48.7877 58.2421 47.9819 58.2421H18.1932C17.3874 58.2421 16.6844 57.713 16.5215 56.9839L13.9083 45.2928H40.9789C41.5042 45.2928 41.9301 44.8993 41.9301 44.4139C41.9301 43.9285 41.5042 43.535 40.9789 43.535H13.5154L12.4335 38.6943H36.4488V40.6931C36.4488 42.1308 37.7148 43.3005 39.2709 43.3005C40.8271 43.3005 42.093 42.1308 42.093 40.6931V39.5439C42.093 39.0754 42.5055 38.6943 43.0126 38.6943C43.5197 38.6943 43.9321 39.0754 43.9321 39.5439V44.326C43.9321 45.7638 45.1981 46.9334 46.7542 46.9334C47.9406 46.9334 48.9577 46.2531 49.3744 45.2928H52.2666L50.9863 51.0207H18.3589C17.8335 51.0207 17.4076 51.4142 17.4076 51.8996C17.4076 52.385 17.8335 52.7785 18.3589 52.7785H50.5935L49.6536 56.984ZM52.6596 43.535H49.5764V38.6943H53.7416L52.6596 43.535ZM56.3958 36.9366H54.9127C54.9109 36.9366 54.9091 36.9366 54.9073 36.9366H49.5763V34.3924H56.3956C57.1549 34.3924 57.7726 34.9631 57.7726 35.6644C57.7726 36.3658 57.155 36.9366 56.3958 36.9366Z" fill="black"/>
</g>
<defs>
<clipPath id="clip0">
<rect width="64.9399" height="60" fill="white" transform="translate(0.61792)"/>
</clipPath>
</defs>
</svg>
