<svg width="19" height="22" viewBox="0 0 19 22" fill="none" xmlns="http://www.w3.org/2000/svg">
<path d="M15.157 15.4138L10.914 19.6568C10.7284 19.8425 10.5081 19.9899 10.2656 20.0904C10.023 20.1909 9.76305 20.2427 9.5005 20.2427C9.23796 20.2427 8.97798 20.1909 8.73544 20.0904C8.49291 19.9899 8.27256 19.8425 8.087 19.6568L3.843 15.4138C2.72422 14.295 1.96234 12.8695 1.65369 11.3177C1.34504 9.76581 1.50349 8.1573 2.10901 6.69552C2.71452 5.23373 3.7399 3.98433 5.05548 3.10529C6.37107 2.22626 7.91777 1.75708 9.5 1.75708C11.0822 1.75708 12.6289 2.22626 13.9445 3.10529C15.2601 3.98433 16.2855 5.23373 16.891 6.69552C17.4965 8.1573 17.655 9.76581 17.3463 11.3177C17.0377 12.8695 16.2758 14.295 15.157 15.4138V15.4138Z" stroke="#D70F64" stroke-width="2" stroke-linecap="round" stroke-linejoin="round"/>
<path d="M12.5 9.75684C12.5 10.5525 12.1839 11.3155 11.6213 11.8782C11.0587 12.4408 10.2956 12.7568 9.5 12.7568C8.70435 12.7568 7.94129 12.4408 7.37868 11.8782C6.81607 11.3155 6.5 10.5525 6.5 9.75684C6.5 8.96119 6.81607 8.19812 7.37868 7.63552C7.94129 7.07291 8.70435 6.75684 9.5 6.75684C10.2956 6.75684 11.0587 7.07291 11.6213 7.63552C12.1839 8.19812 12.5 8.96119 12.5 9.75684V9.75684Z" stroke="#D70F64" stroke-width="2" stroke-linecap="round" stroke-linejoin="round"/>
</svg>
