<svg width="177" height="40" viewBox="0 0 177 40" fill="none" xmlns="http://www.w3.org/2000/svg">
<path d="M38.6982 13.3929H40.918V11.2619C40.918 8.68702 42.3386 7 45.1799 7L46.6006 7.26637V9.8413L45.0911 9.57493C44.2032 9.57493 43.8481 10.1077 43.8481 10.9956V13.3929H46.6894V15.9678H43.8481V26.6227H41.0068V15.9678H38.6982V13.3929Z" fill="#D70F64"/>
<path d="M53.8814 13.1267C57.5218 13.1267 60.8071 15.968 60.8071 20.0524C60.8071 24.1367 57.6106 26.978 53.8814 26.978C50.1522 26.978 46.9557 24.1367 46.9557 20.0524C46.9557 15.8792 50.241 13.1267 53.8814 13.1267ZM53.8814 24.4031C56.5451 24.4031 57.9658 22.4497 57.9658 20.0524C57.9658 17.655 56.5451 15.7016 53.8814 15.7016C51.2177 15.7016 49.797 17.655 49.797 20.0524C49.797 22.3609 51.2177 24.4031 53.8814 24.4031Z" fill="#D70F64"/>
<path d="M68.887 13.1267C72.5274 13.1267 75.8127 15.968 75.8127 20.0524C75.8127 24.1367 72.6162 26.978 68.887 26.978C65.1578 26.978 61.9613 24.1367 61.9613 20.0524C62.0501 15.8792 65.2466 13.1267 68.887 13.1267ZM68.887 24.4031C71.5507 24.4031 72.9714 22.4497 72.9714 20.0524C72.9714 17.655 71.5507 15.7016 68.887 15.7016C66.2233 15.7016 64.8026 17.655 64.8026 20.0524C64.8026 22.3609 66.2233 24.4031 68.887 24.4031Z" fill="#D70F64"/>
<path d="M90.5519 26.6228H87.977L87.7106 25.4685L87.533 25.2909L87.3554 25.4685C86.4675 26.3564 85.1357 26.8892 83.715 26.8892C80.0746 26.8892 76.9669 24.0479 76.9669 19.9635C76.9669 15.8791 80.0746 13.0378 83.715 13.0378C85.1357 13.0378 86.5563 13.5706 87.3554 14.4585L87.533 14.6361L87.7106 14.4585V7.08887H90.5519V26.6228ZM83.8926 15.6128C81.2289 15.6128 79.8082 17.5662 79.8082 19.9635C79.8082 22.3608 81.2289 24.3142 83.8926 24.3142C86.2899 24.3142 87.977 22.3608 87.977 19.9635C87.977 17.6549 86.2899 15.6128 83.8926 15.6128Z" fill="#D70F64"/>
<path d="M93.3932 13.3931H95.9681L96.2345 14.5474L96.4121 14.7249L96.5897 14.5474C97.4776 13.6595 98.8094 13.1267 100.23 13.1267C103.87 13.1267 106.978 15.968 106.978 20.0524C106.978 24.1367 103.87 26.978 100.23 26.978C98.8094 26.978 97.3888 26.4453 96.5897 25.5574L96.4121 25.3798L96.2345 25.5574V32.6606H93.482V13.3931H93.3932ZM99.9637 24.4031C102.627 24.4031 104.048 22.4497 104.048 20.0524C104.048 17.655 102.627 15.7016 99.9637 15.7016C97.5663 15.7016 95.8793 17.655 95.8793 20.0524C95.8793 22.3609 97.5663 24.4031 99.9637 24.4031Z" fill="#D70F64"/>
<path d="M113.993 18.3653H116.301V17.7437C116.301 16.1455 115.236 15.4352 113.726 15.4352C112.483 15.4352 111.684 16.0567 111.24 17.211L108.754 16.6783C109.287 14.4585 111.24 13.0378 113.815 13.0378C117.367 13.0378 119.142 14.8137 119.142 18.2765V26.534H116.834L116.568 24.7582C115.68 26.0901 114.259 26.7116 112.394 26.7116C109.997 26.7116 108.31 25.2909 108.31 22.6272C108.221 20.0523 110.53 18.3653 113.993 18.3653ZM112.75 24.403C113.637 24.403 114.525 24.1367 115.147 23.5151C115.857 22.8936 116.212 22.0945 116.212 21.029V20.7626H113.815C112.128 20.7626 111.063 21.5617 111.063 22.8048C111.063 23.6927 111.684 24.403 112.75 24.403Z" fill="#D70F64"/>
<path d="M121.629 13.3931H124.203L124.47 14.5474L124.647 14.7249L124.825 14.5474C125.358 13.6595 126.778 13.1267 127.933 13.1267C131.307 13.1267 133.26 15.3465 133.26 18.4541V26.6229H130.419V18.4541C130.33 16.6783 129.442 15.6128 127.578 15.6128C125.891 15.6128 124.559 16.9447 124.47 18.6317V26.6229H121.629V13.3931Z" fill="#D70F64"/>
<path d="M148.443 26.6228H145.868L145.602 25.4685L145.425 25.2909L145.247 25.4685C144.359 26.3564 143.027 26.8892 141.607 26.8892C137.966 26.8892 134.858 24.0479 134.858 19.9635C134.858 15.8791 137.966 13.0378 141.607 13.0378C143.027 13.0378 144.448 13.5706 145.247 14.4585L145.425 14.6361L145.602 14.4585V7.08887H148.443V26.6228ZM141.873 15.6128C139.209 15.6128 137.789 17.5662 137.789 19.9635C137.789 22.3608 139.209 24.3142 141.873 24.3142C144.27 24.3142 145.957 22.3608 145.957 19.9635C145.957 17.6549 144.27 15.6128 141.873 15.6128Z" fill="#D70F64"/>
<path d="M156.523 18.3653H158.832V17.7437C158.832 16.1455 157.766 15.4352 156.257 15.4352C155.014 15.4352 154.215 16.0567 153.771 17.211L151.285 16.6783C151.817 14.4585 153.771 13.0378 156.346 13.0378C159.897 13.0378 161.673 14.8137 161.673 18.2765V26.534H159.365L159.098 24.7582C158.21 26.0901 156.79 26.7116 154.925 26.7116C152.528 26.7116 150.841 25.2909 150.841 22.6272C150.752 20.0523 152.972 18.3653 156.523 18.3653ZM155.28 24.403C156.168 24.403 157.056 24.1367 157.678 23.5151C158.388 22.8936 158.743 22.0945 158.743 21.029V20.7626H156.346C154.659 20.7626 153.593 21.5617 153.593 22.8048C153.593 23.6927 154.215 24.403 155.28 24.403Z" fill="#D70F64"/>
<path d="M19.0755 25.7583C20.6738 25.7583 22.0056 24.604 22.0056 23.1833H16.1454C16.1454 24.604 17.3885 25.7583 19.0755 25.7583Z" fill="#D70F64"/>
<path d="M28.9313 13.505C29.6416 12.9723 29.9967 12.0844 29.9967 11.1077C29.9967 9.33186 28.5761 8 26.8003 8C25.646 8 24.6693 8.53274 24.1366 9.42065C22.5384 8.62153 20.7625 8.26637 18.9867 8.26637C17.1221 8.26637 15.3463 8.71032 13.8369 9.42065C13.3041 8.53274 12.3274 8 11.1732 8C9.39734 8 7.97669 9.42065 7.97669 11.1077C7.97669 12.0844 8.42065 12.8835 9.04219 13.505C7.71033 15.4584 7 17.6782 7 20.1643C7 26.7348 12.3274 32.151 18.9867 32.151C25.5572 32.151 30.9735 26.8236 30.9735 20.1643C30.9735 17.6782 30.2631 15.3696 28.9313 13.505ZM19.0755 31.1743C13.0377 31.1743 8.06548 26.2021 8.06548 20.1643C8.06548 17.8558 8.77581 15.7248 9.93009 13.949C10.9956 12.3507 12.505 11.0189 14.2808 10.2198C15.7015 9.50944 17.3885 9.15428 19.0755 9.15428C20.7625 9.15428 22.4496 9.50944 23.8702 10.2198C25.646 11.1077 27.0667 12.3507 28.2209 13.949C29.3752 15.7248 30.0855 17.8558 30.0855 20.1643C30.0855 26.2021 25.1133 31.1743 19.0755 31.1743Z" fill="#D70F64"/>
<path d="M19.0755 22.473C19.2531 22.5618 21.1177 21.8515 21.1177 20.9636C21.1177 20.4308 19.6082 20.342 19.0755 20.342C18.5428 20.342 17.0333 20.4308 17.0333 20.9636C16.9445 21.8515 18.8979 22.5618 19.0755 22.473Z" fill="#D70F64"/>
<path d="M26.0012 15.0148C24.9357 14.3045 22.6271 13.9493 21.7392 15.1036C21.7392 15.1036 20.585 16.3467 21.7392 17.5897C22.8935 18.8328 23.6926 20.0759 23.959 21.0526C24.2254 22.118 24.6693 22.4732 25.4685 22.4732C26.2676 22.4732 27.8658 21.2301 28.1322 19.1879C28.3098 17.1458 27.0667 15.6363 26.0012 15.0148ZM23.6038 17.5897C23.2487 17.5897 22.9823 17.3233 22.9823 16.9682C22.9823 16.613 23.2487 16.3467 23.6038 16.3467C23.959 16.3467 24.2254 16.613 24.2254 16.9682C24.2254 17.3233 23.959 17.5897 23.6038 17.5897Z" fill="#D70F64"/>
<path d="M16.323 15.1036C15.4351 13.9493 13.1265 14.3045 12.0611 15.0148C10.9956 15.7251 9.7525 17.1458 9.93009 19.1879C10.1077 21.2301 11.7059 22.4732 12.5938 22.4732C13.3929 22.4732 13.8369 22.0292 14.1032 21.0526C14.3696 19.9871 15.2575 18.8328 16.323 17.5897C17.4773 16.2579 16.323 15.1036 16.323 15.1036ZM14.636 17.5897C14.2808 17.5897 14.0144 17.3233 14.0144 16.9682C14.0144 16.613 14.2808 16.3467 14.636 16.3467C14.9911 16.3467 15.2575 16.613 15.2575 16.9682C15.2575 17.3233 14.9911 17.5897 14.636 17.5897Z" fill="#D70F64"/>
</svg>
