<svg width="66" height="60" viewBox="0 0 66 60" fill="none" xmlns="http://www.w3.org/2000/svg">
<g clip-path="url(#clip0)">
<path d="M3.20182 30C2.10688 30 1.2329 30.8524 1.30226 31.8622C1.93991 41.2001 7.34182 49.3428 15.2864 54.2409C16.1965 54.8016 17.4317 54.5252 17.9787 53.6504L32.7575 30H3.20182Z" fill="#FFA000"/>
<path d="M47.5369 53.6531L32.7565 30L17.9757 53.6531C17.4297 54.527 17.786 55.6522 18.764 56.1003C22.9798 58.0339 27.7307 59.1211 32.756 59.1211C37.7819 59.1211 42.5328 58.0339 46.7486 56.1003C47.7266 55.6522 48.0828 54.527 47.5369 53.6531Z" fill="#FFA000"/>
<path d="M17.9787 6.34966C17.4317 5.47487 16.1965 5.19838 15.2864 5.75914C7.34182 10.6572 1.93991 18.7999 1.30226 28.1378C1.2329 29.1477 2.10688 30 3.20182 30H32.7575L17.9787 6.34966Z" fill="#FFA000"/>
<path d="M46.7486 3.89923C42.5328 1.96609 37.7819 0.878906 32.756 0.878906C27.7307 0.878906 22.9798 1.96609 18.764 3.89923C17.786 4.34784 17.4297 5.47302 17.9757 6.34644L32.7565 30L47.5369 6.34689C48.0828 5.47302 47.7266 4.34784 46.7486 3.89923Z" fill="#FFA000"/>
<path d="M64.2118 28.1378C63.5736 18.7999 58.1722 10.6572 50.2272 5.75914C49.3175 5.19838 48.0818 5.47487 47.5349 6.34966L32.7565 30H45.5669L45.5664 35.8667C45.5664 37.0661 46.6188 38.0383 47.9169 38.0383H47.9773C49.3274 38.0383 50.412 37.0363 50.412 35.7999V34.9938C50.412 34.2233 51.0878 33.5994 51.9211 33.5994C52.755 33.5994 53.4307 34.2238 53.4307 34.9938V41.2583C53.4307 42.2012 54.2582 42.9662 55.2788 42.9662C56.2994 42.9662 57.1268 42.2012 57.1268 41.2583V30H62.3112C63.4067 30 64.2806 29.1477 64.2118 28.1378Z" fill="#FFA000"/>
<path d="M6.4649 30C6.4649 31.4529 6.09827 32.9169 6.36036 34.3002C6.63039 35.723 7.52121 36.9832 8.04391 38.3102C8.57603 39.6611 8.7752 41.1539 9.54414 42.382C10.3205 43.6212 11.6245 44.5244 12.6154 45.6143C13.6093 46.7075 14.3471 48.0496 15.5302 48.9679C16.7099 49.8834 18.2671 50.3233 19.6083 51.0406L32.7566 30H6.4649Z" fill="#FFE082"/>
<path d="M26.2186 30L14.79 48.2886C16.2407 49.8207 17.842 50.0963 19.6082 51.0406L32.7566 30H26.2186Z" fill="#FFB300"/>
<path d="M19.6083 51.0406C20.9326 51.7474 22.1247 52.7811 23.5882 53.2732C25.0246 53.7561 26.6496 53.6769 28.1895 53.9264C29.6868 54.1685 31.184 54.76 32.7566 54.76C34.3291 54.76 35.8259 54.1685 37.3232 53.9264C38.863 53.6769 40.4881 53.7561 41.9244 53.2732C43.3865 52.7815 44.5746 51.7511 45.9034 51.0406C45.9039 51.0406 45.9039 51.0406 45.9044 51.0402L32.7566 30L19.6083 51.0406Z" fill="#FFE082"/>
<path d="M32.7565 30L30.9521 32.8876L40.8309 48.6969C40.8304 48.6969 40.8304 48.6969 40.8299 48.6969C39.5011 49.4073 38.313 50.4378 36.851 50.9294C35.4146 51.4128 33.7896 51.3332 32.2497 51.5826C30.7524 51.8248 29.2557 52.4162 27.6831 52.4162C26.1105 52.4162 24.6133 51.8248 23.116 51.5826C22.085 51.4156 21.0158 51.3954 19.9907 51.2558C21.1704 51.9461 22.2678 52.8291 23.5882 53.2732C25.025 53.7566 26.6496 53.6774 28.1895 53.9264C29.6872 54.1685 31.184 54.7604 32.7565 54.7604C34.3291 54.7604 35.8259 54.1685 37.3231 53.9264C38.8635 53.6774 40.4881 53.7566 41.9244 53.2732C43.3865 52.7815 44.5746 51.7516 45.9038 51.0411C45.9038 51.0406 45.9038 51.0406 45.9043 51.0406L32.7565 30Z" fill="#FFB300"/>
<path d="M19.6083 8.95923C18.2671 9.67654 16.7099 10.1165 15.5302 11.032C14.3471 11.9503 13.6093 13.2924 12.6154 14.386C11.624 15.476 10.3205 16.3787 9.54414 17.6183C8.7752 18.846 8.57603 20.3392 8.04391 21.6896C7.52071 23.0167 6.63039 24.2769 6.36036 25.6996C6.09827 27.083 6.4649 28.5469 6.4649 29.9999H32.7566L19.6083 8.95923Z" fill="#FFE082"/>
<path d="M19.6082 8.95923C18.712 9.43851 17.7191 9.79465 16.8069 10.2515L25.4858 24.1405C26.4623 25.7029 25.242 27.6561 23.2889 27.6561H6.30188C6.35886 28.4311 6.46488 29.2171 6.46488 29.9999H32.7565L19.6082 8.95923Z" fill="#FFB300"/>
<path d="M41.9244 6.72681C40.4881 6.24387 38.863 6.32306 37.3232 6.07358C35.8259 5.83142 34.3286 5.23999 32.7561 5.23999C31.1835 5.23999 29.6868 5.83142 28.1895 6.07358C26.6496 6.32306 25.0246 6.24387 23.5882 6.72681C22.2272 7.18457 21.2794 8.00946 19.6083 8.95932L32.7566 30L45.9044 8.95932C44.58 8.25253 43.388 7.2189 41.9244 6.72681Z" fill="#FFE082"/>
<path d="M41.9244 6.72681C41.4497 6.56705 40.9543 6.46954 40.4489 6.40088C40.5723 6.47321 40.7031 6.54736 40.8309 6.61603L29.4871 24.7686L32.7565 30L45.9044 8.95932C44.58 8.25253 43.388 7.2189 41.9244 6.72681Z" fill="#FFB300"/>
<path d="M57.1268 29.9999H59.0477C59.0477 28.5469 59.4143 27.083 59.1522 25.6996C58.8822 24.2769 57.9914 23.0167 57.4687 21.6896C56.9366 20.3388 56.7374 18.846 55.9685 17.6178C55.1921 16.3787 53.888 15.4755 52.8971 14.3856C51.9033 13.2924 51.1655 11.9503 49.9824 11.032C48.8027 10.1165 47.2455 9.67654 45.9043 8.95923L32.7565 29.9999H45.5669L45.5664 35.8666C45.5664 37.0659 46.6188 38.0382 47.9169 38.0382H47.9773C49.3274 38.0382 50.412 37.0362 50.412 35.7997V34.9936C50.412 34.2232 51.0878 33.5993 51.9211 33.5993C52.7549 33.5993 53.4303 34.2232 53.4303 34.9936V41.2581C53.4303 42.2011 54.2582 42.9656 55.2788 42.9656C56.2994 42.9656 57.1268 42.2011 57.1268 41.2581V29.9999Z" fill="#FFE082"/>
<path d="M59.1522 25.6996C58.8822 24.2769 57.9914 23.0167 57.4687 21.6896C56.9366 20.3388 56.7374 18.846 55.9685 17.6178C55.1921 16.3787 53.888 15.4755 52.8971 14.3856C51.9033 13.2924 51.1655 11.9503 49.9824 11.032C48.8027 10.1165 47.2455 9.67654 45.9043 8.95923L45.6492 9.36755C46.4374 10.2002 47.0543 11.1954 47.8237 12.0418C48.8146 13.1317 50.1187 14.0349 50.895 15.2741C51.664 16.5023 51.8631 17.995 52.3953 19.3459C52.9184 20.6729 53.8088 21.9327 54.0788 23.3559C54.0813 23.3696 54.0838 23.3834 54.0862 23.3971C54.489 25.6319 52.5845 27.6561 50.1325 27.6561H34.2211L32.7565 29.9999H52.0534V33.6052C52.8248 33.6675 53.4307 34.2649 53.4307 34.9936V41.2581C53.4307 42.2016 54.2582 42.966 55.2788 42.966C56.2994 42.966 57.1268 42.2011 57.1268 41.2581V29.9999H59.0477C59.0477 28.5469 59.4143 27.083 59.1522 25.6996Z" fill="#FFB300"/>
<path d="M33.6974 46.89C33.6974 48.814 32.0089 50.3736 29.9265 50.3736C27.8441 50.3736 26.1556 48.814 26.1556 46.89C26.1556 44.9661 27.8441 43.406 29.9265 43.406C32.0089 43.406 33.6974 44.9661 33.6974 46.89Z" fill="#EF5350"/>
<path d="M21.9408 41.3654C21.9408 43.2894 20.2528 44.8495 18.1699 44.8495C16.0875 44.8495 14.3995 43.2894 14.3995 41.3654C14.3995 39.4414 16.0875 37.8818 18.1699 37.8818C20.2528 37.8818 21.9408 39.4414 21.9408 41.3654Z" fill="#EF5350"/>
<path d="M25.0438 23.4206C25.0438 25.3445 23.3553 26.9046 21.273 26.9046C19.1906 26.9046 17.5021 25.3445 17.5021 23.4206C17.5021 21.4966 19.1906 19.9365 21.273 19.9365C23.3553 19.9365 25.0438 21.4966 25.0438 23.4206Z" fill="#EF5350"/>
<path d="M32.9607 11.6154C32.9607 13.5394 31.2722 15.0994 29.1898 15.0994C27.1074 15.0994 25.4194 13.5394 25.4194 11.6154C25.4194 9.69141 27.1074 8.13135 29.1898 8.13135C31.2722 8.13135 32.9607 9.69141 32.9607 11.6154Z" fill="#EF5350"/>
<path d="M49.5242 15.9273C49.5242 16.8896 48.6799 17.6691 47.639 17.6691C46.5975 17.6691 45.7533 16.8896 45.7533 15.9273C45.7533 14.9651 46.5975 14.1855 47.639 14.1855C48.6799 14.1855 49.5242 14.9651 49.5242 15.9273Z" fill="#FFA000"/>
<path d="M43.4569 24.9742C43.4569 25.9364 42.6126 26.7165 41.5712 26.7165C40.5302 26.7165 39.686 25.9364 39.686 24.9742C39.686 24.012 40.5302 23.2324 41.5712 23.2324C42.6126 23.2324 43.4569 24.012 43.4569 24.9742Z" fill="#FFA000"/>
<path d="M41.2446 10.7015C41.2446 11.6637 40.4004 12.4433 39.3594 12.4433C38.318 12.4433 37.4738 11.6637 37.4738 10.7015C37.4738 9.73926 38.318 8.95923 39.3594 8.95923C40.4004 8.95923 41.2446 9.73926 41.2446 10.7015Z" fill="#FFA000"/>
<path d="M34.6418 20.3392C34.6418 21.3014 33.7975 22.0815 32.7561 22.0815C31.7152 22.0815 30.8709 21.3014 30.8709 20.3392C30.8709 19.3774 31.7152 18.5974 32.7561 18.5974C33.7975 18.5974 34.6418 19.3774 34.6418 20.3392Z" fill="#FFA000"/>
<path d="M13.5147 25.6773C13.5147 26.6396 12.6705 27.4196 11.6295 27.4196C10.5881 27.4196 9.74384 26.6396 9.74384 25.6773C9.74384 24.7151 10.5881 23.9355 11.6295 23.9355C12.6705 23.9355 13.5147 24.7151 13.5147 25.6773Z" fill="#FFA000"/>
<path d="M24.3428 33.9407C24.3428 34.9025 23.4986 35.6825 22.4576 35.6825C21.4162 35.6825 20.572 34.9025 20.572 33.9407C20.572 32.9785 21.4162 32.1985 22.4576 32.1985C23.4986 32.1985 24.3428 32.9785 24.3428 33.9407Z" fill="#FFA000"/>
<path d="M19.9784 14.6102C19.6866 13.6869 18.6392 13.1568 17.6398 13.4269C16.6405 13.6965 16.0673 14.6642 16.3591 15.5876C16.6514 16.5109 17.6983 17.0405 18.6976 16.7709C19.697 16.5008 20.2707 15.5335 19.9784 14.6102Z" fill="#FFA000"/>
<path d="M14.1946 35.2257C14.1946 36.1879 13.3503 36.9679 12.3089 36.9679C11.268 36.9679 10.4237 36.1879 10.4237 35.2257C10.4237 34.2635 11.268 33.4839 12.3089 33.4839C13.3503 33.4839 14.1946 34.2635 14.1946 35.2257Z" fill="#FFA000"/>
<path d="M40.7477 48.6317C40.7477 49.5939 39.904 50.3739 38.8626 50.3739C37.8211 50.3739 36.9774 49.5939 36.9774 48.6317C36.9774 47.6699 37.8211 46.8899 38.8626 46.8899C39.904 46.8899 40.7477 47.6699 40.7477 48.6317Z" fill="#FFA000"/>
<path d="M34.6418 38.7098C34.6418 39.6715 33.7975 40.4516 32.7561 40.4516C31.7152 40.4516 30.8709 39.6715 30.8709 38.7098C30.8709 37.7476 31.7152 36.9675 32.7561 36.9675C33.7975 36.9675 34.6418 37.7476 34.6418 38.7098Z" fill="#FFA000"/>
<path d="M54.6139 23.6549C54.6139 25.5789 52.9254 27.139 50.843 27.139C48.7606 27.139 47.0726 25.5789 47.0726 23.6549C47.0726 21.731 48.7606 20.1709 50.843 20.1709C52.9254 20.1709 54.6139 21.731 54.6139 23.6549Z" fill="#EF5350"/>
<path d="M30.7113 43.4822C32.2136 46.058 29.7769 49.1607 26.605 48.54C27.2417 49.6318 28.4902 50.3738 29.9266 50.3738C32.0094 50.3738 33.6974 48.8142 33.6974 46.8902C33.6974 45.2148 32.4172 43.8159 30.7113 43.4822Z" fill="#D32F2F"/>
<path d="M18.9548 37.9578C20.457 40.5331 18.0208 43.6359 14.8484 43.0156C15.4856 44.1074 16.7336 44.8494 18.1705 44.8494C20.2528 44.8494 21.9408 43.2893 21.9408 41.3654C21.9408 39.6899 20.6606 38.2915 18.9548 37.9578Z" fill="#D32F2F"/>
<path d="M22.0578 20.0125C23.5595 22.5883 21.1234 25.691 17.9515 25.0703C18.5881 26.162 19.8367 26.9045 21.273 26.9045C23.3554 26.9045 25.0439 25.3445 25.0439 23.4205C25.0439 21.7451 23.7636 20.3462 22.0578 20.0125Z" fill="#D32F2F"/>
<path d="M29.9746 8.20728C31.4763 10.7831 29.0407 13.8858 25.8683 13.2651C26.5049 14.3569 27.7535 15.0994 29.1898 15.0994C31.2722 15.0994 32.9607 13.5393 32.9607 11.6153C32.9607 9.93991 31.6804 8.54144 29.9746 8.20728Z" fill="#D32F2F"/>
<path d="M51.6278 20.2473C53.13 22.8227 50.6939 25.9259 47.5215 25.3051C48.1581 26.3969 49.4067 27.1389 50.843 27.1389C52.9259 27.1389 54.6139 25.5789 54.6139 23.6549C54.6139 21.9795 53.3336 20.5806 51.6278 20.2473Z" fill="#D32F2F"/>
<path d="M34.6487 46.89C34.6487 44.4845 32.5302 42.5271 29.9266 42.5271C27.3225 42.5271 25.2044 44.4845 25.2044 46.89C25.2044 49.2956 27.323 51.2525 29.9266 51.2525C32.5302 51.2525 34.6487 49.2956 34.6487 46.89ZM27.1069 46.89C27.1069 45.4536 28.3718 44.2849 29.9266 44.2849C31.4813 44.2849 32.7462 45.4536 32.7462 46.89C32.7462 48.3265 31.4813 49.4947 29.9266 49.4947C28.3718 49.4947 27.1069 48.3265 27.1069 46.89Z" fill="black"/>
<path d="M18.17 37.0029C15.5664 37.0029 13.4483 38.9599 13.4483 41.3654C13.4483 43.771 15.5664 45.7284 18.17 45.7284C20.7741 45.7284 22.8921 43.771 22.8921 41.3654C22.8921 38.9599 20.7741 37.0029 18.17 37.0029ZM18.17 43.9706C16.6157 43.9706 15.3508 42.8019 15.3508 41.3654C15.3508 39.929 16.6157 38.7607 18.17 38.7607C19.7247 38.7607 20.9896 39.929 20.9896 41.3654C20.9896 42.8019 19.7247 43.9706 18.17 43.9706Z" fill="black"/>
<path d="M21.273 19.0576C18.6689 19.0576 16.5508 21.015 16.5508 23.4206C16.5508 25.8261 18.6689 27.7835 21.273 27.7835C23.8766 27.7835 25.9947 25.8261 25.9947 23.4206C25.9947 21.015 23.8766 19.0576 21.273 19.0576ZM21.273 26.0257C19.7183 26.0257 18.4534 24.857 18.4534 23.4206C18.4534 21.9841 19.7183 20.8154 21.273 20.8154C22.8272 20.8154 24.0921 21.9841 24.0921 23.4206C24.0921 24.857 22.8277 26.0257 21.273 26.0257Z" fill="black"/>
<path d="M33.9119 11.6154C33.9119 9.20984 31.7934 7.25244 29.1898 7.25244C26.5862 7.25244 24.4681 9.20984 24.4681 11.6154C24.4681 14.0209 26.5862 15.9783 29.1898 15.9783C31.7934 15.9783 33.9119 14.0209 33.9119 11.6154ZM26.3702 11.6154C26.3702 10.1789 27.6351 9.01025 29.1898 9.01025C30.7445 9.01025 32.0094 10.1789 32.0094 11.6154C32.0094 13.0518 30.7445 14.2205 29.1898 14.2205C27.6351 14.2205 26.3702 13.0518 26.3702 11.6154Z" fill="black"/>
<path d="M50.4754 15.9273C50.4754 14.4822 49.2031 13.3066 47.639 13.3066C46.0748 13.3066 44.802 14.4822 44.802 15.9273C44.802 17.3725 46.0748 18.548 47.639 18.548C49.2031 18.548 50.4754 17.3725 50.4754 15.9273ZM46.7045 15.9273C46.7045 15.4513 47.1237 15.0645 47.639 15.0645C48.1542 15.0645 48.5729 15.4513 48.5729 15.9273C48.5729 16.4034 48.1542 16.7902 47.639 16.7902C47.1237 16.7902 46.7045 16.4034 46.7045 15.9273Z" fill="black"/>
<path d="M41.5711 22.3535C40.007 22.3535 38.7347 23.5291 38.7347 24.9742C38.7347 26.4194 40.007 27.5954 41.5711 27.5954C43.1353 27.5954 44.4081 26.4194 44.4081 24.9742C44.4081 23.5291 43.1353 22.3535 41.5711 22.3535ZM41.5711 25.8376C41.0564 25.8376 40.6372 25.4503 40.6372 24.9742C40.6372 24.4986 41.0564 24.1113 41.5711 24.1113C42.0864 24.1113 42.5056 24.4986 42.5056 24.9742C42.5056 25.4503 42.0864 25.8376 41.5711 25.8376Z" fill="black"/>
<path d="M39.3594 13.3222C40.9236 13.3222 42.1959 12.1466 42.1959 10.7015C42.1959 9.25632 40.9236 8.08032 39.3594 8.08032C37.7953 8.08032 36.5229 9.25632 36.5229 10.7015C36.5229 12.1466 37.7953 13.3222 39.3594 13.3222ZM39.3594 9.83814C39.8742 9.83814 40.2933 10.2254 40.2933 10.7015C40.2933 11.1776 39.8742 11.5644 39.3594 11.5644C38.8441 11.5644 38.4255 11.1771 38.4255 10.7015C38.4255 10.2254 38.8441 9.83814 39.3594 9.83814Z" fill="black"/>
<path d="M29.9196 20.3394C29.9196 21.7846 31.1924 22.9606 32.7566 22.9606C34.3207 22.9606 35.593 21.7846 35.593 20.3394C35.593 18.8943 34.3207 17.7188 32.7566 17.7188C31.1919 17.7188 29.9196 18.8943 29.9196 20.3394ZM33.6905 20.3394C33.6905 20.8155 33.2713 21.2028 32.7561 21.2028C32.2413 21.2028 31.8222 20.8155 31.8222 20.3394C31.8222 19.8638 32.2413 19.4766 32.7561 19.4766C33.2713 19.4766 33.6905 19.8638 33.6905 20.3394Z" fill="black"/>
<path d="M11.6295 23.0566C10.0654 23.0566 8.79303 24.2322 8.79303 25.6773C8.79303 27.1225 10.0654 28.2985 11.6295 28.2985C13.1936 28.2985 14.466 27.1225 14.466 25.6773C14.466 24.2322 13.1936 23.0566 11.6295 23.0566ZM11.6295 26.5407C11.1142 26.5407 10.6956 26.1534 10.6956 25.6773C10.6956 25.2017 11.1142 24.8145 11.6295 24.8145C12.1443 24.8145 12.5634 25.2017 12.5634 25.6773C12.5634 26.1534 12.1443 26.5407 11.6295 26.5407Z" fill="black"/>
<path d="M22.4576 36.5617C24.0218 36.5617 25.2941 35.3861 25.2941 33.941C25.2941 32.4958 24.0213 31.3198 22.4576 31.3198C20.8935 31.3198 19.6207 32.4958 19.6207 33.941C19.6207 35.3861 20.8935 36.5617 22.4576 36.5617ZM22.4576 33.0776C22.9724 33.0776 23.3916 33.4649 23.3916 33.941C23.3916 34.4166 22.9724 34.8039 22.4576 34.8039C21.9424 34.8039 21.5232 34.4166 21.5232 33.941C21.5232 33.4649 21.9424 33.0776 22.4576 33.0776Z" fill="black"/>
<path d="M18.1665 17.7215C18.4336 17.7215 18.7026 17.6862 18.9662 17.6148C20.4674 17.2092 21.332 15.7513 20.893 14.3638C20.6804 13.6922 20.1974 13.1365 19.533 12.8005C18.8681 12.4641 18.1016 12.3872 17.3743 12.5835C15.8731 12.9891 15.0085 14.4471 15.4475 15.8341C15.66 16.5061 16.1431 17.0618 16.8075 17.3978C17.2311 17.6121 17.6963 17.7215 18.1665 17.7215ZM17.9084 14.2709C17.9951 14.2475 18.0838 14.2356 18.1715 14.2356C18.3265 14.2356 18.4796 14.2718 18.6189 14.3423C18.8378 14.453 18.9969 14.6357 19.0667 14.8572C19.2114 15.3141 18.9265 15.7943 18.4326 15.9275C18.1928 15.992 17.9406 15.9669 17.7216 15.8561C17.5031 15.7453 17.3441 15.5627 17.2737 15.3411C17.129 14.8847 17.4139 14.4045 17.9084 14.2709Z" fill="black"/>
<path d="M15.1452 35.2259C15.1452 33.7808 13.8724 32.6052 12.3083 32.6052C10.7441 32.6052 9.4718 33.7808 9.4718 35.2259C9.4718 36.6711 10.7441 37.8471 12.3083 37.8471C13.8724 37.8466 15.1452 36.6711 15.1452 35.2259ZM12.3083 36.0888C11.7935 36.0888 11.3743 35.7015 11.3743 35.2259C11.3743 34.7498 11.7935 34.3626 12.3083 34.3626C12.8235 34.3626 13.2427 34.7498 13.2427 35.2259C13.2427 35.7015 12.8235 36.0888 12.3083 36.0888Z" fill="black"/>
<path d="M38.8625 51.2526C40.4267 51.2526 41.699 50.0771 41.699 48.6319C41.699 47.1868 40.4267 46.0112 38.8625 46.0112C37.2984 46.0112 36.0261 47.1868 36.0261 48.6319C36.0261 50.0771 37.2984 51.2526 38.8625 51.2526ZM38.8625 47.769C39.3778 47.769 39.7965 48.1563 39.7965 48.6319C39.7965 49.108 39.3778 49.4948 38.8625 49.4948C38.3477 49.4948 37.9286 49.108 37.9286 48.6319C37.9286 48.1563 38.3477 47.769 38.8625 47.769Z" fill="black"/>
<path d="M32.7561 41.3305C34.3202 41.3305 35.593 40.155 35.593 38.7098C35.593 37.2646 34.3202 36.0891 32.7561 36.0891C31.1919 36.0891 29.9196 37.2646 29.9196 38.7098C29.9196 40.155 31.1919 41.3305 32.7561 41.3305ZM32.7561 37.8465C33.2713 37.8465 33.6905 38.2337 33.6905 38.7098C33.6905 39.1854 33.2713 39.5727 32.7561 39.5727C32.2413 39.5727 31.8222 39.1854 31.8222 38.7098C31.8222 38.2337 32.2413 37.8465 32.7561 37.8465Z" fill="black"/>
<path d="M50.8431 19.292C48.2395 19.292 46.1214 21.2494 46.1214 23.6549C46.1214 26.0605 48.2395 28.0179 50.8431 28.0179C53.4467 28.0179 55.5652 26.0605 55.5652 23.6549C55.5652 21.2494 53.4467 19.292 50.8431 19.292ZM50.8431 26.2601C49.2883 26.2601 48.0239 25.0914 48.0239 23.6549C48.0239 22.2185 49.2883 21.0498 50.8431 21.0498C52.3978 21.0498 53.6627 22.2185 53.6627 23.6549C53.6627 25.0914 52.3978 26.2601 50.8431 26.2601Z" fill="black"/>
<path d="M65.1614 28.0824C64.5208 18.7093 59.1491 10.2026 50.7552 5.02808C50.125 4.63989 49.3436 4.50256 48.6009 4.6463C48.3661 3.98071 47.8493 3.4227 47.1716 3.11234C42.6684 1.04691 37.8184 0 32.7564 0C27.6949 0 22.8449 1.04691 18.3412 3.11234C17.6639 3.42316 17.1472 3.98071 16.9123 4.6463C16.1697 4.50256 15.3878 4.63989 14.7576 5.02808C6.37161 10.1981 0.99299 18.7015 0.351875 28.0824C0.304312 28.7823 0.567397 29.4772 1.07375 30C0.566901 30.5228 0.304312 31.2177 0.351875 31.9176C0.992494 41.2907 6.36418 49.7974 14.7581 54.9719C15.3655 55.3464 16.1394 55.5034 16.9123 55.3537C17.1472 56.0193 17.6639 56.5773 18.3417 56.8881C22.8449 58.9531 27.6949 60 32.7564 60C37.8184 60 42.6684 58.9531 47.1716 56.8877C48.6396 56.2148 49.1806 54.5251 48.3611 53.2137L34.4043 30.8789H44.6155V35.8667C44.6155 37.484 45.9954 38.9172 47.9777 38.9172C49.8445 38.9172 51.3636 37.5188 51.3636 35.7999V34.9937C51.3636 34.7095 51.6138 34.4783 51.9215 34.4783C52.2291 34.4783 52.4793 34.7095 52.4793 34.9937V41.2582C52.4793 42.6846 53.7353 43.8446 55.2791 43.8446C56.8225 43.8446 58.0784 42.6846 58.0784 41.2582V30.8789H62.3116C63.9555 30.8789 65.2645 29.5953 65.1614 28.0824ZM16.1424 48.295C15.0822 47.4719 14.3662 46.1732 13.3441 45.049C12.3235 43.9265 11.064 43.0531 10.3679 41.9417C9.67925 40.8426 9.48454 39.397 8.93805 38.0095C8.399 36.6417 7.53989 35.4263 7.29811 34.1487C7.11033 33.1595 7.2986 32.0567 7.38184 30.8789H31.109L19.243 49.8674C18.1014 49.3474 16.9842 48.9482 16.1424 48.295ZM7.29811 25.8513C7.53989 24.5737 8.399 23.3583 8.93805 21.9905C9.48503 20.6017 9.67925 19.1579 10.3679 18.0583C11.0635 16.9469 12.324 16.073 13.3441 14.951C14.3672 13.8249 15.0817 12.5285 16.1424 11.705C16.9842 11.0518 18.1019 10.6522 19.2435 10.1321L24.249 18.143C24.5116 18.5632 25.0937 18.7074 25.5486 18.4648C26.0034 18.2222 26.1595 17.6843 25.8969 17.2641L20.8898 9.2514C21.9412 8.59863 22.8702 7.90375 23.9141 7.55264C25.1988 7.12051 26.7728 7.19513 28.3538 6.9397C29.8996 6.6893 31.3424 6.11893 32.7564 6.11893C34.1709 6.11893 35.6137 6.6893 37.1595 6.9397C38.7405 7.19513 40.315 7.12051 41.5992 7.55264C42.6426 7.90375 43.5711 8.59818 44.6235 9.2514L32.7564 28.2422L28.1165 20.8163C27.8534 20.3961 27.2717 20.2519 26.8169 20.4945C26.3621 20.7376 26.206 21.275 26.4686 21.6953L31.109 29.1211H7.38234C7.2986 27.9433 7.11033 26.8405 7.29811 25.8513ZM19.1875 4.68658C23.4256 2.74338 27.9911 1.75781 32.7564 1.75781C37.5222 1.75781 42.0877 2.74338 46.3258 4.68658C46.8094 4.90814 46.9873 5.46936 46.7133 5.90744L45.5772 7.72522C44.5298 7.0665 43.5141 6.32629 42.2498 5.90103C40.6653 5.36819 38.9818 5.45013 37.4875 5.20798C36.0388 4.97406 34.4885 4.36111 32.7564 4.36111C31.0248 4.36111 29.474 4.97406 28.0258 5.20798C26.532 5.45013 24.848 5.36774 23.2631 5.90103C21.9992 6.32629 20.986 7.06467 19.9361 7.72522C19.9277 7.71194 18.8005 5.90836 18.8005 5.90836L18.8 5.90744C18.5265 5.46982 18.7034 4.9086 19.1875 4.68658ZM2.25094 28.1927C2.84647 19.4714 7.91693 11.3585 15.8139 6.49017C16.2633 6.21323 16.8797 6.34964 17.1541 6.78909L18.2897 8.60641C17.1462 9.11957 15.9423 9.56497 14.9187 10.3592C13.6141 11.3718 12.8506 12.7611 11.887 13.8208C10.9263 14.8773 9.57669 15.8116 8.72105 17.178C7.87283 18.5326 7.66672 20.078 7.15046 21.389C6.64362 22.6753 5.72109 23.9799 5.42381 25.5482C5.19541 26.7535 5.38368 27.9424 5.47485 29.1211H3.20122C2.65226 29.1211 2.21626 28.6954 2.25094 28.1927ZM15.8139 53.5094C7.91693 48.6415 2.84647 40.5286 2.25094 31.8068C2.21626 31.3046 2.65226 30.8789 3.20171 30.8789H5.47485C5.38368 32.0595 5.19541 33.2465 5.42381 34.4518C5.72109 36.0201 6.64362 37.3251 7.15046 38.611C7.66672 39.9216 7.87333 41.4674 8.72105 42.822C9.57669 44.1879 10.9268 45.1227 11.8875 46.1797C12.8511 47.2394 13.6146 48.6287 14.9191 49.6408C15.9418 50.435 17.1452 50.88 18.2897 51.3936L17.1541 53.2104C16.8811 53.6481 16.2658 53.7881 15.8139 53.5094ZM46.3258 55.3134C42.0877 57.2566 37.5222 58.2422 32.7564 58.2422C27.9907 58.2422 23.4256 57.2566 19.1875 55.3134C18.7039 55.0914 18.526 54.5306 18.8 54.0926L19.9361 52.2748C20.984 52.934 21.9992 53.6737 23.2631 54.099C23.756 54.2651 24.3025 54.0303 24.4824 53.5735C24.6622 53.1175 24.4075 52.6131 23.9141 52.4474C22.8707 52.0963 21.9417 51.4018 20.8898 50.7481L32.7564 31.7578L44.6235 50.7481C43.5711 51.4018 42.6426 52.0963 41.5992 52.4474C40.3145 52.8795 38.7405 52.8044 37.1595 53.0603C35.6137 53.3102 34.1709 53.8811 32.7564 53.8811C31.2482 53.8811 29.7673 53.2443 27.9936 53.0072C27.4734 52.9381 26.9913 53.2713 26.916 53.7515C26.8412 54.2322 27.2019 54.678 27.7216 54.7472C29.3611 54.966 30.9242 55.6389 32.7564 55.6389C34.4885 55.6389 36.0383 55.0264 37.4875 54.792C38.9808 54.5503 40.6648 54.6323 42.2502 54.099C43.5136 53.6742 44.5278 52.9353 45.5772 52.2748L46.7133 54.0926C46.9868 54.5302 46.8099 55.0914 46.3258 55.3134ZM57.1272 29.1211C56.602 29.1211 56.1759 29.5148 56.1759 30V41.2582C56.1759 41.7151 55.7736 42.0868 55.2791 42.0868C54.7847 42.0868 54.3824 41.7151 54.3824 41.2582V34.9937C54.3824 33.7399 53.2785 32.7205 51.9215 32.7205C50.5649 32.7205 49.4611 33.7399 49.4611 34.9937V35.7999C49.4611 36.5007 48.8695 37.1594 47.9172 37.1594C47.1438 37.1594 46.5181 36.5813 46.5181 35.8667L46.5186 30.8789H53.712C54.2372 30.8789 54.6633 30.4852 54.6633 30C54.6633 29.5148 54.2372 29.1211 53.712 29.1211H34.4043L46.2698 10.1326C47.4099 10.6517 48.5286 11.0513 49.3709 11.705C50.4316 12.5281 51.1466 13.8263 52.1692 14.951C53.1898 16.0735 54.4493 16.9464 55.1454 18.0583C55.834 19.1574 56.0283 20.603 56.5752 21.9905C57.1143 23.3583 57.9729 24.5737 58.2152 25.8513C58.403 26.8405 58.2147 27.9433 58.131 29.1211H57.1272ZM62.3116 29.1211H60.0385C60.1296 27.9405 60.3179 26.7535 60.0895 25.5482C59.7922 23.9799 58.8697 22.6749 58.3628 21.389C57.8471 20.0789 57.64 18.5321 56.7923 17.178C55.9366 15.8116 54.586 14.8764 53.6258 13.8203C52.6632 12.7611 51.8987 11.3713 50.5946 10.3592C49.5715 9.56543 48.3691 9.12048 47.2236 8.60641L48.3592 6.78909C48.6336 6.34964 49.2505 6.21323 49.6994 6.49017C57.5964 11.3585 62.6668 19.4714 63.2624 28.1927C63.297 28.6963 62.8601 29.1211 62.3116 29.1211Z" fill="#1C3F55"/>
</g>
<defs>
<clipPath id="clip0">
<rect width="64.9399" height="60" fill="white" transform="translate(0.219238)"/>
</clipPath>
</defs>
</svg>
