<svg width="66" height="60" viewBox="0 0 66 60" fill="none" xmlns="http://www.w3.org/2000/svg">
<path d="M48.6566 52.2525C49.0202 53.7368 47.116 54.8094 45.8839 53.7976C45.3357 53.3483 44.6965 52.9793 43.6514 52.9793C40.9643 52.9793 40.9643 55.4145 38.2759 55.4145C35.5888 55.4145 35.5888 52.9793 32.9004 52.9793C30.2133 52.9793 30.2133 55.4145 27.5248 55.4145C24.8365 55.4145 24.8365 52.9793 22.1493 52.9793C19.461 52.9793 19.461 55.4145 16.7725 55.4145C14.0842 55.4145 14.0842 52.9793 11.3957 52.9793C10.3506 52.9793 9.71147 53.3483 9.16325 53.7976C7.93109 54.8094 6.02678 53.7368 6.39056 52.2512C6.95198 49.9536 7.9562 48.7311 7.9562 48.7311V7.5583C7.9562 7.5583 6.95198 6.337 6.39056 4.03822C6.02703 2.55277 7.93134 1.48125 9.1635 2.49183C9.71173 2.94232 10.3509 3.31008 11.396 3.31008C12.4819 3.31008 13.1289 2.91197 13.6916 2.43956C14.5218 1.73943 15.1689 0.875 16.7701 0.875C19.4586 0.875 19.4586 3.3102 22.1469 3.3102C24.834 3.3102 24.834 0.875 27.5224 0.875C30.2109 0.875 30.2109 3.3102 32.8979 3.3102C35.5864 3.3102 35.5864 0.875 38.2747 0.875C40.9631 0.875 40.9631 3.3102 43.6503 3.3102C44.6966 3.3102 45.3358 2.94244 45.884 2.49194C47.1162 1.48137 49.0205 2.55277 48.6567 4.03834C48.0953 6.33712 47.091 7.55841 47.091 7.55841V48.7313C47.0909 48.7311 48.0951 49.9536 48.6566 52.2525Z" fill="#ECECEC"/>
<path d="M7.95629 10.5461V7.55825C7.95629 7.55825 6.95207 6.33696 6.39066 4.03817C6.027 2.55272 7.93131 1.4812 9.16347 2.49178C9.71169 2.94228 10.3509 3.31004 11.3959 3.31004C12.4818 3.31004 13.1289 2.91192 13.6916 2.43951C14.1738 4.9271 15.0002 6.88859 15.0002 6.88859L7.95629 10.5461Z" fill="#DADADA"/>
<path d="M7.95642 45.7434V48.7314C7.95642 48.7314 6.95219 49.9527 6.39078 52.2515C6.02712 53.737 7.9313 54.8085 9.16347 53.7979C9.71169 53.3474 10.3509 52.9796 11.3959 52.9796C12.4818 52.9796 13.1289 53.3777 13.6915 53.8502C14.1738 51.3626 15.0002 49.4011 15.0002 49.4011L7.95642 45.7434Z" fill="#DADADA"/>
<path d="M47.0914 7.44061C34.0463 5.92657 21.0011 6.45898 7.95594 7.97291C6.52095 21.7364 6.52095 34.9677 7.95594 48.7312C21.0011 50.2453 34.0463 50.2453 47.0914 48.7312C48.5264 34.9678 48.5264 21.2041 47.0914 7.44061Z" fill="#E49542"/>
<path d="M14.9998 49.5208C12.6514 49.3467 10.3044 49.1227 7.95604 48.8499C6.52092 35.0862 6.52092 21.3226 7.95604 7.55881C10.3044 7.2861 12.6514 7.0632 14.9998 6.88916C13.5344 21.0986 13.5344 35.3103 14.9998 49.5208Z" fill="#E28424"/>
<path d="M43.4714 28.0857C43.4714 35.5769 36.3313 41.6495 27.5229 41.6495C21.8074 41.6495 16.7944 39.0919 13.9795 35.2494C12.4548 33.171 11.5744 30.7156 11.5744 28.0858C11.5744 25.4515 12.4574 22.993 13.9861 20.9117C16.8023 17.0737 21.8128 14.522 27.5229 14.522C36.3313 14.5219 43.4714 20.5944 43.4714 28.0857Z" fill="#ECECEC"/>
<path d="M13.9793 33.8899C12.4546 32.206 11.5742 30.2164 11.5742 28.0857C11.5742 25.9512 12.4572 23.9593 13.9859 22.2729C13.874 26.1447 13.8726 30.0179 13.9793 33.8899Z" fill="#DADADA"/>
<path d="M25.4919 32.4652C21.6487 33.5693 15.4416 32.4409 15.3865 27.5238C15.3313 22.6066 21.956 25.5357 21.956 25.5357L25.4919 32.4652Z" fill="#FFC250"/>
<path d="M17.2548 24.7649C19.9369 24.3403 21.9741 27.6241 24.2278 31.0496C26.4816 34.4751 32.3504 35.833 36.1003 32.9523C39.8502 30.0716 41.4374 25.0264 36.8331 22.017C32.2288 19.0077 29.3546 25.8399 25.3909 26.0277C21.4272 26.2154 21.3983 23.4932 17.2548 24.7649Z" fill="#FFD064"/>
<path d="M40.4763 56.4646C35.5072 57.8922 27.4814 56.4332 27.4101 50.0755C27.3388 43.7176 35.9044 47.5049 35.9044 47.5049L40.4763 56.4646Z" fill="#FFC250"/>
<path d="M29.8261 46.5083C33.2942 45.9592 35.9281 50.2052 38.8422 54.6344C41.7563 59.0635 49.3446 60.8191 54.1932 57.0944C59.0419 53.3697 61.0939 46.8463 55.1406 42.9552C49.1873 39.0641 45.4711 47.8981 40.3459 48.141C35.2209 48.3838 35.1835 44.8639 29.8261 46.5083Z" fill="#FFD064"/>
<path d="M44.4213 28.0864C44.4213 20.1233 36.8409 13.645 27.5235 13.645C18.206 13.645 10.6257 20.1233 10.6257 28.0864C10.6257 36.0495 18.206 42.5279 27.5235 42.5279C36.8409 42.5279 44.4213 36.0495 44.4213 28.0864ZM12.5281 28.0864C12.5281 21.0925 19.255 15.4027 27.5235 15.4027C35.7919 15.4027 42.5188 21.0925 42.5188 28.0864C42.5188 35.0803 35.7919 40.7701 27.5235 40.7701C19.255 40.7701 12.5281 35.0802 12.5281 28.0864Z" fill="#1C3F55"/>
<path d="M29.7127 35.2772C30.2483 35.3598 30.7788 35.4007 31.3005 35.4007C33.3142 35.4007 35.1932 34.7916 36.7082 33.6278C39.2541 31.672 40.7104 28.9963 40.6038 26.4703C40.5167 24.4089 39.4027 22.6212 37.3819 21.3006C34.0126 19.0982 31.3382 21.2611 29.1894 22.999C27.8592 24.0748 26.6028 25.0909 25.343 25.1505C23.8423 25.2218 23.0324 24.8141 22.1753 24.3826C20.9881 23.7849 19.6424 23.1072 16.9567 23.9316C16.9468 23.9346 16.9381 23.9392 16.9289 23.9436C15.9027 24.2124 14.4091 25.0334 14.4372 27.5331C14.4589 29.4892 15.3431 31.1105 16.9941 32.2216C18.5969 33.3004 20.6637 33.725 22.5798 33.725C23.5349 33.725 24.4505 33.6181 25.2547 33.4355C26.4944 34.3676 28.0433 35.0196 29.7127 35.2772ZM25.4406 26.9059C27.3595 26.815 28.9269 25.5474 30.4427 24.3215C32.7336 22.4688 34.2414 21.4008 36.2836 22.7355C37.825 23.7429 38.6389 25.0226 38.7029 26.5388C38.7853 28.493 37.5551 30.6914 35.4921 32.2763C34.0166 33.4096 32.0756 33.8597 30.0261 33.5435C27.9053 33.2163 26.0419 32.1134 25.0418 30.5931L24.7822 30.198C23.846 28.7721 22.931 27.3783 21.9578 26.2614C22.8004 26.641 23.8667 26.9807 25.4406 26.9059ZM18.1146 30.8008C16.9524 30.0186 16.3552 28.9131 16.3398 27.5147C16.3223 25.9579 17.0898 25.7117 17.4844 25.6245C19.3999 25.3916 21.225 28.1689 23.1557 31.1097L23.4161 31.5062C23.5068 31.6441 23.6044 31.7785 23.7055 31.911C21.8387 32.1091 19.6341 31.8236 18.1146 30.8008Z" fill="#1C3F55"/>
<path d="M59.7355 48.7204C59.6266 46.1379 58.227 43.8957 55.6879 42.2362C53.8053 41.0057 51.9259 40.7625 49.9423 41.4931C49.4886 41.6602 49.0485 41.8733 48.6188 42.1168C49.423 30.7149 49.2412 19.1746 48.0768 7.77638C48.4382 7.24091 49.1414 6.03731 49.5822 4.23509C49.8426 3.1699 49.3521 2.12229 48.3325 1.56596C47.3287 1.01831 46.1187 1.12531 45.2498 1.83833C44.8009 2.20655 44.3766 2.43485 43.6488 2.43485C42.6934 2.43485 42.246 2.02959 41.6268 1.46869C40.9043 0.81439 40.0053 0 38.2728 0C36.5403 0 35.6414 0.81439 34.9191 1.46881C34.3001 2.02971 33.8527 2.43485 32.8975 2.43485C31.9421 2.43485 31.4948 2.02959 30.8757 1.46869C30.1533 0.81439 29.2544 0 27.522 0C25.7896 0 24.8907 0.81439 24.1685 1.46881C23.5493 2.02971 23.1021 2.43497 22.1468 2.43497C21.1917 2.43497 20.7444 2.02971 20.1253 1.46893C19.403 0.81439 18.504 0 16.7717 0C15.0395 0 14.1407 0.81439 13.4184 1.46881C12.7994 2.02971 12.3523 2.43485 11.3973 2.43485C10.6697 2.43485 10.2454 2.20655 9.79676 1.83833C8.92788 1.12519 7.71817 1.01831 6.71445 1.56573C5.69488 2.12194 5.2045 3.16943 5.46491 4.2345C5.90506 6.03509 6.60739 7.2381 6.96928 7.7745C6.76963 9.72404 6.59712 11.6837 6.45835 13.6066C6.42347 14.091 6.81998 14.5097 7.34423 14.5421C7.86873 14.5744 8.32169 14.2079 8.3567 13.7236C8.48748 11.9117 8.6473 10.0667 8.83275 8.22875C21.2394 6.84678 33.8071 6.84666 46.214 8.22875C47.3925 19.9348 47.5249 31.7904 46.6105 43.4846C46.2151 43.7897 45.8257 44.1041 45.4401 44.4161L45.1745 44.6305C44.7788 44.9498 44.7381 45.5051 45.0836 45.8706C45.4293 46.2361 46.0302 46.2737 46.4259 45.9545L46.693 45.7385C49.7575 43.2598 51.7781 41.8338 54.5893 43.6709C56.6564 45.0221 57.7483 46.7439 57.8347 48.7886C57.9446 51.394 56.3156 54.3165 53.5832 56.4156C51.6117 57.9299 49.0219 58.5315 46.2904 58.1099C43.4698 57.6745 40.9894 56.2036 39.655 54.1752L39.3162 53.6597C37.7925 51.3395 36.3131 49.0868 34.6826 47.5515C34.8329 47.6244 34.9856 47.7013 35.143 47.7805C36.344 48.385 37.8388 49.1373 40.3937 49.0165C41.3215 48.9725 42.2526 48.6998 43.2404 48.1827C43.6974 47.9434 43.8581 47.4071 43.5991 46.9849C43.3402 46.5625 42.7599 46.4143 42.3026 46.6535C41.5782 47.0327 40.9219 47.2315 40.2964 47.2611C38.2769 47.3569 37.197 46.8128 36.0534 46.2372C34.4955 45.4529 32.8847 44.6418 29.5272 45.6724C29.5138 45.6765 29.5012 45.6823 29.4892 45.6887C27.4564 46.2095 26.7534 47.6992 26.5412 48.9823C20.6597 48.947 14.7106 48.5984 8.83275 47.9434C7.80404 37.7257 7.56925 27.3805 8.13536 17.1833C8.16225 16.6986 7.75876 16.2855 7.23413 16.2605C6.70861 16.2359 6.26225 16.6084 6.23536 17.0932C5.65733 27.5057 5.90874 38.0704 6.97981 48.5C6.62097 49.0283 5.90874 50.237 5.46453 52.0556C5.20386 53.1208 5.69399 54.1684 6.71331 54.7247C7.71703 55.2723 8.92725 55.1655 9.79651 54.452C10.245 54.0839 10.6693 53.8557 11.3975 53.8557C12.3533 53.8557 12.8007 54.2608 13.4199 54.8216C14.1423 55.4758 15.0415 56.2899 16.7739 56.2899C18.5058 56.2899 19.4046 55.4759 20.1267 54.8217C20.7459 54.2608 21.1933 53.8557 22.1491 53.8557C23.104 53.8557 23.5512 54.2607 24.1701 54.8214C24.8925 55.4757 25.7915 56.2899 27.5242 56.2899C28.3835 56.2899 29.0266 56.0836 29.5088 55.8375C29.5565 55.871 29.6022 55.906 29.651 55.9388C31.6726 57.2993 34.2821 57.8349 36.7039 57.8349C37.9706 57.8349 39.1846 57.6875 40.2377 57.436C41.8198 58.6562 43.8177 59.5104 45.9766 59.8437C46.6537 59.9482 47.3242 59.9999 47.9833 59.9999C50.5223 59.9999 52.8907 59.233 54.7989 57.7673C58.0248 55.2895 59.87 51.9074 59.7355 48.7204ZM8.37458 6.51067C8.06876 5.99067 7.62481 5.09202 7.32051 3.84729C7.20622 3.37991 7.56811 3.14142 7.68176 3.07942C7.81939 3.0043 8.17823 2.86097 8.53339 3.15244C9.12347 3.63669 9.98221 4.19254 11.3974 4.19254C13.1296 4.19254 14.0284 3.37815 14.7507 2.72374C15.3697 2.16284 15.8168 1.75769 16.7718 1.75769C17.7271 1.75769 18.1743 2.16296 18.7934 2.72374C19.5157 3.37815 20.4146 4.19254 22.1469 4.19254C23.8794 4.19254 24.7783 3.37815 25.5006 2.72374C26.1197 2.16284 26.5669 1.75769 27.5222 1.75769C28.4775 1.75769 28.9249 2.16296 29.544 2.72385C30.2664 3.37827 31.1653 4.19266 32.8977 4.19266C34.63 4.19266 35.529 3.37827 36.2512 2.72385C36.8702 2.16296 37.3176 1.75769 38.273 1.75769C39.2284 1.75769 39.6758 2.16296 40.295 2.72385C41.0175 3.37827 41.9165 4.19266 43.6489 4.19266C45.0644 4.19266 45.9232 3.6368 46.5132 3.15255C46.8686 2.86085 47.2276 3.0043 47.3652 3.07954C47.4788 3.14154 47.841 3.38015 47.7266 3.84764C47.4221 5.09284 46.9778 5.99161 46.6728 6.51067C33.9627 5.07737 21.0841 5.07737 8.37458 6.51067ZM25.5021 53.5663C24.78 52.9123 23.8812 52.0981 22.1492 52.0981C20.4164 52.0981 19.5175 52.9124 18.7951 53.5667C18.1762 54.1272 17.729 54.5324 16.7741 54.5324C15.8183 54.5324 15.3709 54.1272 14.7517 53.5664C14.0293 52.9123 13.1301 52.0981 11.3977 52.0981C9.9817 52.0981 9.12296 52.6538 8.53327 53.138C8.1776 53.4298 7.81875 53.2866 7.681 53.2113C7.56748 53.1493 7.20597 52.911 7.32051 52.4431C7.64751 51.1041 8.1365 50.1659 8.44105 49.6692C14.4332 50.3429 20.4995 50.7028 26.4973 50.7399C26.6314 52.1641 27.1493 53.4298 28.0293 54.488C27.8797 54.5161 27.7132 54.5324 27.5246 54.5324C26.5688 54.5324 26.1213 54.1272 25.5021 53.5663ZM30.7714 54.5183C29.1938 53.4565 28.3832 51.9579 28.3622 50.0641C28.3392 48.0294 29.3084 47.5385 30.0751 47.3632C32.734 47.0298 35.1424 50.6931 37.6897 54.5719L38.0292 55.0886C38.223 55.3832 38.4368 55.6676 38.6677 55.9418C36.1002 56.3062 32.9237 55.9668 30.7714 54.5183Z" fill="#1C3F55"/>
<path d="M54.0438 52.2583L53.9965 52.284C53.5432 52.5295 53.3913 53.068 53.6572 53.4867C53.8342 53.7657 54.1521 53.9211 54.4786 53.9211C54.6421 53.9211 54.8076 53.8822 54.959 53.8003L55.0063 53.7746C55.4595 53.5291 55.6114 52.9906 55.3456 52.572C55.0796 52.1531 54.4971 52.0128 54.0438 52.2583Z" fill="#1C3F55"/>
<path d="M55.8309 51.8854C55.9944 51.8854 56.1599 51.8465 56.3112 51.7646L56.3586 51.739C56.8118 51.4934 56.9637 50.9549 56.698 50.5363C56.4323 50.1175 55.8494 49.9771 55.3962 50.2227L55.3489 50.2483C54.8957 50.4939 54.7437 51.0324 55.0096 51.451C55.1865 51.73 55.5044 51.8854 55.8309 51.8854Z" fill="#1C3F55"/>
<path d="M52.7332 50.1919L52.6859 50.2176C52.2326 50.4631 52.0807 51.0016 52.3465 51.4203C52.5236 51.6993 52.8415 51.8547 53.168 51.8547C53.3315 51.8547 53.497 51.8158 53.6483 51.7339L53.6957 51.7082C54.1489 51.4627 54.3008 50.9242 54.035 50.5056C53.7691 50.0867 53.1865 49.9464 52.7332 50.1919Z" fill="#1C3F55"/>
</svg>
